<svg xmlns="http://www.w3.org/2000/svg" width="50" height="50" viewBox="0 0 50 50" fill="none"><rect x="7" y="6" width="37" height="37" rx="10" fill="#f1edee"/><path d="M37.2844 25.125C37.2844 31.1797 32.841 36.209 27.0305 37.0879V28.6406H29.8625L30.3996 25.125H27.0305V22.8789C27.0305 21.9023 27.5188 20.9746 29.0324 20.9746H30.5461V17.9961C30.5461 17.9961 29.1789 17.752 27.8117 17.752C25.0773 17.752 23.2707 19.4609 23.2707 22.4883V25.125H20.1945V28.6406H23.2707V37.0879C17.4602 36.209 13.0656 31.1797 13.0656 25.125C13.0656 18.4355 18.4855 13.0156 25.175 13.0156C31.8645 13.0156 37.2844 18.4355 37.2844 25.125Z" fill="#9b2233"/></svg>