<svg xmlns="http://www.w3.org/2000/svg" width="50" height="50" viewBox="0 0 50 50" fill="none"><rect x="7" y="6" width="37" height="37" rx="10" fill="#f1edee"></rect><path d="M34.5428 14.1875C35.3728 14.1875 36.1053 14.9199 36.1053 15.7988V34.5C36.1053 35.3789 35.3728 36.0625 34.5428 36.0625H15.7439C14.9138 36.0625 14.2303 35.3789 14.2303 34.5V15.7988C14.2303 14.9199 14.9138 14.1875 15.7439 14.1875H34.5428ZM20.822 32.9375V22.5371H17.5994V32.9375H20.822ZM19.2107 21.0723C20.2361 21.0723 21.0662 20.2422 21.0662 19.2168C21.0662 18.1914 20.2361 17.3125 19.2107 17.3125C18.1365 17.3125 17.3064 18.1914 17.3064 19.2168C17.3064 20.2422 18.1365 21.0723 19.2107 21.0723ZM32.9803 32.9375V27.2246C32.9803 24.4414 32.3455 22.2441 29.074 22.2441C27.5115 22.2441 26.4373 23.123 25.9978 23.9531H25.949V22.5371H22.8728V32.9375H26.0955V27.8105C26.0955 26.4434 26.3396 25.125 28.0486 25.125C29.7088 25.125 29.7088 26.6875 29.7088 27.8594V32.9375H32.9803Z" fill="#9b2233"></path></svg>