<svg xmlns="http://www.w3.org/2000/svg" width="50" height="50" viewBox="0 0 50 50" fill="none"><rect x="7" y="6" width="37" height="37" rx="10" fill="#f1edee"/><path d="M25.1678 19.5098C28.2439 19.5098 30.783 22.0488 30.783 25.125C30.783 28.25 28.2439 30.7402 25.1678 30.7402C22.0428 30.7402 19.5525 28.25 19.5525 25.125C19.5525 22.0488 22.0428 19.5098 25.1678 19.5098ZM25.1678 28.7871C27.1697 28.7871 28.781 27.1758 28.781 25.125C28.781 23.123 27.1697 21.5117 25.1678 21.5117C23.117 21.5117 21.5056 23.123 21.5056 25.125C21.5056 27.1758 23.1658 28.7871 25.1678 28.7871ZM32.2967 19.3145C32.2967 20.0469 31.7107 20.6328 30.9783 20.6328C30.2459 20.6328 29.6599 20.0469 29.6599 19.3145C29.6599 18.582 30.2459 17.9961 30.9783 17.9961C31.7107 17.9961 32.2967 18.582 32.2967 19.3145ZM36.0076 20.6328C36.1053 22.4395 36.1053 27.8594 36.0076 29.666C35.9099 31.4238 35.5193 32.9375 34.2498 34.2559C32.9803 35.5254 31.4178 35.916 29.6599 36.0137C27.8533 36.1113 22.4334 36.1113 20.6267 36.0137C18.8689 35.916 17.3553 35.5254 16.0369 34.2559C14.7674 32.9375 14.3767 31.4238 14.2791 29.666C14.1814 27.8594 14.1814 22.4395 14.2791 20.6328C14.3767 18.875 14.7674 17.3125 16.0369 16.043C17.3553 14.7734 18.8689 14.3828 20.6267 14.2852C22.4334 14.1875 27.8533 14.1875 29.6599 14.2852C31.4178 14.3828 32.9803 14.7734 34.2498 16.043C35.5193 17.3125 35.9099 18.875 36.0076 20.6328ZM33.6638 31.5703C34.2498 30.1543 34.1033 26.7363 34.1033 25.125C34.1033 23.5625 34.2498 20.1445 33.6638 18.6797C33.2732 17.752 32.5408 16.9707 31.6131 16.6289C30.1482 16.043 26.7303 16.1895 25.1678 16.1895C23.5564 16.1895 20.1385 16.043 18.7224 16.6289C17.7459 17.0195 17.0135 17.752 16.6228 18.6797C16.0369 20.1445 16.1834 23.5625 16.1834 25.125C16.1834 26.7363 16.0369 30.1543 16.6228 31.5703C17.0135 32.5469 17.7459 33.2793 18.7224 33.6699C20.1385 34.2559 23.5564 34.1094 25.1678 34.1094C26.7303 34.1094 30.1482 34.2559 31.6131 33.6699C32.5408 33.2793 33.322 32.5469 33.6638 31.5703Z" fill="#9b2233"/></svg>