<svg xmlns="http://www.w3.org/2000/svg" width="37" height="37" viewBox="0 0 37 37" fill="none"><rect width="37" height="37" rx="10" fill="#09A6FF" fill-opacity="0.11"></rect><path d="M13.2016 28H8.84688V13.9797H13.2006L13.2016 28ZM11.0214 12.0672C9.62922 12.0672 8.5 10.9141 8.5 9.52187C8.5 8.85303 8.7657 8.21158 9.23864 7.73864C9.71158 7.2657 10.353 7 11.0219 7C11.6907 7 12.3322 7.2657 12.8051 7.73864C13.2781 8.21158 13.5437 8.85303 13.5437 9.52187C13.5437 10.9141 12.4141 12.0672 11.0223 12.0672H11.0214ZM29.4953 28H25.1509V21.175C25.1509 19.5484 25.1181 17.4625 22.8873 17.4625C20.6237 17.4625 20.2769 19.2297 20.2769 21.0578V28H15.9278V13.9797H20.1034V15.8922H20.1644C20.7456 14.7906 22.1655 13.6281 24.2838 13.6281C28.69 13.6281 29.5009 16.5297 29.5009 20.2984V28H29.4953Z" fill="#09A6FF"></path></svg>