<svg xmlns="http://www.w3.org/2000/svg" width="599" height="599" viewBox="0 0 599 599" fill="none"><g opacity="0.5" clip-path="url(#clip0_513_3062)"><path d="M595.773 258.306C595.773 280.713 575.679 303.328 540.637 320.338C512.207 334.135 460.18 350.858 373.726 352.125L371.988 352.152L372.497 353.824C388.045 404.241 395.924 449.799 395.937 489.255C395.937 522.021 390.319 549.419 379.67 568.467C369.884 585.974 356.126 595.668 340.918 595.76C318.485 595.89 295.829 575.849 278.766 540.796C264.929 512.353 248.153 460.29 246.886 373.709L246.86 371.971L245.187 372.481C192.468 388.746 145.158 396.611 104.59 395.867C69.0125 395.213 40.6734 387.858 22.63 374.584C9.95649 365.256 3.2539 353.549 3.2539 340.694C3.25389 318.287 23.3486 295.672 58.3902 278.661C86.8207 264.865 138.847 248.142 225.302 246.875L227.039 246.848L226.53 245.176C210.982 194.759 203.09 149.201 203.09 109.745C203.09 76.9784 208.709 49.5813 219.357 30.5327C229.143 13.0257 242.901 3.33153 258.109 3.25316C280.543 3.12249 303.198 23.164 320.262 58.2171C334.098 86.6464 350.874 138.723 352.141 225.304L352.168 227.042L353.84 226.532C406.559 210.267 453.869 202.402 494.425 203.146C530.002 203.8 558.341 211.155 576.384 224.429C589.058 233.744 595.76 245.463 595.76 258.319L595.773 258.306ZM370.799 351.668C370.799 351.59 370.812 351.485 370.89 351.381C370.982 351.25 371.139 351.172 371.295 351.172C458.926 350.179 511.514 333.377 540.193 319.45C574.882 302.609 594.78 280.321 594.78 258.306C594.78 245.79 588.222 234.345 575.809 225.213C557.923 212.07 529.78 204.779 494.425 204.126C453.373 203.368 405.396 211.469 351.841 228.179C351.697 228.231 351.527 228.205 351.41 228.113C351.279 228.022 351.201 227.878 351.201 227.721C350.208 139.951 333.353 87.3258 319.386 58.6352C302.493 23.9349 280.164 4.11541 258.122 4.23302C243.293 4.31139 229.835 13.8226 220.232 31.016C209.675 49.921 204.096 77.1352 204.096 109.745C204.096 149.698 212.21 195.934 228.202 247.175C228.215 247.227 228.228 247.28 228.228 247.332C228.228 247.436 228.189 247.541 228.137 247.632C228.045 247.75 227.902 247.828 227.745 247.828C140.115 248.821 87.5262 265.623 58.8344 279.55C24.1456 296.391 4.24687 318.679 4.24687 340.694C4.24687 353.21 10.8057 364.655 23.218 373.774C41.0915 386.917 69.2346 394.221 104.603 394.861C145.668 395.618 193.631 387.518 247.186 370.808C247.33 370.756 247.5 370.795 247.631 370.887C247.761 370.978 247.84 371.122 247.84 371.279C248.833 459.036 265.687 511.661 279.654 540.365C296.548 575.065 318.877 594.885 340.918 594.767C355.747 594.689 369.205 585.177 378.795 567.984C389.352 549.079 394.931 521.865 394.931 489.255C394.931 449.289 386.817 403.052 370.825 351.825C370.825 351.773 370.799 351.72 370.799 351.681L370.799 351.668Z" fill="url(#paint0_linear_513_3062)"></path><path d="M549.089 451.249C549.089 468.743 540.505 481.991 524.931 488.549C504.732 497.054 474.838 493.697 440.75 479.103C401.671 462.367 358.111 431.286 314.747 389.191L313.493 387.975L312.682 389.517C282.841 445.971 249.197 490.509 215.397 518.337C175.665 551.052 148.933 550.817 136.534 547.772C117.027 542.978 105.843 525.34 105.843 499.38C105.843 476.817 114.244 449.185 130.145 419.475C148.136 385.885 174.933 350.636 209.792 314.734L211.007 313.479L209.465 312.669C157.83 285.364 115.76 254.596 87.7864 223.658C63.3539 196.64 49.8965 169.674 49.8965 147.738C49.8965 130.231 58.4805 116.97 74.0676 110.412C94.2668 101.906 124.161 105.264 158.235 119.871C197.301 136.607 240.875 167.701 284.226 209.783L285.48 210.998L286.29 209.457C316.132 153.003 349.775 108.465 383.576 80.6235C423.321 47.8959 450.04 48.1311 462.439 51.1883C481.946 55.9962 493.13 73.6207 493.13 99.5807C493.13 122.157 484.729 149.776 468.828 179.486C450.837 213.089 424.04 248.325 389.181 284.227L387.966 285.481L389.507 286.291C441.142 313.584 483.213 344.365 511.186 375.303C535.619 402.321 549.076 429.274 549.076 451.223L549.076 451.236L549.089 451.249ZM106.849 499.393C106.849 524.844 117.759 542.128 136.782 546.819C157.569 551.94 186 541.279 214.77 517.579C248.923 489.464 282.867 444.285 312.931 386.93C313.009 386.787 313.14 386.695 313.297 386.669C313.453 386.643 313.61 386.695 313.728 386.8C357.575 429.679 401.645 461.283 441.155 478.202C474.995 492.691 504.601 496.048 524.552 487.648C539.734 481.259 548.096 468.338 548.096 451.262C548.096 429.561 534.717 402.83 510.455 375.995C482.155 344.705 439.444 313.61 386.921 286.069C386.777 285.991 386.685 285.86 386.659 285.703L386.659 285.677C386.659 285.494 386.711 285.377 386.79 285.285C422.419 248.847 449.726 213.102 467.966 179.041C483.788 149.489 492.15 122.013 492.15 99.6069C492.15 74.1564 481.24 56.8715 462.217 52.1812C441.43 47.0598 413.012 57.7207 384.229 81.4205C350.089 109.536 316.132 154.715 286.068 212.083C285.99 212.226 285.859 212.318 285.702 212.344C285.545 212.37 285.389 212.318 285.284 212.213C241.423 169.334 197.367 137.73 157.857 120.811C124.017 106.322 94.4106 102.965 74.4596 111.365C59.2644 117.754 50.8894 130.688 50.8894 147.777C50.8894 169.465 64.2554 196.183 88.518 223.018C116.818 254.308 159.529 285.403 212.052 312.931C212.196 313.009 212.287 313.14 212.313 313.297L212.313 313.323C212.313 313.506 212.261 313.623 212.183 313.715C176.553 350.153 149.246 385.898 131.02 419.958C115.198 449.511 106.836 476.987 106.836 499.393L106.849 499.393Z" fill="url(#paint1_linear_513_3062)"></path><path d="M570.386 417.986C570.386 433.141 562.533 445.553 548.279 452.921C528.798 462.994 498.669 463.321 463.445 453.836C423.125 442.979 376.494 419.423 328.609 385.702L327.185 384.696L326.623 386.343C280.267 521.995 215.135 576.541 174.24 569.826C151.702 566.129 138.258 543.879 138.258 510.342C138.258 461.858 164.912 397.317 213.306 328.596L214.312 327.172L212.666 326.61C153.95 306.555 105.62 281.105 72.8914 253.015C44.3564 228.532 28.6387 202.963 28.6387 181.027C28.6387 165.859 36.491 153.447 50.7716 146.079C70.2522 136.006 100.381 135.692 135.606 145.177C175.926 156.034 222.543 179.59 270.428 213.311L271.853 214.317L272.414 212.671C318.758 77.0177 383.876 22.4717 424.784 29.1871C447.322 32.8844 460.766 55.134 460.766 88.6716C460.766 137.156 434.113 201.696 385.718 270.418L384.712 271.842L386.358 272.403C445.075 292.471 493.404 317.909 526.133 345.998C554.668 370.482 570.386 396.05 570.386 417.986ZM139.251 510.342C139.251 543.357 152.395 565.227 174.397 568.846C195.655 572.335 222.426 558.342 247.851 530.462C278.02 497.368 305.196 446.637 326.44 383.743C326.492 383.599 326.61 383.481 326.767 383.429C326.911 383.377 327.08 383.403 327.211 383.494C375.71 417.894 422.903 441.895 463.706 452.869C498.682 462.289 528.563 461.988 547.822 452.033C561.932 444.743 569.393 432.958 569.393 417.986C569.38 360.827 476.144 303.759 383.758 272.56C383.615 272.508 383.497 272.39 383.445 272.247C383.432 272.194 383.419 272.142 383.419 272.09C383.419 271.985 383.445 271.894 383.51 271.802C411.993 231.667 459.76 154.493 459.76 88.6586C459.76 55.6435 446.616 33.7729 424.614 30.1539C403.357 26.6656 376.585 40.6581 351.16 68.5386C320.992 101.632 293.816 152.363 272.571 215.244C272.519 215.401 272.401 215.506 272.258 215.558C272.114 215.61 271.944 215.584 271.826 215.493C223.327 181.093 176.135 157.093 135.344 146.118C100.368 136.698 70.5005 136.986 51.2289 146.941C37.1051 154.231 29.6447 166.016 29.6447 181.014C29.6447 238.147 122.88 295.228 215.279 326.427C215.423 326.479 215.54 326.597 215.593 326.74C215.606 326.793 215.619 326.845 215.619 326.897C215.619 327.002 215.593 327.106 215.527 327.185C187.045 367.32 139.277 444.494 139.277 510.329L139.251 510.342Z" fill="url(#paint2_linear_513_3062)"></path><path d="M586.13 218.38C586.13 259.757 521.953 315.426 381.028 339.884L379.317 340.184L380.088 341.752C419.284 421.618 427.515 476.556 427.515 508.578C427.515 554.057 410.791 583.727 383.863 586C361.822 587.856 336.775 570.636 315.139 538.732C289.962 501.601 270.586 447.081 259.127 381.038L258.827 379.327L257.259 380.097C142.257 436.538 66.2416 434.892 33.4473 414.536C19.9898 406.175 12.8691 394.456 12.8691 380.646C12.8691 339.27 77.0468 283.6 217.971 259.142L219.683 258.842L218.912 257.274C179.715 177.395 171.484 122.47 171.484 90.4614C171.484 44.9825 188.208 15.3121 215.136 13.0387C237.177 11.1835 262.224 28.4031 283.86 60.3076C309.037 97.4381 328.414 151.971 339.872 218.001L340.172 219.713L341.74 218.942C456.756 162.501 532.758 164.147 565.552 184.503C579.009 192.851 586.13 204.57 586.13 218.393L586.13 218.38ZM378.075 339.805C378.075 339.727 378.088 339.648 378.128 339.583C378.193 339.439 378.337 339.348 378.494 339.322C443.834 328.217 498.134 309.364 535.541 284.815C567.068 264.133 585.137 239.911 585.137 218.393C585.137 204.936 578.186 193.517 565.029 185.352C532.183 164.958 455.815 163.586 340.016 220.901C339.872 220.967 339.715 220.967 339.571 220.901C339.428 220.823 339.323 220.692 339.297 220.536C324.912 135.914 300.754 86.9862 283.024 60.8563C261.597 29.2654 236.877 12.1896 215.201 14.0186C188.835 16.2397 172.464 45.5312 172.464 90.4484C172.464 122.732 180.865 178.192 220.858 258.986C220.898 259.051 220.911 259.129 220.911 259.208C220.911 259.286 220.898 259.365 220.858 259.43C220.793 259.574 220.649 259.665 220.506 259.691C155.165 270.796 100.852 289.649 63.4456 314.198C31.9186 334.893 13.849 359.102 13.849 380.633C13.849 394.09 20.7999 405.522 33.9568 413.674C66.8034 434.069 143.171 435.44 258.971 378.125C259.114 378.059 259.284 378.059 259.415 378.125C259.545 378.19 259.65 378.334 259.676 378.49C274.061 463.125 298.219 512.04 315.949 538.17C337.376 569.761 362.096 586.837 383.772 585.007C410.138 582.786 426.509 553.495 426.509 508.578C426.509 476.281 418.108 420.834 378.115 340.04C378.075 339.975 378.062 339.897 378.062 339.818L378.075 339.805Z" fill="url(#paint3_linear_513_3062)"></path><path d="M570.412 181.08C570.412 203.029 554.694 228.584 526.159 253.054C493.417 281.131 445.075 306.568 386.346 326.623L384.699 327.185L385.705 328.609C434.061 397.317 460.688 461.845 460.701 510.342C460.701 543.918 447.244 566.168 424.706 569.865C383.811 576.581 318.692 522.022 272.375 386.329L271.813 384.683L270.389 385.689C222.504 419.384 175.874 442.927 135.554 453.771C100.329 463.243 70.2001 462.916 50.7195 452.843C36.452 445.474 28.5996 433.063 28.5996 417.907C28.5996 395.958 44.3174 370.403 72.8524 345.933C105.594 317.856 153.937 292.419 212.679 272.364L214.325 271.802L213.319 270.378C164.964 201.67 138.323 137.129 138.323 88.6454C138.323 55.0687 151.781 32.8191 174.319 29.1217C215.214 22.4064 280.332 76.9785 326.636 212.658L327.198 214.304L328.622 213.298C376.507 179.603 423.138 156.06 463.458 145.217C498.683 135.744 528.812 136.071 548.292 146.144C562.56 153.513 570.412 165.924 570.412 181.08ZM383.406 326.923C383.406 326.923 383.406 326.819 383.432 326.767C383.484 326.61 383.602 326.492 383.745 326.44C476.171 295.254 569.419 238.199 569.419 181.067C569.419 166.081 561.959 154.31 547.835 147.006C528.563 137.051 498.696 136.75 463.719 146.157C422.929 157.132 375.723 181.106 327.224 215.48C327.094 215.571 326.937 215.597 326.78 215.545C326.623 215.493 326.506 215.388 326.466 215.231C305.235 152.337 278.072 101.593 247.917 68.4863C222.504 40.5927 195.733 26.5872 174.476 30.0755C152.46 33.6945 139.316 55.5782 139.316 88.6193C139.316 154.44 187.058 231.602 215.514 271.75C215.58 271.842 215.606 271.933 215.606 272.038C215.606 272.09 215.606 272.142 215.58 272.194C215.527 272.338 215.41 272.469 215.266 272.508C122.841 303.72 29.5795 360.774 29.5795 417.907C29.5795 432.893 37.0399 444.664 51.1637 451.954C70.4353 461.91 100.303 462.21 135.279 452.804C176.07 441.829 223.275 417.855 271.774 383.468C271.905 383.377 272.062 383.351 272.219 383.403C272.362 383.455 272.48 383.573 272.532 383.716C293.764 446.611 320.927 497.355 351.082 530.462C376.507 558.355 403.265 572.361 424.523 568.872C446.538 565.253 459.682 543.37 459.682 510.342C459.682 444.494 411.941 367.346 383.484 327.211C383.419 327.119 383.393 327.028 383.393 326.923L383.406 326.923Z" fill="url(#paint4_linear_513_3062)"></path><path d="M586.105 380.685C586.105 394.508 578.985 406.24 565.527 414.589C532.746 434.931 456.731 436.551 341.728 380.071L340.161 379.301L339.86 381.012C328.376 447.042 308.999 501.562 283.809 538.679C262.173 570.571 237.113 587.79 215.072 585.935C188.157 583.662 171.433 554.005 171.433 508.552C171.433 476.53 179.664 421.592 218.913 341.7L219.684 340.132L217.972 339.831C77.0741 315.374 12.8965 259.678 12.8965 218.302C12.8965 204.479 20.0172 192.747 33.4746 184.398C66.2559 164.056 142.271 162.436 257.273 218.903L258.841 219.674L259.142 217.962C270.626 151.932 290.002 97.4121 315.192 60.2947C336.842 28.4032 361.888 11.1836 383.93 13.0389C410.845 15.3122 427.569 44.9565 427.569 90.4223C427.569 122.444 419.337 177.382 380.089 257.274L379.318 258.842L381.029 259.143C521.928 283.626 586.092 339.322 586.092 380.699L586.105 380.685ZM172.426 508.578C172.426 553.469 188.797 582.734 215.15 584.968C236.826 586.797 261.546 569.735 282.986 538.157C300.716 512.027 324.887 463.112 339.298 378.504C339.324 378.347 339.429 378.216 339.56 378.138C339.703 378.072 339.86 378.072 340.004 378.138C455.803 435.493 532.158 434.147 565.004 413.766C578.161 405.6 585.112 394.168 585.112 380.699C585.112 359.168 567.03 334.958 535.516 314.263C498.109 289.701 443.822 270.849 378.495 259.717C378.338 259.691 378.207 259.587 378.142 259.456C378.103 259.378 378.09 259.299 378.09 259.221C378.09 259.143 378.103 259.064 378.142 258.999C418.175 178.179 426.589 122.719 426.589 90.4354C426.589 45.5313 410.218 16.2659 383.865 14.0318C362.189 12.2027 337.469 29.2655 316.029 60.8434C298.299 86.9732 274.128 135.888 259.716 220.497C259.69 220.653 259.586 220.784 259.455 220.862C259.324 220.928 259.155 220.928 259.011 220.862C143.212 163.507 66.8569 164.853 34.0103 185.234C20.8533 193.4 13.9025 204.832 13.9025 218.289C13.9025 239.82 31.9851 264.029 63.4991 284.724C100.906 309.286 155.193 328.138 220.52 339.27C220.677 339.296 220.807 339.4 220.886 339.531C220.925 339.596 220.938 339.675 220.938 339.753C220.938 339.831 220.925 339.91 220.886 339.975C180.853 420.795 172.439 476.255 172.439 508.552L172.426 508.578Z" fill="url(#paint5_linear_513_3062)"></path><path d="M595.759 340.759C595.759 353.602 589.056 365.321 576.383 374.649C558.34 387.923 530 395.266 494.423 395.906C453.855 396.638 406.558 388.759 353.826 372.481L352.166 371.971L352.14 373.709C350.847 460.277 334.057 512.34 320.208 540.77C303.131 575.81 280.476 595.838 258.043 595.708C242.847 595.616 229.089 585.935 219.316 568.441C208.681 549.406 203.063 522.035 203.063 489.294C203.063 449.825 210.955 404.241 226.529 353.798L227.038 352.139L225.3 352.112C138.846 350.819 86.8324 334.083 58.4019 320.273C23.3603 303.25 3.26561 280.634 3.26561 258.228C3.26561 245.385 9.9682 233.666 22.6417 224.338C40.6851 211.077 69.0242 203.721 104.601 203.081C145.183 202.349 192.48 210.227 245.199 226.506L246.858 227.016L246.885 225.278C248.178 138.697 264.954 86.6464 278.804 58.2172C295.88 23.1771 318.536 3.14861 340.969 3.26622C356.164 3.35765 369.922 13.0388 379.708 30.5327C390.344 49.5683 395.975 76.9393 395.975 109.68C395.975 149.149 388.083 194.732 372.509 245.176L372 246.835L373.737 246.861C460.179 248.155 512.205 264.891 540.636 278.701C575.677 295.724 595.772 318.34 595.772 340.746L595.759 340.759ZM204.03 489.307C204.03 521.878 209.609 549.079 220.153 567.971C229.743 585.138 243.2 594.649 258.016 594.728C280.058 594.858 302.387 575.039 319.293 540.352C333.274 511.674 350.141 459.062 351.147 371.305C351.147 371.148 351.226 371.004 351.356 370.913C351.487 370.821 351.644 370.795 351.787 370.847C405.343 387.584 453.319 395.684 494.384 394.939C529.752 394.299 557.895 387.009 575.769 373.865C588.181 364.733 594.74 353.301 594.74 340.772C594.74 318.758 574.841 296.469 540.165 279.615C511.474 265.675 458.898 248.86 371.281 247.854C371.124 247.854 370.981 247.776 370.889 247.645C370.824 247.567 370.798 247.462 370.798 247.358C370.798 247.306 370.798 247.253 370.824 247.201C386.842 195.934 394.969 149.685 394.969 109.732C394.969 77.1352 389.39 49.9341 378.833 31.0422C369.243 13.8749 355.785 4.36363 340.956 4.28526C318.915 4.15465 296.586 23.9872 279.692 58.6745C265.725 87.352 248.857 139.964 247.838 227.721C247.838 227.878 247.76 228.022 247.642 228.113C247.512 228.205 247.355 228.231 247.198 228.192C193.643 211.456 145.666 203.355 104.615 204.1C69.2463 204.74 41.1032 212.03 23.2166 225.174C10.8044 234.293 4.24552 245.738 4.24552 258.267C4.24552 280.282 24.1443 302.57 58.82 319.424C87.4988 333.351 140.087 350.179 227.704 351.185C227.861 351.185 228.005 351.263 228.096 351.394C228.162 351.472 228.188 351.577 228.188 351.681C228.188 351.733 228.188 351.786 228.162 351.825C212.143 403.105 204.017 449.368 204.017 489.333L204.03 489.307Z" fill="url(#paint6_linear_513_3062)"></path><path d="M549.129 147.817C549.129 169.753 535.671 196.705 511.239 223.724C483.266 254.648 441.169 285.416 389.521 312.709L387.979 313.519L389.194 314.773C424.04 350.675 450.824 385.911 468.802 419.514C484.703 449.224 493.104 476.856 493.104 499.419C493.104 525.392 481.92 543.03 462.4 547.838C450.001 550.882 423.282 551.117 383.55 518.377C349.762 490.535 316.132 445.971 286.29 389.504L285.48 387.963L284.226 389.178C240.862 431.247 197.288 462.328 158.209 479.051C124.122 493.632 94.2278 496.989 74.0286 488.484C58.4414 481.925 49.8574 468.678 49.8574 451.184C49.8574 429.248 63.3149 402.295 87.7473 375.277C115.721 344.352 157.817 313.584 209.465 286.292L211.007 285.481L209.792 284.227C174.946 248.325 148.162 213.089 130.184 179.486C114.283 149.776 105.882 122.144 105.882 99.5809C105.882 73.6078 117.066 55.9702 136.573 51.1623C148.972 48.1182 175.691 47.8831 215.423 80.6237C249.211 108.465 282.841 153.029 312.683 209.483L313.493 211.025L314.747 209.81C358.111 167.74 401.685 136.659 440.764 119.936C474.851 105.356 504.745 101.998 524.944 110.503C540.532 117.062 549.116 130.31 549.116 147.803L549.129 147.817ZM386.659 313.323C386.685 313.166 386.777 313.022 386.921 312.957C439.47 285.429 482.194 254.348 510.507 223.057C534.783 196.222 548.149 169.504 548.149 147.817C548.149 130.741 539.774 117.819 524.592 111.431C504.641 103.03 475.021 106.388 441.195 120.864C401.685 137.77 357.615 169.361 313.754 212.213C313.636 212.318 313.48 212.37 313.323 212.344C313.166 212.318 313.035 212.227 312.957 212.083C282.906 154.715 248.962 109.523 214.822 81.3946C186.052 57.6818 157.621 47.0208 136.834 52.1422C117.811 56.8195 106.901 74.1174 106.901 99.594C106.901 122 115.263 149.463 131.085 179.029C149.312 213.089 176.606 248.834 212.209 285.272C212.301 285.364 212.353 285.482 212.353 285.612C212.327 285.847 212.222 285.991 212.091 286.056C159.555 313.584 116.818 344.666 88.5182 375.956C64.2425 402.791 50.8765 429.509 50.8765 451.197C50.8765 468.26 59.2384 481.194 74.4336 487.583C94.3846 495.983 124.004 492.626 157.831 478.15C197.341 461.244 241.41 429.653 285.271 386.8C285.389 386.695 285.546 386.643 285.689 386.669C285.846 386.695 285.977 386.787 286.055 386.931C316.119 444.299 350.05 489.503 384.19 517.632C412.96 541.345 441.391 552.006 462.178 546.884C481.201 542.207 492.111 524.909 492.111 499.432C492.111 477.026 483.749 449.551 467.927 419.998C449.7 385.938 422.406 350.192 386.803 313.754C386.712 313.663 386.659 313.532 386.659 313.401L386.659 313.323Z" fill="url(#paint7_linear_513_3062)"></path><path d="M523.037 120.093C523.037 135.705 517.628 162.044 491.876 198.769C468.633 231.928 434.506 265.466 390.475 298.468L389.077 299.513L390.475 300.558C434.493 333.547 468.594 367.098 491.837 400.256C517.602 437.008 523.011 463.347 523.011 478.959C523.011 499.667 513.199 514.81 496.096 520.467C475.257 527.365 446.082 520.401 413.928 500.83C377.044 478.385 337.834 440.222 300.545 390.471L299.5 389.073L298.455 390.471C261.153 440.209 221.944 478.372 185.047 500.804C152.892 520.362 123.717 527.326 102.878 520.414C85.7751 514.744 75.9629 499.628 75.9629 478.933C75.9629 463.308 81.372 436.969 107.124 400.23C130.368 367.072 164.482 333.534 208.525 300.532L209.923 299.487L208.525 298.442C164.508 265.453 130.407 231.902 107.163 198.743C81.3981 161.992 76.0021 135.653 76.0021 120.027C76.0021 99.3063 85.8142 84.1771 102.917 78.52C123.756 71.6217 152.932 78.5853 185.086 98.1566C221.97 120.602 261.179 158.765 298.468 208.516L299.513 209.914L300.558 208.516C337.86 158.778 377.07 120.628 413.954 98.1958C446.095 78.6376 475.283 71.674 496.123 78.5723C513.225 84.2424 523.037 99.3585 523.051 120.066L523.051 120.079L523.037 120.093ZM387.744 299.513C387.744 299.356 387.823 299.212 387.94 299.121C432.833 265.727 467.522 231.771 491.053 198.208C511.318 169.308 522.031 142.29 522.031 120.093C522.031 99.5284 512.703 85.1309 495.783 79.526C483.88 75.5804 457.475 72.876 414.45 99.058C377.161 121.739 337.56 160.463 299.892 211.063C299.801 211.181 299.644 211.259 299.487 211.259C299.33 211.259 299.187 211.181 299.095 211.063C261.427 160.45 221.826 121.7 184.55 99.0189C141.512 72.8368 115.12 75.5412 103.217 79.4738C86.2977 85.0786 76.982 99.4892 76.982 120.04C76.982 142.238 87.6957 169.256 107.973 198.181C131.504 231.745 166.18 265.701 211.047 299.095C211.178 299.186 211.243 299.33 211.243 299.5C211.243 299.67 211.164 299.8 211.047 299.905C166.167 333.299 131.465 367.255 107.934 400.818C87.6565 429.731 76.9428 456.749 76.9428 478.946C76.9428 499.484 86.2585 513.882 103.178 519.487C115.081 523.432 141.486 526.137 184.524 499.968C221.813 477.3 261.427 438.563 299.095 387.962C299.187 387.832 299.343 387.766 299.5 387.766C299.657 387.766 299.801 387.845 299.905 387.962C337.56 438.576 377.174 477.313 414.45 500.007C457.488 526.189 483.88 523.485 495.783 519.552C512.703 513.947 522.018 499.537 522.018 478.986C522.018 456.788 511.305 429.77 491.04 400.844C467.509 367.281 432.833 333.325 387.967 299.931C387.836 299.84 387.771 299.683 387.771 299.526L387.744 299.513Z" fill="url(#paint8_linear_513_3062)"></path><path d="M599 299.539C599 311.859 592.637 323.866 580.591 334.279C563.579 348.99 536.442 359.638 502.133 365.073C463.132 371.252 416.854 370.586 364.553 363.1L362.828 362.852L363.077 364.576C367.14 392.979 369.204 419.998 369.204 444.873C369.204 550.764 333.065 599 299.487 599C281.156 599 264.106 585.269 251.458 560.341C237.269 532.369 229.77 492.469 229.77 444.952C229.77 420.05 231.834 393.006 235.91 364.563L236.159 362.839L234.434 363.087C182.146 370.573 135.868 371.226 96.8805 365.034C62.5706 359.586 35.4466 348.938 18.4223 334.227C6.37594 323.814 -1.25542e-05 311.794 -1.30921e-05 299.487C-1.36301e-05 287.18 6.37594 275.147 18.4223 264.734C35.4466 250.036 62.5706 239.388 96.8805 233.94C135.868 227.761 182.159 228.427 234.447 235.913L236.172 236.161L235.923 234.437C231.86 206.021 229.796 179.015 229.796 154.14C229.796 48.2487 265.935 0.0130499 299.526 0.0130484C317.099 0.0130477 334.293 13.483 346.706 36.9737C361.443 64.8542 369.243 105.355 369.243 154.074C369.243 178.976 367.179 206.021 363.103 234.45L362.855 236.174L364.579 235.926C416.854 228.44 463.132 227.787 502.119 233.979C536.429 239.427 563.553 250.075 580.578 264.787C592.637 275.199 599.013 287.219 599.013 299.539L599 299.539ZM361.744 362.264C361.744 362.133 361.796 362.003 361.888 361.911C362.005 361.793 362.162 361.741 362.319 361.767C415.508 369.567 462.492 370.351 501.976 364.093C536.103 358.684 563.057 348.115 579.937 333.521C591.762 323.304 598.007 311.559 598.007 299.539C598.007 287.506 591.749 275.748 579.911 265.518C563.031 250.938 536.077 240.368 501.95 234.946C462.466 228.675 415.482 229.446 362.319 237.246C362.162 237.272 362.005 237.22 361.888 237.102C361.796 237.011 361.744 236.88 361.744 236.749C366.042 207.392 368.224 179.603 368.224 154.074C368.224 106.688 360.764 66.9446 346.64 39.1033C334.176 14.5151 317.439 0.979845 299.5 0.979845C281.561 0.979846 264.811 14.5281 252.347 39.1163C238.223 66.9707 230.762 106.727 230.762 154.114C230.762 179.656 232.931 207.419 237.217 236.658L237.217 236.684C237.217 236.867 237.165 236.997 237.073 237.076C236.956 237.193 236.799 237.246 236.642 237.22C183.479 229.42 136.482 228.636 96.9981 234.894C62.8711 240.303 35.917 250.872 19.0364 265.453C7.21213 275.67 0.953766 287.428 0.953767 299.461C0.953767 311.494 7.19907 323.239 19.0364 333.456C35.917 348.036 62.8711 358.619 96.9981 364.028C136.482 370.299 183.465 369.528 236.642 361.728C236.799 361.702 236.956 361.754 237.073 361.872C237.165 361.963 237.217 362.094 237.217 362.225C232.918 391.555 230.736 419.357 230.736 444.912C230.736 492.273 238.197 532.016 252.307 559.858C264.798 584.472 281.548 598.007 299.487 598.007C317.426 598.007 334.176 584.459 346.64 559.871C360.764 532.016 368.224 492.247 368.224 444.86C368.224 419.331 366.056 391.555 361.77 362.316L361.77 362.238L361.744 362.264Z" fill="url(#paint9_linear_513_3062)"></path><path d="M595.76 258.293C595.76 280.7 575.665 303.315 540.623 320.326C512.206 334.135 460.166 350.858 373.712 352.126L371.974 352.152L372.484 353.811C388.045 404.241 395.923 449.812 395.923 489.255C395.923 522.022 390.305 549.406 379.657 568.454C369.884 585.961 356.126 595.655 340.918 595.747C318.484 595.878 295.829 575.836 278.752 540.783C264.903 512.341 248.14 460.277 246.859 373.683L246.833 371.945L245.174 372.455C192.455 388.72 145.144 396.585 104.576 395.854C68.9988 395.201 40.6598 387.845 22.6163 374.571C9.94282 365.256 3.24022 353.537 3.24022 340.694C3.24022 318.287 23.3349 295.672 58.3766 278.648C86.807 264.839 138.834 248.116 225.288 246.835L227.026 246.809L226.516 245.137C210.955 194.706 203.077 149.136 203.077 109.693C203.077 76.9263 208.695 49.5422 219.343 30.4935C229.116 12.9866 242.874 3.29241 258.082 3.21404C280.516 3.08336 303.171 23.1249 320.248 58.1781C334.097 86.6204 350.86 138.684 352.141 225.265L352.167 227.003L353.839 226.493C406.559 210.228 453.856 202.362 494.424 203.094C530.001 203.747 558.34 211.103 576.384 224.364C589.07 233.692 595.773 245.411 595.773 258.254L595.76 258.293ZM370.798 351.668C370.798 351.564 370.838 351.459 370.89 351.368C370.981 351.25 371.125 351.172 371.282 351.159C458.912 350.166 511.501 333.351 540.179 319.424C574.855 302.583 594.754 280.295 594.754 258.28C594.754 245.751 588.182 234.319 575.77 225.187C557.883 212.044 529.74 204.753 494.385 204.1C453.32 203.355 405.357 211.443 351.801 228.166C351.657 228.218 351.488 228.179 351.357 228.087C351.226 227.996 351.148 227.852 351.148 227.695C350.155 139.925 333.287 87.2998 319.32 58.6092C302.427 23.9089 280.098 4.07628 258.056 4.20696C243.227 4.28533 229.77 13.7966 220.179 30.99C209.623 49.8949 204.044 77.1091 204.044 109.706C204.044 149.672 212.157 195.908 228.162 247.162C228.176 247.214 228.189 247.253 228.189 247.306C228.189 247.41 228.149 247.515 228.097 247.606C228.006 247.737 227.862 247.802 227.705 247.815C140.075 248.808 87.4864 265.623 58.8077 279.55C24.1189 296.391 4.2332 318.679 4.2332 340.694C4.2332 353.21 10.7921 364.655 23.2043 373.774C41.0909 386.917 69.234 394.208 104.602 394.861C145.667 395.606 193.643 387.518 247.186 370.795C247.33 370.743 247.499 370.782 247.63 370.874C247.748 370.965 247.826 371.109 247.826 371.266C248.819 459.036 265.687 511.661 279.654 540.352C296.547 575.052 318.876 594.885 340.918 594.754C355.747 594.676 369.204 585.164 378.794 567.971C389.351 549.066 394.93 521.839 394.93 489.255C394.93 449.302 386.817 403.053 370.811 351.799C370.798 351.747 370.785 351.707 370.785 351.655L370.798 351.668Z" fill="url(#paint10_linear_513_3062)"></path><path d="M549.102 451.223C549.102 468.73 540.518 481.978 524.931 488.536C504.732 497.041 474.838 493.684 440.75 479.09C401.685 462.367 358.111 431.273 314.747 389.191L313.493 387.976L312.683 389.517C282.841 445.971 249.21 490.522 215.41 518.35C175.678 551.065 148.946 550.843 136.547 547.786C117.04 542.978 105.856 525.34 105.856 499.393C105.856 476.817 114.257 449.198 130.158 419.488C148.136 385.898 174.933 350.649 209.805 314.747L211.02 313.493L209.478 312.683C157.83 285.377 115.76 254.609 87.7864 223.684C63.3539 196.666 49.8965 169.713 49.8965 147.777C49.8965 130.283 58.4805 117.022 74.0676 110.464C94.2668 101.959 124.161 105.316 158.249 119.91C197.327 136.633 240.888 167.727 284.252 209.809L285.506 211.024L286.316 209.483C316.158 153.029 349.788 108.478 383.589 80.6497C423.321 47.9352 450.053 48.1573 462.452 51.2145C481.959 56.0093 493.143 73.6469 493.143 99.6069C493.143 122.183 484.742 149.815 468.841 179.512C450.863 213.102 424.066 248.351 389.194 284.253L387.979 285.507L389.521 286.318C441.168 313.61 483.239 344.391 511.212 375.316C535.645 402.334 549.102 429.287 549.102 451.223ZM106.862 499.393C106.862 524.844 117.772 542.128 136.795 546.819C157.582 551.94 186.013 541.279 214.783 517.579C248.923 489.464 282.867 444.272 312.931 386.917C313.009 386.774 313.14 386.682 313.297 386.656C313.453 386.63 313.61 386.682 313.728 386.787C357.575 429.653 401.645 461.244 441.155 478.163C474.995 492.652 504.614 495.996 524.552 487.609C539.748 481.22 548.109 468.286 548.109 451.21C548.109 429.522 534.743 402.804 510.481 375.969C482.181 344.678 439.457 313.584 386.921 286.056C386.777 285.978 386.685 285.847 386.659 285.69L386.659 285.651C386.659 285.468 386.712 285.351 386.79 285.259C422.419 248.821 449.726 213.076 467.953 179.015C483.775 149.463 492.137 122 492.137 99.5938C492.137 74.1303 481.227 56.8454 462.204 52.1682C441.417 47.0468 412.986 57.7077 384.216 81.4075C350.076 109.523 316.132 154.702 286.068 212.07C285.99 212.213 285.859 212.305 285.715 212.331C285.559 212.357 285.402 212.305 285.284 212.2C241.436 169.334 197.367 137.73 157.857 120.824C124.017 106.335 94.3975 102.991 74.4596 111.378C59.2644 117.767 50.9025 130.701 50.9025 147.777C50.9025 169.465 64.2685 196.183 88.5311 223.018C116.831 254.308 159.555 285.403 212.091 312.931C212.235 313.009 212.327 313.14 212.353 313.297C212.353 313.297 212.353 313.323 212.353 313.336C212.353 313.519 212.3 313.636 212.222 313.728C176.592 350.179 149.286 385.924 131.059 419.972C115.237 449.524 106.875 477 106.875 499.406L106.862 499.393Z" fill="url(#paint11_linear_513_3062)"></path><path d="M570.386 417.96C570.386 433.128 562.534 445.54 548.267 452.908C528.773 462.981 498.657 463.295 463.432 453.823C423.112 442.966 376.482 419.41 328.597 385.702L327.173 384.696L326.611 386.343C280.294 521.995 215.162 576.541 174.267 569.826C151.729 566.129 138.285 543.879 138.285 510.342C138.285 461.858 164.925 397.317 213.307 328.609L214.313 327.185L212.667 326.623C153.937 306.568 105.608 281.118 72.8661 253.041C44.331 228.558 28.6133 203.003 28.6133 181.054C28.6133 165.885 36.4656 153.487 50.7331 146.105C70.2138 136.032 100.343 135.718 135.567 145.19C175.887 156.047 222.518 179.59 270.403 213.311L271.827 214.317L272.389 212.671C318.719 77.0177 383.838 22.4717 424.732 29.1871C447.27 32.8844 460.728 55.121 460.728 88.6716C460.728 137.156 434.087 201.696 385.706 270.418L384.7 271.842L386.346 272.403C445.075 292.458 493.405 317.909 526.147 345.985C554.682 370.456 570.4 396.024 570.4 417.973L570.386 417.96ZM139.265 510.342C139.265 543.357 152.409 565.227 174.424 568.846C195.682 572.335 222.453 558.342 247.878 530.462C278.046 497.368 305.223 446.637 326.454 383.743C326.506 383.599 326.624 383.481 326.781 383.429C326.924 383.377 327.094 383.403 327.225 383.494C375.711 417.881 422.916 441.868 463.707 452.856C498.683 462.276 528.564 461.975 547.822 452.02C561.946 444.73 569.407 432.945 569.407 417.96C569.407 360.827 476.158 303.759 383.759 272.56C383.615 272.508 383.498 272.39 383.446 272.247C383.433 272.194 383.419 272.142 383.419 272.09C383.419 271.985 383.459 271.881 383.511 271.802C411.981 231.667 459.748 154.506 459.748 88.6847C459.748 55.6435 446.604 33.7729 424.589 30.167C403.331 26.6786 376.56 40.6711 351.148 68.5517C320.98 101.645 293.816 152.376 272.572 215.258C272.52 215.401 272.402 215.519 272.258 215.571C272.115 215.623 271.945 215.597 271.827 215.506C223.328 181.106 176.136 157.132 135.332 146.144C100.356 136.724 70.4751 137.025 51.2165 146.98C37.0928 154.271 29.6324 166.055 29.6324 181.041C29.6324 238.173 122.881 295.241 215.28 326.44C215.424 326.492 215.541 326.61 215.593 326.753C215.606 326.793 215.619 326.845 215.619 326.897C215.619 327.002 215.593 327.106 215.528 327.185C187.058 367.32 139.291 444.494 139.291 510.315L139.265 510.342Z" fill="url(#paint12_linear_513_3062)"></path><path d="M586.117 218.367C586.117 259.744 521.939 315.413 381.028 339.871L379.317 340.171L380.088 341.739C419.297 421.618 427.528 476.556 427.528 508.565C427.528 554.044 410.804 583.714 383.876 585.987C361.835 587.843 336.789 570.623 315.152 538.719C289.975 501.601 270.599 447.068 259.127 381.025L258.827 379.314L257.259 380.084C142.257 436.538 66.2416 434.892 33.4473 414.537C19.9898 406.188 12.8691 394.469 12.8691 380.646C12.8691 339.27 77.0468 283.587 217.958 259.13L219.67 258.829L218.899 257.261C179.689 177.382 171.458 122.444 171.458 90.4354C171.458 44.9565 188.182 15.2861 215.11 13.0128C237.151 11.1576 262.198 28.3771 283.834 60.2816C309.024 97.4121 328.387 151.932 339.859 217.975L340.159 219.687L341.727 218.916C456.717 162.475 532.731 164.108 565.526 184.451C578.996 192.799 586.104 204.518 586.117 218.341L586.117 218.367ZM378.075 339.792C378.075 339.714 378.088 339.636 378.128 339.57C378.193 339.426 378.337 339.335 378.494 339.309C443.834 328.191 498.134 309.351 535.541 284.789C567.055 264.107 585.137 239.898 585.137 218.367C585.137 204.897 578.173 193.465 565.016 185.3C532.157 164.918 455.802 163.547 340.016 220.875C339.872 220.954 339.715 220.941 339.571 220.875C339.428 220.81 339.336 220.666 339.31 220.51C324.912 135.875 300.754 86.9601 283.024 60.8303C261.597 29.2394 236.877 12.1636 215.201 13.9927C188.835 16.2137 172.464 45.5052 172.464 90.4224C172.464 122.719 180.865 178.166 220.872 258.973C220.911 259.038 220.924 259.117 220.924 259.195C220.924 259.273 220.911 259.352 220.872 259.43C220.806 259.561 220.663 259.665 220.519 259.691C155.178 270.81 100.878 289.662 63.4717 314.211C31.9578 334.893 13.8752 359.115 13.8752 380.646C13.8752 394.103 20.826 405.535 33.9829 413.687C66.8426 434.082 143.197 435.441 258.997 378.112C259.14 378.046 259.297 378.046 259.441 378.112C259.585 378.177 259.676 378.321 259.702 378.464C274.1 463.099 298.258 512.014 315.988 538.144C337.416 569.735 362.136 586.811 383.811 584.981C410.177 582.76 426.548 553.469 426.548 508.552C426.548 476.268 418.147 420.808 378.141 340.001C378.102 339.936 378.088 339.858 378.088 339.779L378.075 339.792Z" fill="url(#paint13_linear_513_3062)"></path><path d="M570.4 181.08C570.4 203.016 554.682 228.584 526.16 253.041C493.431 281.118 445.075 306.568 386.346 326.623L384.7 327.185L385.706 328.609C434.074 397.317 460.715 461.858 460.715 510.342C460.715 543.918 447.257 566.168 424.719 569.865C383.824 576.581 318.706 522.022 272.389 386.343L271.827 384.696L270.403 385.702C222.518 419.397 175.9 442.953 135.567 453.797C100.343 463.269 70.2138 462.942 50.7331 452.869C36.4656 445.5 28.6133 433.089 28.6133 417.933C28.6133 395.984 44.331 370.429 72.853 345.959C105.582 317.882 153.937 292.445 212.667 272.377L214.313 271.816L213.307 270.391C164.938 201.67 138.298 137.129 138.298 88.6586C138.298 55.0948 151.755 32.8322 174.293 29.1349C215.188 22.4195 280.307 76.9916 326.624 212.658L327.186 214.304L328.61 213.298C376.495 179.603 423.112 156.047 463.432 145.203C498.657 135.731 528.773 136.058 548.267 146.118C562.534 153.487 570.4 165.898 570.4 181.054L570.4 181.08ZM383.406 326.936C383.406 326.936 383.406 326.832 383.433 326.78C383.485 326.636 383.589 326.518 383.746 326.466C476.158 295.267 569.407 238.226 569.42 181.08C569.42 166.081 561.946 154.31 547.822 147.006C528.551 137.051 498.683 136.75 463.707 146.17C422.916 157.145 375.724 181.119 327.225 215.506C327.094 215.597 326.937 215.623 326.781 215.571C326.624 215.519 326.519 215.414 326.467 215.258C305.236 152.363 278.072 101.619 247.904 68.5125C222.479 40.6189 195.708 26.6133 174.463 30.1147C152.448 33.7337 139.304 55.6174 139.304 88.6586C139.304 154.48 187.058 231.654 215.528 271.789C215.593 271.881 215.619 271.972 215.619 272.077C215.619 272.129 215.619 272.181 215.593 272.234C215.541 272.377 215.424 272.495 215.28 272.547C122.842 303.746 29.5932 360.801 29.5932 417.933C29.5932 432.919 37.0536 444.69 51.1774 451.981C70.4489 461.936 100.317 462.237 135.293 452.83C176.096 441.855 223.289 417.881 271.788 383.494C271.919 383.403 272.075 383.377 272.232 383.429C272.376 383.481 272.494 383.599 272.546 383.743C293.777 446.637 320.94 497.381 351.109 530.488C376.534 558.381 403.292 572.387 424.55 568.885C446.565 565.266 459.709 543.383 459.709 510.342C459.709 444.521 411.954 367.346 383.485 327.211C383.433 327.132 383.393 327.028 383.393 326.923L383.406 326.936Z" fill="url(#paint14_linear_513_3062)"></path><path d="M586.118 380.672C586.118 394.495 578.998 406.214 565.54 414.576C532.746 434.931 456.744 436.551 341.729 380.084L340.161 379.314L339.86 381.025C328.389 447.055 308.999 501.575 283.822 538.692C262.186 570.584 237.126 587.803 215.085 585.948C188.17 583.675 171.446 554.018 171.446 508.565C171.446 476.543 179.677 421.605 218.913 341.726L219.684 340.158L217.972 339.858C77.0611 315.387 12.8965 259.704 12.8965 218.328C12.8965 204.505 20.0172 192.786 33.4746 184.424C66.269 164.069 142.284 162.449 257.286 218.903L258.854 219.673L259.155 217.962C270.626 151.932 290.002 97.412 315.193 60.2946C336.829 28.4031 361.889 11.1836 383.917 13.0388C410.832 15.3121 427.556 44.9564 427.569 90.4223C427.569 122.457 419.337 177.382 380.102 257.261L379.331 258.829L381.043 259.129C521.928 283.6 586.105 339.283 586.118 380.659L586.118 380.672ZM172.452 508.578C172.452 553.469 188.823 582.734 215.176 584.968C236.852 586.797 261.572 569.735 283.012 538.157C300.742 512.027 324.9 463.112 339.298 378.504C339.324 378.347 339.429 378.216 339.56 378.138C339.703 378.072 339.873 378.072 340.004 378.138C455.79 435.48 532.158 434.121 565.005 413.74C578.161 405.574 585.112 394.142 585.112 380.685C585.112 359.154 567.03 334.945 535.516 314.25C498.109 289.701 443.809 270.836 378.482 259.717C378.325 259.691 378.194 259.6 378.116 259.456C378.077 259.391 378.064 259.312 378.064 259.234C378.064 259.156 378.077 259.077 378.116 259.012C418.135 178.205 426.537 122.758 426.537 90.4614C426.537 45.5443 410.152 16.2789 383.799 14.0578C362.124 12.2287 337.404 29.2916 315.976 60.8825C298.247 87.0123 274.089 135.914 259.69 220.536C259.664 220.692 259.56 220.823 259.429 220.902C259.285 220.967 259.115 220.98 258.985 220.902C143.199 163.56 66.8308 164.918 33.9711 185.3C20.8142 193.465 13.8633 204.897 13.8633 218.354C13.8633 239.885 31.9459 264.094 63.4599 284.789C100.866 309.338 155.166 328.204 220.494 339.322C220.651 339.348 220.781 339.453 220.86 339.583C220.899 339.648 220.912 339.727 220.912 339.805C220.912 339.884 220.899 339.962 220.86 340.027C180.84 420.834 172.439 476.294 172.439 508.591L172.452 508.578Z" fill="url(#paint15_linear_513_3062)"></path><path d="M595.76 340.746C595.76 353.589 589.057 365.308 576.384 374.623C558.34 387.897 530.001 395.253 494.424 395.893C453.856 396.624 406.545 388.746 353.826 372.481L352.154 371.971L352.128 373.709C350.834 460.29 334.058 512.353 320.209 540.783C303.132 575.836 280.477 595.864 258.043 595.734C242.835 595.642 229.09 585.961 219.304 568.454C208.669 549.419 203.051 522.035 203.051 489.294C203.051 449.838 210.942 404.254 226.503 353.824L227.013 352.165L225.275 352.138C138.834 350.845 86.807 334.122 58.3765 320.312C23.3349 303.289 3.24022 280.673 3.24022 258.267C3.24022 245.424 9.94281 233.705 22.6163 224.377C40.6598 211.103 68.9988 203.747 104.576 203.107C145.144 202.375 192.454 210.254 245.174 226.519L246.833 227.029L246.859 225.291C248.153 138.71 264.929 86.6464 278.765 58.2172C295.829 23.164 318.497 3.13548 340.931 3.26616C356.139 3.35759 369.897 13.0387 379.67 30.5457C390.305 49.5813 395.936 76.9653 395.936 109.719C395.936 149.188 388.045 194.759 372.484 245.189L371.974 246.861L373.712 246.888C460.153 248.168 512.18 264.904 540.61 278.714C575.652 295.737 595.747 318.353 595.76 340.759L595.76 340.746ZM204.057 489.294C204.057 521.878 209.636 549.079 220.193 567.971C229.783 585.151 243.24 594.649 258.069 594.741C280.111 594.871 302.44 575.039 319.333 540.352C333.3 511.661 350.168 459.049 351.174 371.292C351.174 371.135 351.252 370.991 351.383 370.887C351.501 370.795 351.67 370.769 351.827 370.821C405.383 387.544 453.359 395.645 494.424 394.913C529.792 394.273 557.935 386.983 575.809 373.839C588.221 364.72 594.78 353.275 594.78 340.759C594.78 318.745 574.881 296.456 540.192 279.602C511.514 265.675 458.925 248.847 371.308 247.854C371.151 247.854 371.007 247.776 370.916 247.645C370.864 247.567 370.824 247.462 370.824 247.358C370.824 247.306 370.824 247.253 370.851 247.201C386.856 195.947 394.969 149.698 394.969 109.745C394.969 77.1482 389.39 49.934 378.834 31.0422C369.244 13.8618 355.786 4.36363 340.957 4.2722C318.915 4.15459 296.586 23.9741 279.693 58.6614C265.726 87.3389 248.858 139.951 247.852 227.721C247.852 227.878 247.774 228.022 247.643 228.113C247.512 228.205 247.356 228.231 247.212 228.192C193.643 211.469 145.68 203.355 104.628 204.113C69.2601 204.753 41.117 212.043 23.2435 225.187C10.8313 234.306 4.27239 245.751 4.27239 258.28C4.27239 280.295 24.1711 302.583 58.8469 319.424C87.5256 333.351 140.114 350.179 227.731 351.172C227.888 351.172 228.032 351.25 228.123 351.381C228.189 351.459 228.215 351.564 228.215 351.668C228.215 351.72 228.215 351.773 228.189 351.812C212.183 403.065 204.057 449.328 204.057 489.294Z" fill="url(#paint16_linear_513_3062)"></path><path d="M549.116 147.803C549.116 169.726 535.659 196.692 511.226 223.697C483.253 254.622 441.169 285.39 389.508 312.695L387.967 313.505L389.182 314.76C424.04 350.662 450.825 385.898 468.803 419.501C484.703 449.211 493.104 476.83 493.104 499.406C493.104 525.366 481.92 543.004 462.414 547.812C450.014 550.869 423.296 551.091 383.563 518.363C349.763 490.522 316.133 445.971 286.291 389.517L285.481 387.975L284.227 389.191C240.862 431.273 197.289 462.354 158.223 479.064C124.135 493.658 94.2415 497.002 74.0422 488.497C58.4551 481.938 49.8711 468.691 49.8711 451.197C49.8711 429.261 63.3285 402.308 87.761 375.289C115.734 344.365 157.818 313.584 209.479 286.291L211.021 285.481L209.806 284.227C174.947 248.325 148.163 213.076 130.185 179.486C114.284 149.776 105.883 122.144 105.883 99.5807C105.883 73.6207 117.067 55.9831 136.574 51.1752C148.973 48.1311 175.692 47.8959 215.424 80.6235C249.224 108.465 282.855 153.016 312.696 209.47L313.506 211.011L314.761 209.796C358.112 167.714 401.685 136.646 440.764 119.923C474.852 105.329 504.746 101.985 524.945 110.49C540.532 117.048 549.116 130.296 549.116 147.79L549.116 147.803ZM386.66 313.31C386.686 313.14 386.778 313.009 386.921 312.944C439.471 285.416 482.195 254.321 510.495 223.031C534.757 196.209 548.123 169.491 548.123 147.803C548.123 130.727 539.748 117.806 524.553 111.404C504.602 103.004 474.983 106.361 441.156 120.837C401.646 137.743 357.589 169.334 313.728 212.2C313.611 212.318 313.454 212.357 313.297 212.331C313.14 212.305 313.01 212.213 312.931 212.07C282.868 154.702 248.937 109.51 214.784 81.3943C186.013 57.6946 157.583 47.0336 136.796 52.142C117.772 56.8192 106.863 74.1172 106.863 99.5807C106.863 121.987 115.225 149.463 131.047 179.015C149.273 213.076 176.58 248.821 212.184 285.259C212.275 285.351 212.327 285.468 212.327 285.599C212.301 285.847 212.197 285.978 212.066 286.043C159.53 313.571 116.792 344.665 88.4927 375.943C64.2301 402.778 50.8641 429.496 50.8641 451.184C50.8641 468.246 59.226 481.168 74.4211 487.569C94.3721 495.97 123.992 492.612 157.818 478.136C197.328 461.23 241.398 429.639 285.246 386.774C285.35 386.669 285.52 386.617 285.664 386.643C285.821 386.669 285.951 386.76 286.03 386.904C316.093 444.272 350.037 489.464 384.178 517.579C412.961 541.279 441.378 551.94 462.165 546.832C481.189 542.154 492.098 524.857 492.098 499.393C492.098 476.974 483.737 449.511 467.914 419.958C449.688 385.898 422.394 350.153 386.778 313.715C386.686 313.623 386.634 313.492 386.634 313.362L386.634 313.296L386.66 313.31Z" fill="url(#paint17_linear_513_3062)"></path><path d="M523.025 120.054C523.025 135.679 517.616 162.005 491.864 198.757C468.62 231.915 434.506 265.453 390.489 298.455L389.091 299.5L390.489 300.545C434.506 333.534 468.607 367.072 491.864 400.23C517.629 436.969 523.038 463.321 523.038 478.947C523.038 499.668 513.226 514.784 496.136 520.454C475.297 527.352 446.122 520.388 413.967 500.83C377.084 478.385 337.861 440.235 300.559 390.471L299.514 389.073L298.469 390.471C261.167 440.222 221.957 478.385 185.073 500.817C152.919 520.375 123.744 527.339 102.905 520.441C85.8018 514.771 75.9896 499.654 75.9896 478.947C75.9896 463.321 81.3987 436.982 107.151 400.244C130.394 367.085 164.508 333.547 208.526 300.545L209.924 299.5L208.526 298.455C164.508 265.466 130.407 231.928 107.151 198.77C81.3857 162.018 75.9765 135.679 75.9765 120.054C75.9765 99.3326 85.7887 84.2034 102.891 78.5463C123.731 71.648 152.906 78.6116 185.06 98.1829C221.944 120.628 261.154 158.791 298.456 208.542L299.501 209.94L300.546 208.542C337.835 158.791 377.057 120.641 413.941 98.1959C446.095 78.6377 475.271 71.6611 496.11 78.5724C513.213 84.2426 523.025 99.3717 523.025 120.067L523.025 120.054ZM387.745 299.487C387.745 299.33 387.823 299.186 387.954 299.082C432.834 265.688 467.523 231.732 491.054 198.169C511.331 169.256 522.045 142.238 522.045 120.04C522.045 99.4893 512.729 85.0918 495.81 79.4869C483.907 75.5413 457.502 72.8369 414.477 99.019C377.201 121.7 337.587 160.437 299.919 211.038C299.827 211.168 299.671 211.234 299.514 211.234C299.357 211.234 299.213 211.155 299.109 211.038C261.441 160.424 221.826 121.687 184.551 99.0059C141.513 72.8238 115.121 75.5283 103.218 79.4739C86.2983 85.0788 76.9826 99.4893 76.9826 120.04C76.9826 142.238 87.6963 169.256 107.974 198.182C131.505 231.745 166.194 265.701 211.061 299.082C211.191 299.173 211.257 299.33 211.257 299.487C211.257 299.644 211.178 299.787 211.061 299.892C166.181 333.286 131.505 367.229 107.961 400.805C87.6832 429.718 76.9695 456.736 76.9695 478.947C76.9695 499.498 86.2852 513.895 103.205 519.5C115.108 523.446 141.5 526.15 184.538 499.968C221.813 477.287 261.428 438.55 299.096 387.949C299.187 387.819 299.344 387.753 299.501 387.753C299.658 387.753 299.801 387.832 299.906 387.963C337.574 438.576 377.188 477.313 414.464 499.994C457.502 526.176 483.894 523.472 495.797 519.526C512.703 513.921 522.019 499.524 522.019 478.973C522.019 456.749 511.292 429.731 491.028 400.818C467.497 367.255 432.808 333.299 387.941 299.905C387.81 299.814 387.745 299.657 387.745 299.5L387.745 299.487Z" fill="url(#paint18_linear_513_3062)"></path><path d="M598.999 299.5C598.999 311.82 592.623 323.84 580.577 334.252C563.553 348.964 536.429 359.611 502.119 365.046C463.118 371.226 416.84 370.573 364.565 363.087L362.841 362.839L363.089 364.563C367.152 392.979 369.217 420.011 369.217 444.899C369.217 484.264 364.239 517.749 354.401 544.454C345.647 568.245 333.43 585.203 319.071 593.486C306.45 600.764 292.562 600.764 279.94 593.486C265.581 585.19 253.352 568.245 244.598 544.454C234.76 517.736 229.769 484.238 229.769 444.899C229.769 420.011 231.833 392.979 235.897 364.563L236.145 362.839L234.42 363.087C182.132 370.573 135.854 371.226 96.8669 365.046C62.5569 359.598 35.433 348.951 18.4086 334.239C6.36227 323.827 -0.0136844 311.807 -0.013685 299.5C-0.0136855 287.193 6.36227 275.16 18.4086 264.747C35.4199 250.049 62.5569 239.401 96.8538 233.953C135.841 227.773 182.132 228.427 234.407 235.926L236.132 236.174L235.884 234.45C231.82 206.02 229.756 179.002 229.756 154.114C229.756 48.2355 265.895 0.0129278 299.473 0.0129264C333.052 0.0129249 369.191 48.2355 369.204 154.114C369.204 179.002 367.139 206.033 363.076 234.45L362.828 236.174L364.552 235.926C416.84 228.44 463.118 227.774 502.106 233.966C536.403 239.414 563.54 250.062 580.564 264.76C592.623 275.173 598.986 287.193 598.986 299.513L598.999 299.5ZM361.756 362.251C361.756 362.12 361.809 361.989 361.9 361.898C362.018 361.78 362.175 361.728 362.331 361.754C415.508 369.554 462.491 370.325 501.975 364.067C536.102 358.658 563.056 348.075 579.937 333.495C591.761 323.278 598.019 311.52 598.019 299.5C598.019 287.48 591.761 275.722 579.937 265.505C563.056 250.925 536.102 240.355 501.975 234.933C462.478 228.662 415.495 229.446 362.331 237.246C362.175 237.272 362.018 237.219 361.913 237.102C361.822 237.01 361.769 236.88 361.769 236.749C366.068 207.418 368.237 179.642 368.237 154.114C368.237 106.714 360.776 66.9575 346.653 39.1162C334.188 14.528 317.438 0.992784 299.499 0.992785C281.56 0.992786 264.824 14.5411 252.359 39.1162C238.248 66.9575 230.788 106.714 230.788 154.087C230.788 179.629 232.97 207.418 237.255 236.671L237.255 236.697C237.255 236.88 237.203 236.997 237.112 237.089C237.007 237.193 236.837 237.246 236.681 237.233C183.504 229.433 136.521 228.649 97.0367 234.92C62.9097 240.329 35.9556 250.898 19.075 265.479C7.25072 275.696 0.992356 287.454 0.992357 299.487C0.992357 311.52 7.23766 323.265 19.075 333.482C35.9556 348.062 62.9227 358.632 97.0367 364.054C136.534 370.325 183.504 369.541 236.681 361.741C236.837 361.715 236.994 361.767 237.099 361.885C237.19 361.976 237.242 362.107 237.242 362.238C232.944 391.555 230.775 419.344 230.775 444.886C230.775 484.107 235.74 517.488 245.539 544.101C254.214 567.67 266.287 584.446 280.45 592.624C292.927 599.823 306.111 599.823 318.588 592.624C332.738 584.446 344.81 567.67 353.486 544.114C363.272 517.514 368.237 484.146 368.237 444.938C368.237 419.344 366.055 391.568 361.769 362.316L361.769 362.238L361.756 362.251Z" fill="url(#paint19_linear_513_3062)"></path></g><defs><linearGradient id="paint0_linear_513_3062" x1="3.25389" y1="299.507" x2="595.773" y2="299.506" gradientUnits="userSpaceOnUse"><stop offset="0.15625" stop-color="#19687D" stop-opacity="0"></stop><stop offset="1" stop-color="#19687D"></stop></linearGradient><linearGradient id="paint1_linear_513_3062" x1="49.8965" y1="299.477" x2="549.089" y2="299.477" gradientUnits="userSpaceOnUse"><stop offset="0.15625" stop-color="#19687D" stop-opacity="0"></stop><stop offset="1" stop-color="#19687D"></stop></linearGradient><linearGradient id="paint2_linear_513_3062" x1="28.6387" y1="299.507" x2="570.386" y2="299.507" gradientUnits="userSpaceOnUse"><stop offset="0.15625" stop-color="#19687D" stop-opacity="0"></stop><stop offset="1" stop-color="#19687D"></stop></linearGradient><linearGradient id="paint3_linear_513_3062" x1="12.8691" y1="299.52" x2="586.13" y2="299.52" gradientUnits="userSpaceOnUse"><stop offset="0.15625" stop-color="#19687D" stop-opacity="0"></stop><stop offset="1" stop-color="#19687D"></stop></linearGradient><linearGradient id="paint4_linear_513_3062" x1="28.5996" y1="299.494" x2="570.412" y2="299.494" gradientUnits="userSpaceOnUse"><stop offset="0.15625" stop-color="#19687D" stop-opacity="0"></stop><stop offset="1" stop-color="#19687D"></stop></linearGradient><linearGradient id="paint5_linear_513_3062" x1="12.8965" y1="299.487" x2="586.105" y2="299.487" gradientUnits="userSpaceOnUse"><stop offset="0.15625" stop-color="#19687D" stop-opacity="0"></stop><stop offset="1" stop-color="#19687D"></stop></linearGradient><linearGradient id="paint6_linear_513_3062" x1="3.26561" y1="299.487" x2="595.772" y2="299.487" gradientUnits="userSpaceOnUse"><stop offset="0.15625" stop-color="#19687D" stop-opacity="0"></stop><stop offset="1" stop-color="#19687D"></stop></linearGradient><linearGradient id="paint7_linear_513_3062" x1="49.8574" y1="299.5" x2="549.129" y2="299.5" gradientUnits="userSpaceOnUse"><stop offset="0.15625" stop-color="#19687D" stop-opacity="0"></stop><stop offset="1" stop-color="#19687D"></stop></linearGradient><linearGradient id="paint8_linear_513_3062" x1="75.9629" y1="299.493" x2="523.051" y2="299.493" gradientUnits="userSpaceOnUse"><stop offset="0.15625" stop-color="#19687D" stop-opacity="0"></stop><stop offset="1" stop-color="#19687D"></stop></linearGradient><linearGradient id="paint9_linear_513_3062" x1="-1.30913e-05" y1="299.507" x2="599.013" y2="299.507" gradientUnits="userSpaceOnUse"><stop offset="0.15625" stop-color="#19687D" stop-opacity="0"></stop><stop offset="1" stop-color="#19687D"></stop></linearGradient><linearGradient id="paint10_linear_513_3062" x1="3.24022" y1="299.48" x2="595.773" y2="299.48" gradientUnits="userSpaceOnUse"><stop offset="0.15625" stop-color="#19687D" stop-opacity="0"></stop><stop offset="1" stop-color="#19687D"></stop></linearGradient><linearGradient id="paint11_linear_513_3062" x1="49.8965" y1="299.5" x2="549.102" y2="299.5" gradientUnits="userSpaceOnUse"><stop offset="0.15625" stop-color="#19687D" stop-opacity="0"></stop><stop offset="1" stop-color="#19687D"></stop></linearGradient><linearGradient id="paint12_linear_513_3062" x1="28.6133" y1="299.507" x2="570.4" y2="299.507" gradientUnits="userSpaceOnUse"><stop offset="0.15625" stop-color="#19687D" stop-opacity="0"></stop><stop offset="1" stop-color="#19687D"></stop></linearGradient><linearGradient id="paint13_linear_513_3062" x1="12.8691" y1="299.5" x2="586.117" y2="299.5" gradientUnits="userSpaceOnUse"><stop offset="0.15625" stop-color="#19687D" stop-opacity="0"></stop><stop offset="1" stop-color="#19687D"></stop></linearGradient><linearGradient id="paint14_linear_513_3062" x1="28.6133" y1="299.5" x2="570.4" y2="299.5" gradientUnits="userSpaceOnUse"><stop offset="0.15625" stop-color="#19687D" stop-opacity="0"></stop><stop offset="1" stop-color="#19687D"></stop></linearGradient><linearGradient id="paint15_linear_513_3062" x1="12.8965" y1="299.493" x2="586.118" y2="299.493" gradientUnits="userSpaceOnUse"><stop offset="0.15625" stop-color="#19687D" stop-opacity="0"></stop><stop offset="1" stop-color="#19687D"></stop></linearGradient><linearGradient id="paint16_linear_513_3062" x1="3.24022" y1="299.5" x2="595.76" y2="299.5" gradientUnits="userSpaceOnUse"><stop offset="0.15625" stop-color="#19687D" stop-opacity="0"></stop><stop offset="1" stop-color="#19687D"></stop></linearGradient><linearGradient id="paint17_linear_513_3062" x1="49.8711" y1="299.496" x2="549.116" y2="299.496" gradientUnits="userSpaceOnUse"><stop offset="0.15625" stop-color="#19687D" stop-opacity="0"></stop><stop offset="1" stop-color="#19687D"></stop></linearGradient><linearGradient id="paint18_linear_513_3062" x1="75.9766" y1="299.5" x2="523.038" y2="299.5" gradientUnits="userSpaceOnUse"><stop offset="0.15625" stop-color="#19687D" stop-opacity="0"></stop><stop offset="1" stop-color="#19687D"></stop></linearGradient><linearGradient id="paint19_linear_513_3062" x1="-0.013685" y1="299.479" x2="598.999" y2="299.479" gradientUnits="userSpaceOnUse"><stop offset="0.15625" stop-color="#19687D" stop-opacity="0"></stop><stop offset="1" stop-color="#19687D"></stop></linearGradient><clipPath id="clip0_513_3062"><rect width="599" height="599" fill="white" transform="translate(0 599) rotate(-90)"></rect></clipPath></defs></svg>