<svg xmlns="http://www.w3.org/2000/svg" width="204" height="650" viewBox="0 0 204 650" fill="none"><g clip-path="url(#clip0_526_2205)"><path d="M-200.225 419.496C-183.925 388.509 -135.343 360.455 -100.356 361.841C-66.7784 362.341 -34.4966 366.911 -4.23814 374.982C27.6117 382.984 58.393 409.538 65.5768 429.249C73.0789 448.209 79.3534 467.397 84.3548 486.722C88.9925 506.842 70.9647 525.461 49.3905 532.85C27.8617 540.034 8.51542 550.196 -8.262 562.382C-25.926 574.454 -53.3428 590.277 -72.6209 599.53C-91.558 607.964 -110.018 619.627 -127.023 634.7C-144.209 649.705 -169.353 656.025 -184.448 641.929C-198.679 627.925 -212.183 612.898 -224.823 596.915C-238.304 580.865 -245.897 540.898 -236.917 509.32C-228.755 479.083 -216.57 448.846 -200.225 419.519V419.496Z" stroke="#004B5D" stroke-opacity="0.5" stroke-width="1.2" stroke-miterlimit="10"></path><path d="M-41.5447 579.023C-53.1161 585.684 -63.96 591.868 -72.9398 595.892C-91.8769 604.327 -110.337 616.126 -127.182 631.472C-142.164 644.953 -164.102 650.341 -177.378 637.996C-191.655 624.06 -205.159 609.055 -217.776 593.073C-230.529 577.886 -237.85 538.965 -229.256 509.16C-221.095 479.014 -208.705 448.823 -191.973 419.655C-184.721 406.946 -171.24 393.76 -154.144 383.939C-137.094 374.072 -118.93 368.98 -104.312 369.048C-70.6892 369.139 -38.362 373.504 -8.14896 381.506C21.9504 388.963 52.0042 414.767 58.7788 433.409C66.3037 452.347 72.5554 471.535 77.4886 490.859C81.5352 508.501 65.8945 524.824 46.73 531.076C24.9967 538.01 5.55941 548.082 -11.218 560.245C-19.1975 566.019 -29.996 572.317 -41.5219 579L-41.5447 579.023Z" stroke="#004B5D" stroke-opacity="0.5" stroke-width="1.2" stroke-miterlimit="10"></path><path d="M-43.2278 576.113C-54.3673 582.524 -64.7338 588.458 -73.2589 592.3C-92.196 600.735 -110.61 612.693 -127.319 628.357C-140.096 640.202 -158.919 644.68 -170.309 634.154C-184.608 620.309 -198.135 605.327 -210.729 589.322C-222.755 575.045 -229.78 537.078 -221.619 509.092C-213.412 479.014 -200.817 448.914 -183.676 419.928C-177.311 409.129 -165.671 397.943 -150.962 389.486C-136.299 380.984 -120.772 376.505 -108.269 376.391C-74.5775 376.027 -42.2276 380.165 -12.0828 388.099C16.2433 395.033 45.6152 420.087 51.9579 437.638C59.5282 456.553 65.7345 475.741 70.5768 495.065C74.0095 510.206 60.7104 524.279 44.0693 529.394C22.1314 536.032 2.58044 546.013 -14.1742 558.198C-21.7673 563.677 -32.0883 569.679 -43.2051 576.136L-43.2278 576.113Z" stroke="#004B5D" stroke-opacity="0.5" stroke-width="1.2" stroke-miterlimit="10"></path><path d="M-44.91 573.203C-55.6176 579.364 -65.5067 585.071 -73.5999 588.685C-92.537 597.12 -110.929 609.237 -127.479 625.242C-138.05 635.405 -153.759 639.019 -163.284 630.244C-177.629 616.49 -191.178 601.53 -203.727 585.525C-215.049 572.135 -221.755 535.191 -214.003 508.979C-205.75 478.992 -192.906 448.982 -175.333 420.201C-169.922 411.311 -160.124 402.081 -147.825 394.988C-135.526 387.872 -122.614 384.007 -112.224 383.757C-78.5103 382.916 -46.0922 386.804 -15.9929 394.647C10.5828 401.035 39.2271 425.339 45.1606 441.821C52.7536 460.713 58.9372 479.901 63.6658 499.225C66.5075 511.843 55.5044 523.642 41.4323 527.734C19.2897 534.055 -0.397592 543.944 -17.175 556.107C-24.3588 561.29 -34.248 566.997 -44.9328 573.203H-44.91Z" stroke="#004B5D" stroke-opacity="0.5" stroke-width="1.2" stroke-miterlimit="10"></path><path d="M-46.6137 570.271C-56.912 576.182 -66.3237 581.661 -73.9395 585.071C-92.8766 593.505 -111.245 605.805 -127.591 622.196C-135.98 630.562 -148.597 633.359 -156.213 626.357C-170.626 612.693 -184.152 597.779 -196.678 581.752C-207.272 569.225 -213.706 533.373 -206.34 508.888C-198.065 478.992 -184.971 449.073 -166.875 420.519C-162.464 413.517 -154.553 406.219 -144.618 400.49C-134.706 394.738 -124.408 391.533 -116.156 391.214C-82.3737 389.828 -49.9328 393.465 -19.9017 401.217C4.99167 407.106 32.8176 430.59 38.3646 446.027C45.9804 464.897 52.1185 484.084 56.7562 503.386C59.0068 513.48 50.2771 523.006 38.8193 526.098C16.4494 532.054 -3.39704 541.83 -20.1517 553.993C-26.9263 558.881 -36.3608 564.314 -46.6364 570.271H-46.6137Z" stroke="#004B5D" stroke-opacity="0.5" stroke-width="1.2" stroke-miterlimit="10"></path><path d="M-48.2956 567.36C-58.162 573.044 -67.0963 578.273 -74.2574 581.479C-93.1718 589.913 -111.518 602.417 -127.659 619.218C-133.91 625.72 -143.413 627.72 -149.165 622.491C-163.623 608.942 -177.173 594.051 -189.676 578C-199.588 566.315 -205.681 531.622 -198.724 508.797C-190.404 478.992 -177.013 449.187 -158.417 420.905C-155.053 415.767 -149.028 410.357 -141.458 406.014C-133.91 401.649 -126.204 399.148 -120.088 398.785C-86.2835 396.807 -53.7744 400.126 -23.8114 407.81C-0.577674 413.198 26.4071 435.819 31.5904 450.255C39.2516 469.102 45.3442 488.267 49.8455 507.569C51.5051 515.162 45.026 522.392 36.2735 524.552C13.6536 530.121 -6.32929 539.761 -23.1067 551.924C-29.4721 556.516 -38.4746 561.654 -48.3183 567.36H-48.2956Z" stroke="#004B5D" stroke-opacity="0.5" stroke-width="1.2" stroke-miterlimit="10"></path><path d="M-49.9562 564.45C-59.3907 569.884 -67.8703 574.863 -74.5767 577.864C-93.4911 586.298 -111.792 599.007 -127.682 616.285C-131.752 620.718 -138.276 622.014 -142.073 618.581C-156.6 605.145 -170.172 590.322 -182.607 574.249C-191.837 563.359 -197.611 529.917 -191.064 508.728C-182.675 479.037 -168.989 449.346 -149.78 421.36C-147.529 418.063 -143.437 414.517 -138.254 411.516C-133.07 408.515 -127.955 406.764 -123.977 406.446C-90.1265 403.809 -57.5492 406.787 -27.6772 414.38C-6.05755 419.291 20.0179 441.025 24.8374 454.461C32.5214 473.263 38.5913 492.451 42.9561 511.752C44.0474 516.754 39.637 521.755 33.7718 523.074C10.8563 528.189 -9.30848 537.692 -26.0632 549.855C-32.0194 554.152 -40.5672 558.994 -49.979 564.45H-49.9562Z" stroke="#004B5D" stroke-opacity="0.5" stroke-width="1.2" stroke-miterlimit="10"></path><path d="M-51.6615 561.517C-60.664 566.701 -68.6663 571.452 -74.9181 574.249C-93.8097 582.66 -112.088 595.642 -127.683 613.443C-129.683 615.716 -133.139 616.375 -135.026 614.67C-149.643 601.348 -163.215 586.571 -175.605 570.497C-184.199 560.403 -189.632 528.257 -183.471 508.66C-175.037 479.105 -161.01 449.55 -141.118 421.882C-140.05 420.405 -137.867 418.609 -135.094 417.017C-132.32 415.426 -129.683 414.426 -127.865 414.244C-93.9688 410.856 -61.3688 413.471 -31.565 420.95C-11.5139 425.406 13.6067 446.208 18.0398 458.689C25.7919 477.468 31.7936 496.633 36.0221 515.935C36.5449 518.39 34.2488 521.096 31.2935 521.687C8.08244 526.279 -12.2869 535.623 -29.0416 547.786C-34.5886 551.787 -42.6818 556.334 -51.6843 561.54L-51.6615 561.517Z" stroke="#004B5D" stroke-opacity="0.5" stroke-width="1.2" stroke-miterlimit="10"></path><path d="M-53.344 558.608C-61.9373 563.564 -69.4394 568.065 -75.2365 570.657C-94.1054 579.069 -112.315 592.278 -127.547 610.647C-127.66 610.715 -127.91 610.761 -128.024 610.738C-142.687 597.597 -156.259 582.888 -168.581 566.792C-176.515 557.471 -181.607 526.689 -175.856 508.638C-167.421 479.378 -153.099 450.142 -132.662 423.02C-132.503 422.906 -132.252 422.747 -131.934 422.565C-131.616 422.383 -131.366 422.247 -131.184 422.156C-97.47 418.018 -64.9836 420.246 -35.4299 427.567C-16.902 431.591 7.19565 451.392 11.3104 462.941C19.0853 481.652 25.0415 500.772 29.0881 520.028C29.0426 520.141 28.9062 520.323 28.7698 520.391C5.26327 524.415 -15.2879 533.577 -31.9971 545.717C-37.1349 549.423 -44.7962 553.697 -53.3667 558.653L-53.344 558.608Z" stroke="#004B5D" stroke-opacity="0.5" stroke-width="1.2" stroke-miterlimit="10"></path><path d="M-54.8895 555.902C-63.0508 560.608 -70.0983 564.882 -75.3952 567.269C-92.8774 575.09 -109.746 587.389 -123.841 604.44C-137.435 592.255 -150.052 578.637 -161.465 563.723C-168.83 555.152 -173.673 525.734 -168.262 509.115C-160.374 481.902 -146.961 454.689 -127.842 429.499C-96.4693 425.543 -66.2108 427.544 -38.6804 434.296C-21.5847 437.933 1.48989 456.826 5.2182 467.488C12.402 484.834 17.9036 502.567 21.6546 520.436C-0.146912 524.119 -19.2204 532.577 -34.7475 543.807C-39.4988 547.218 -46.7281 551.173 -54.8668 555.902H-54.8895Z" stroke="#004B5D" stroke-opacity="0.5" stroke-width="1.2" stroke-miterlimit="10"></path><path d="M-56.4352 553.242C-64.1646 557.698 -70.7119 561.745 -75.5769 563.95C-91.5814 571.18 -106.995 582.433 -119.907 598.029C-132.366 586.889 -143.914 574.408 -154.417 560.767C-161.214 552.947 -165.784 524.961 -160.76 509.706C-153.462 484.789 -141.163 459.872 -123.659 436.797C-94.9232 433.182 -67.2109 435 -41.9993 441.116C-26.2676 444.39 -4.30696 462.35 -0.942382 472.149C5.62764 488.04 10.6517 504.295 14.0618 520.664C-5.89833 524.029 -23.3578 531.758 -37.6117 541.989C-41.9539 545.103 -48.7285 548.764 -56.4579 553.219L-56.4352 553.242Z" stroke="#004B5D" stroke-opacity="0.5" stroke-width="1.2" stroke-miterlimit="10"></path><path d="M-57.9802 550.56C-65.1867 554.697 -71.4385 558.608 -75.7579 560.586C-90.2847 567.179 -104.243 577.454 -115.974 591.595C-127.272 581.478 -137.798 570.157 -147.323 557.789C-153.484 550.855 -157.826 523.938 -153.211 510.274C-146.528 487.653 -135.32 465.033 -119.452 444.094C-93.3537 440.821 -68.1876 442.412 -45.2721 447.936C-31.1318 450.755 -9.96676 467.988 -7.05686 476.786C-1.12338 491.223 3.44607 505.977 6.53784 520.846C-11.5809 523.915 -27.4489 530.894 -40.4298 540.17C-44.3173 542.921 -50.8191 546.376 -58.0029 550.56H-57.9802Z" stroke="#004B5D" stroke-opacity="0.5" stroke-width="1.2" stroke-miterlimit="10"></path><path d="M-151.371 412.857C-152.757 377.869 -124.681 329.285 -93.6954 312.985C-64.369 296.616 -34.1106 284.453 -3.89756 276.292C27.6795 267.289 67.6224 274.905 83.6951 288.386C99.6769 301.049 114.704 314.531 128.708 328.785C142.803 343.904 136.483 369.025 121.478 386.212C106.406 403.218 94.7664 421.678 86.3095 440.616C77.0569 459.895 61.2343 487.312 49.1627 504.977C36.9775 521.755 26.8383 541.079 19.6318 562.632C12.2661 584.229 -6.3528 602.258 -26.4948 597.62C-45.8184 592.596 -65.0283 586.344 -83.9654 578.819C-103.675 571.634 -130.228 540.852 -138.231 509.001C-146.278 478.742 -150.87 446.459 -151.371 412.88V412.857Z" stroke="#004B5D" stroke-opacity="0.5" stroke-width="1.2" stroke-miterlimit="10"></path><path d="M65.8039 471.671C59.1202 483.22 52.823 493.996 47.0486 501.999C34.8634 518.777 24.7924 538.215 17.8587 559.949C11.6296 579.114 -4.69312 594.755 -22.3344 590.708C-41.658 585.775 -60.8679 579.523 -79.7823 571.998C-98.4239 565.246 -124.204 535.168 -131.683 505.068C-139.685 474.877 -144.028 442.548 -144.118 408.901C-144.187 394.26 -139.094 376.095 -129.228 359.067C-119.407 341.994 -106.222 328.49 -93.5134 321.237C-64.3462 304.505 -34.1786 292.115 -4.01112 283.93C25.7927 275.359 64.7127 282.657 79.8988 295.411C95.9032 308.029 110.907 321.533 124.82 335.81C137.142 349.087 131.777 371.026 118.296 386.008C102.951 402.877 91.1519 421.314 82.6949 440.252C78.6711 449.255 72.4876 460.076 65.8266 471.648L65.8039 471.671Z" stroke="#004B5D" stroke-opacity="0.5" stroke-width="1.2" stroke-miterlimit="10"></path><path d="M62.8933 469.989C56.4597 481.106 50.458 491.45 44.9792 499.021C32.794 515.799 22.8366 535.351 16.1757 557.267C11.0606 573.908 -3.01152 587.23 -18.1521 583.775C-37.4757 578.955 -56.6629 572.726 -75.5772 565.155C-93.1276 558.812 -118.18 529.44 -125.114 501.112C-133.048 470.967 -137.185 438.593 -136.822 404.923C-136.708 392.396 -132.229 376.892 -123.727 362.205C-115.247 347.519 -104.062 335.856 -93.2867 329.513C-64.3014 312.371 -34.2021 299.776 -4.12547 291.547C23.8596 283.385 61.8476 290.41 76.1015 302.436C92.106 315.031 107.087 328.535 120.932 342.858C131.481 354.248 126.979 373.072 115.135 385.849C99.4717 402.559 87.5138 420.996 79.0796 439.911C75.2604 448.46 69.3042 458.826 62.8933 469.966V469.989Z" stroke="#004B5D" stroke-opacity="0.5" stroke-width="1.2" stroke-miterlimit="10"></path><path d="M59.9603 468.307C53.754 478.992 48.0479 488.904 42.8646 496.065C30.6794 512.843 20.8129 532.531 14.493 554.675C10.4237 568.747 -1.37507 579.751 -14.015 576.909C-33.3386 572.18 -52.5258 565.996 -71.3947 558.403C-87.8766 552.469 -112.179 523.824 -118.567 497.247C-126.41 467.147 -130.32 434.751 -129.456 401.013C-129.206 390.623 -125.342 377.71 -118.226 365.433C-111.133 353.111 -101.903 343.313 -93.0143 337.925C-64.2336 320.328 -34.2252 307.506 -4.2395 299.253C21.9724 291.501 58.9145 298.23 72.3046 309.529C88.3091 322.079 103.268 335.606 117.022 349.974C125.797 359.5 122.182 375.209 112.02 385.781C96.0158 402.331 83.8988 420.723 75.4646 439.661C71.85 447.732 66.1438 457.621 59.9603 468.352V468.307Z" stroke="#004B5D" stroke-opacity="0.5" stroke-width="1.2" stroke-miterlimit="10"></path><path d="M57.0517 466.602C51.0954 476.877 45.6621 486.312 40.7744 493.087C28.6119 509.842 18.8365 529.69 12.8802 552.06C9.78847 563.496 0.263063 572.226 -9.83067 569.975C-29.1543 565.36 -48.3187 559.199 -67.1876 551.583C-82.6465 546.036 -106.108 518.209 -111.996 493.314C-119.771 463.282 -123.385 430.818 -121.998 397.057C-121.657 388.782 -118.452 378.506 -112.723 368.593C-107.017 358.658 -99.6967 350.747 -92.6947 346.314C-64.1413 328.24 -34.2239 315.145 -4.32913 306.847C20.1777 299.503 56.0059 305.915 68.5549 316.509C84.5821 329.035 99.4953 342.562 113.158 356.999C120.16 364.638 117.364 377.232 108.998 385.644C92.6071 401.99 80.3081 420.36 71.874 439.297C68.4639 446.913 62.9852 456.326 57.0744 466.624L57.0517 466.602Z" stroke="#004B5D" stroke-opacity="0.5" stroke-width="1.2" stroke-miterlimit="10"></path><path d="M54.1417 464.919C48.4355 474.763 43.2978 483.766 38.7056 490.132C26.5431 506.887 16.904 526.87 11.3342 549.514C9.17455 558.267 1.94525 564.769 -5.64778 563.086C-24.9486 558.585 -44.1358 552.492 -62.9592 544.831C-77.3951 539.647 -100.015 512.684 -105.403 489.427C-113.087 459.463 -116.406 426.953 -114.428 393.146C-114.087 387.008 -111.564 379.324 -107.199 371.776C-102.857 364.228 -97.4462 358.204 -92.3084 354.839C-64.005 336.219 -34.2012 322.829 -4.42015 314.508C18.4044 307.551 53.0732 313.667 64.781 323.579C80.831 336.06 95.6987 349.61 109.248 364.092C114.499 369.844 112.476 379.324 105.974 385.599C89.1742 401.74 76.6707 420.087 68.2365 439.002C65.0311 446.163 59.8024 455.098 54.1417 464.965V464.919Z" stroke="#004B5D" stroke-opacity="0.5" stroke-width="1.2" stroke-miterlimit="10"></path><path d="M51.231 463.237C45.7749 472.649 40.9326 481.22 36.636 487.153C24.4735 503.909 14.9708 524.074 9.85575 546.99C8.5372 552.856 3.53581 557.266 -1.46558 556.175C-20.7664 551.81 -39.9309 545.74 -58.7544 538.033C-72.1899 533.236 -93.9233 507.137 -98.8337 485.516C-106.404 455.643 -109.405 423.065 -106.768 389.213C-106.472 385.212 -104.699 380.097 -101.698 374.913C-98.7201 369.73 -95.1509 365.638 -91.8545 363.387C-63.8467 344.176 -34.1566 330.468 -4.48916 322.101C16.6986 315.554 50.1397 321.328 61.0291 330.558C77.1018 342.994 91.9242 356.567 105.36 371.094C108.815 374.891 107.497 381.415 103.086 385.485C85.8088 401.376 73.078 419.677 64.6438 438.592C61.6429 445.299 56.6643 453.756 51.231 463.191V463.237Z" stroke="#004B5D" stroke-opacity="0.5" stroke-width="1.2" stroke-miterlimit="10"></path><path d="M48.2986 461.554C43.0926 470.557 38.5458 478.651 34.5219 484.198C22.3594 500.953 13.0159 521.323 8.42374 544.512C7.83267 547.468 5.1501 549.764 2.67213 549.264C-16.6287 545.035 -35.7931 539.033 -54.5711 531.281C-67.0519 526.825 -87.8305 501.703 -92.2862 481.652C-99.7656 451.847 -102.38 419.223 -98.9927 385.326C-98.8108 383.507 -97.8105 380.87 -96.2192 378.096C-94.6278 375.323 -92.8318 373.14 -91.3314 372.072C-63.6873 352.202 -34.1336 338.152 -4.5799 329.717C15.0165 323.556 47.1618 328.99 57.2556 337.584C73.351 349.974 88.1506 363.569 101.45 378.164C103.132 380.029 102.495 383.507 100.222 385.508C82.4217 401.104 69.4408 419.359 61.0294 438.274C58.2331 444.526 53.4818 452.506 48.2986 461.532V461.554Z" stroke="#004B5D" stroke-opacity="0.5" stroke-width="1.2" stroke-miterlimit="10"></path><path d="M45.389 459.872C40.4103 468.443 36.1591 476.105 32.4308 481.243C20.3138 497.952 11.1521 518.504 7.12827 542.012C7.06007 542.125 6.87819 542.285 6.76453 542.33C-12.5136 538.283 -31.6326 532.327 -50.3196 524.552C-61.8683 520.437 -81.6693 496.338 -85.6931 477.81C-93.0134 448.255 -95.2413 415.767 -91.081 382.052C-91.0128 381.87 -90.8764 381.62 -90.6718 381.302C-90.4899 380.984 -90.3308 380.734 -90.2171 380.575C-63.0959 360.136 -33.8377 345.814 -4.60229 337.379C13.4482 331.605 44.2296 336.697 53.5731 344.631C69.6685 356.953 84.3772 370.526 97.5172 385.19C97.5172 385.303 97.4945 385.531 97.4263 385.667C79.0802 400.899 65.872 419.109 57.4605 437.979C54.8689 443.754 50.3676 451.279 45.4344 459.872H45.389Z" stroke="#004B5D" stroke-opacity="0.5" stroke-width="1.2" stroke-miterlimit="10"></path><path d="M42.7068 458.326C37.9782 466.465 34.0225 473.695 30.6125 478.423C19.3821 493.951 10.9251 513.025 7.2423 534.827C-10.6263 531.076 -28.3585 525.574 -45.7043 518.39C-56.3664 514.662 -75.258 491.609 -78.8954 474.49C-85.67 446.982 -87.6479 416.699 -83.7149 385.326C-58.5261 366.229 -31.3139 352.816 -4.10176 344.904C12.5165 339.493 41.9339 344.336 50.5044 351.702C65.4177 363.137 79.0351 375.732 91.2203 389.327C74.1701 403.422 61.894 420.291 54.0509 437.774C51.6638 443.094 47.3672 450.142 42.6841 458.303L42.7068 458.326Z" stroke="#004B5D" stroke-opacity="0.5" stroke-width="1.2" stroke-miterlimit="10"></path><path d="M40.0005 456.78C35.5447 464.51 31.8846 471.285 28.7701 475.627C18.5172 489.881 10.8105 507.364 7.42318 527.302C-8.94503 523.869 -25.1768 518.868 -41.0904 512.275C-50.8886 508.91 -68.8254 486.949 -72.099 471.216C-78.2371 445.981 -80.0331 418.268 -76.4184 389.532C-53.3438 372.049 -28.4505 359.727 -3.53441 352.452C11.7426 347.405 39.705 351.974 47.5481 358.795C61.1882 369.275 73.6462 380.847 84.8084 393.283C69.2132 406.196 57.9373 421.61 50.7308 437.615C48.5256 442.48 44.479 449.028 40.0232 456.757L40.0005 456.78Z" stroke="#004B5D" stroke-opacity="0.5" stroke-width="1.2" stroke-miterlimit="10"></path><path d="M37.3412 455.234C33.1809 462.418 29.7254 468.943 26.9747 472.808C17.6993 485.789 10.7429 501.658 7.65108 519.777C-7.21671 516.662 -21.9709 512.115 -36.4067 506.182C-45.2046 503.272 -62.414 482.106 -65.2557 467.988C-70.78 445.049 -72.3713 419.882 -69.0976 393.783C-48.1372 377.891 -25.54 366.706 -2.92005 360.022C10.7429 355.407 37.6822 359.749 44.5932 365.91C56.9603 375.459 68.2817 385.962 78.3982 397.261C64.2578 408.969 54.0049 422.951 47.3895 437.478C45.4116 441.798 41.4787 448.05 37.3412 455.257V455.234Z" stroke="#004B5D" stroke-opacity="0.5" stroke-width="1.2" stroke-miterlimit="10"></path><path d="M34.6579 453.688C30.7705 460.349 27.565 466.556 25.1325 470.011C16.8348 481.697 10.6058 495.974 7.83225 512.252C-5.53512 509.456 -18.7888 505.386 -31.7925 500.089C-39.6356 497.588 -56.0493 477.332 -58.459 464.714C-63.3695 444.071 -64.7562 421.428 -61.8236 397.989C-43.0001 383.734 -22.699 373.617 -2.37516 367.547C9.7646 363.319 35.5218 367.411 41.5917 372.981C52.6857 381.574 62.8477 391.032 71.9411 401.194C59.233 411.72 50.0031 424.247 44.0242 437.297C42.251 441.116 38.4772 447.004 34.6579 453.711V453.688Z" stroke="#004B5D" stroke-opacity="0.5" stroke-width="1.2" stroke-miterlimit="10"></path><path d="M31.975 452.142C28.3831 458.303 25.3823 464.191 23.3135 467.192C15.9933 477.605 10.4917 490.291 8.05922 504.704C-3.80774 502.226 -15.5837 498.634 -27.1097 493.951C-34.0662 491.859 -49.616 472.603 -51.6166 461.418C-55.8905 443.071 -57.1181 422.974 -54.5037 402.172C-37.7945 389.532 -19.7895 380.529 -1.76169 375.072C8.92311 371.23 33.3845 375.072 38.6587 380.029C48.5024 387.69 57.4822 396.079 65.5526 405.127C54.2767 414.471 46.0699 425.566 40.7047 437.092C39.1361 440.411 35.5442 445.936 31.9978 452.119L31.975 452.142Z" stroke="#004B5D" stroke-opacity="0.5" stroke-width="1.2" stroke-miterlimit="10"></path><path d="M29.2944 450.596C25.3387 457.508 22.8835 462.441 21.4967 464.396C15.1768 473.535 10.4027 484.607 8.243 497.179C-2.12354 495.02 -12.3991 491.905 -22.4928 487.835C-28.4718 486.176 -43.2487 467.784 -44.8173 458.144C-48.4774 442.094 -49.5004 424.543 -47.2498 406.378C-32.6548 395.352 -16.9686 387.463 -1.21417 382.598C7.90202 379.142 31.2494 382.757 35.6598 387.099C44.2076 393.806 52.0507 401.149 59.0982 409.038C49.2772 417.177 42.0707 426.862 37.3421 436.91C36.3418 439.093 33.2955 443.685 29.2944 450.574V450.596Z" stroke="#004B5D" stroke-opacity="0.5" stroke-width="1.2" stroke-miterlimit="10"></path><path d="M26.6335 449.05C22.7234 455.939 20.5864 460.349 19.677 461.6C14.3346 469.443 10.2881 478.923 8.44664 489.654C-0.419474 487.813 -9.21741 485.175 -17.8562 481.742C-22.9258 480.492 -36.8388 463.077 -37.9982 454.893C-41.0672 441.139 -41.8856 426.134 -39.9533 410.606C-27.4725 401.194 -14.0824 394.397 -0.64681 390.168C7.03716 387.099 29.066 390.441 32.6807 394.192C39.9782 399.944 46.6619 406.241 52.6863 412.994C44.2976 419.95 38.114 428.18 33.9992 436.751C33.3627 438.161 30.6119 442.207 26.6108 449.028L26.6335 449.05Z" stroke="#004B5D" stroke-opacity="0.5" stroke-width="1.2" stroke-miterlimit="10"></path><path d="M23.9514 447.505C20.1549 454.189 18.359 458.167 17.8588 458.781C13.4712 465.351 10.1749 473.217 8.65171 482.106C1.28602 480.583 -6.03421 478.401 -13.1953 475.604C-17.3328 474.786 -30.382 458.303 -31.1549 451.62C-33.5874 440.139 -34.2239 427.703 -32.6326 414.835C-22.2888 407.015 -11.1948 401.331 -0.0325487 397.739C6.151 395.056 26.9523 398.125 29.7485 401.308C35.7729 406.128 41.3199 411.357 46.2986 416.972C39.3648 422.747 34.2043 429.544 30.7033 436.615C30.4078 437.342 27.8616 440.912 23.9742 447.527L23.9514 447.505Z" stroke="#004B5D" stroke-opacity="0.5" stroke-width="1.2" stroke-miterlimit="10"></path><path d="M21.2675 445.936C17.5392 452.597 16.1297 456.053 16.016 456.053C12.6287 461.304 10.0598 467.556 8.85496 474.581C2.98969 473.376 -2.83013 471.671 -8.559 469.466C-11.8781 468.989 -23.9042 453.666 -24.3362 448.323C-26.1776 439.161 -26.6095 429.249 -25.3819 419.018C-17.1523 412.812 -8.35439 408.242 0.511726 405.264C5.35399 402.945 24.6548 405.719 26.7236 408.356C31.4977 412.221 35.8625 416.404 39.8409 420.883C34.3394 425.452 30.2019 430.818 27.3374 436.433C27.3374 436.433 25.1095 439.457 21.2448 445.959L21.2675 445.936Z" stroke="#004B5D" stroke-opacity="0.5" stroke-width="1.2" stroke-miterlimit="10"></path><path d="M18.5856 444.39C15.6075 449.665 14.4708 452.825 14.1071 453.438C11.7428 457.349 9.94683 461.941 9.06022 467.011C4.69536 466.124 0.353257 464.897 -3.92067 463.305C-6.7169 462.828 -17.1289 449.46 -17.4926 444.913C-18.7203 438.093 -18.9931 430.749 -18.061 423.202C-11.9456 418.609 -5.44382 415.154 1.1262 412.812C5.12732 410.902 21.9502 413.221 23.8144 415.472C27.3153 418.359 30.5208 421.474 33.4534 424.793C29.475 428.112 26.3833 431.977 24.1781 436.001C23.7234 436.751 21.5864 439.32 18.6083 444.367L18.5856 444.39Z" stroke="#004B5D" stroke-opacity="0.5" stroke-width="1.2" stroke-miterlimit="10"></path><path d="M15.9043 442.844C13.4263 447.254 12.5852 450.119 12.1987 450.937C10.8347 453.484 9.81167 456.348 9.24333 459.508C6.4471 458.963 3.67359 458.19 0.922816 457.258C-1.62335 456.735 -10.3531 445.345 -10.6486 441.321C-11.2851 436.91 -11.3533 432.25 -10.785 427.453C-6.89754 424.543 -2.76002 422.247 1.40024 420.587C4.94668 418.882 19.1779 420.769 20.9512 422.769C23.1109 424.656 25.1341 426.657 26.9983 428.771C24.5203 430.84 22.5652 433.182 21.0421 435.637C20.451 436.433 18.405 438.593 15.9043 442.844Z" stroke="#004B5D" stroke-opacity="0.5" stroke-width="1.2" stroke-miterlimit="10"></path><path d="M13.2436 441.298C11.1976 444.936 10.7429 447.55 10.4701 448.528C10.0382 449.619 9.69715 450.756 9.46982 451.983C8.28767 451.756 7.12823 451.483 5.96882 451.142C3.42265 450.619 -3.53383 441.321 -3.6475 437.433C-3.73843 435.569 -3.69296 433.636 -3.46562 431.659C-1.85154 430.454 -0.169267 429.431 1.55849 428.567C4.99127 426.771 16.4718 428.203 18.1995 430.158C19.0407 430.977 19.8591 431.818 20.6093 432.704C19.6545 433.523 18.8361 434.387 18.1086 435.319C17.3811 436.069 15.3578 437.774 13.2663 441.321L13.2436 441.298Z" stroke="#004B5D" stroke-opacity="0.5" stroke-width="1.2" stroke-miterlimit="10"></path><path d="M10.7201 439.866C9.85626 441.366 9.65166 442.821 9.65166 443.981C7.44649 443.049 4.92304 439.684 4.58203 436.297C7.65107 434.91 11.8113 435.433 13.721 436.888C12.7207 437.456 11.5613 438.343 10.6974 439.843L10.7201 439.866Z" stroke="#004B5D" stroke-opacity="0.5" stroke-width="1.2" stroke-miterlimit="10"></path><path d="M-112.405 382.666C-131.092 353.043 -131.092 296.934 -112.405 267.334C-95.1725 238.507 -75.076 212.817 -52.9789 190.651C-30.1316 167.075 8.26549 153.685 28.9076 157.322C49.0724 160.301 68.8278 164.461 88.0832 169.781C107.839 175.828 114.932 200.745 110.521 223.139C105.975 245.396 105.111 267.221 107.27 287.841C108.907 309.166 108.907 340.835 107.27 362.16C105.111 382.78 105.975 404.605 110.521 426.862C114.932 449.232 107.816 474.172 88.0605 480.219C68.8279 485.539 49.0723 489.722 28.8849 492.678C8.24273 496.315 -30.1544 482.948 -53.0244 459.349C-75.1215 437.183 -95.2408 411.493 -112.45 382.666H-112.405Z" stroke="#004B5D" stroke-opacity="0.5" stroke-width="1.2" stroke-miterlimit="10"></path><path d="M105.111 325.011C105.111 338.357 105.043 350.838 104.02 360.636C101.86 381.256 102.86 403.127 107.725 425.407C111.908 445.14 105.588 466.829 88.2879 472.149C69.1007 477.559 49.3452 481.743 29.1805 484.675C9.65232 488.131 -27.6991 475.013 -49.2278 452.665C-71.2567 430.499 -91.1941 404.696 -108.085 375.618C-115.474 362.978 -120.134 344.7 -120.111 325.011C-120.134 305.323 -115.474 287.022 -108.085 274.382C-91.1941 245.305 -71.2567 219.501 -49.2278 197.335C-27.7218 174.987 9.65232 161.869 29.1805 165.325C49.3452 168.258 69.078 172.441 88.2879 177.852C105.611 183.171 111.931 204.883 107.725 224.594C102.86 246.873 101.86 268.744 104.02 289.364C105.02 299.162 105.088 311.644 105.111 324.989V325.011Z" stroke="#004B5D" stroke-opacity="0.5" stroke-width="1.2" stroke-miterlimit="10"></path><path d="M101.745 325.011C101.723 337.856 101.677 349.815 100.745 359.113C98.5853 379.733 99.722 401.672 104.928 423.974C108.815 440.957 103.268 459.508 88.4461 464.101C69.3044 469.58 49.5716 473.785 29.4296 476.695C11.0608 479.969 -25.3357 467.056 -45.5004 446.004C-67.4384 423.861 -87.1939 397.898 -103.744 368.548C-109.905 357.658 -113.77 341.948 -113.77 325.011C-113.77 308.051 -109.928 292.365 -103.744 281.475C-87.2166 252.125 -67.4384 226.162 -45.5004 204.019C-25.3584 182.944 11.0608 170.053 29.4296 173.327C49.5944 176.237 69.3271 180.443 88.4461 185.922C103.268 190.514 108.815 209.066 104.928 226.048C99.722 248.351 98.5853 270.29 100.745 290.91C101.7 300.208 101.723 312.166 101.745 325.034V325.011Z" stroke="#004B5D" stroke-opacity="0.5" stroke-width="1.2" stroke-miterlimit="10"></path><path d="M98.3592 325.011C98.3592 337.379 98.3364 348.791 97.4271 357.59C95.2674 378.21 96.5632 400.194 102.156 422.519C105.657 436.751 100.928 452.188 88.6064 456.03C69.5102 461.6 49.8001 465.828 29.6354 468.693C12.3806 471.785 -22.9702 459.144 -41.7937 439.32C-63.6407 417.177 -83.2144 391.055 -99.3552 361.432C-104.357 352.315 -107.448 339.198 -107.426 324.989C-107.426 310.78 -104.357 297.684 -99.3552 288.545C-83.2371 258.922 -63.6634 232.8 -41.7937 210.657C-22.9702 190.833 12.3806 178.17 29.6354 181.284C49.8001 184.149 69.4874 188.4 88.6064 193.947C100.951 197.812 105.679 213.226 102.156 227.458C96.5632 249.783 95.2674 271.79 97.4271 292.387C98.3137 301.186 98.3364 312.621 98.3364 324.989L98.3592 325.011Z" stroke="#004B5D" stroke-opacity="0.5" stroke-width="1.2" stroke-miterlimit="10"></path><path d="M94.9936 325.012C94.9709 336.879 94.9936 347.769 94.1297 356.09C91.97 376.687 93.4477 398.739 99.4494 421.11C102.496 432.568 98.6082 444.89 88.7418 447.982C69.6911 453.643 50.0265 457.917 29.8617 460.736C13.7209 463.646 -20.5387 451.279 -38.0891 432.682C-59.8224 410.561 -79.1915 384.258 -94.8777 354.316C-98.7197 346.996 -101.084 336.47 -101.084 325.034C-101.084 313.576 -98.7424 303.05 -94.8777 295.73C-79.1915 265.788 -59.8224 239.485 -38.0891 217.364C-20.5387 198.745 13.7209 186.377 29.8617 189.287C50.0037 192.106 69.691 196.38 88.7191 202.041C98.6082 205.156 102.473 217.478 99.4267 228.913C93.4023 251.284 91.9473 273.336 94.107 293.934C94.9709 302.232 94.9481 313.122 94.9708 324.989L94.9936 325.012Z" stroke="#004B5D" stroke-opacity="0.5" stroke-width="1.2" stroke-miterlimit="10"></path><path d="M91.6295 325.012C91.6295 336.402 91.6523 346.746 90.8566 354.566C88.6969 375.164 90.3564 397.284 96.8355 419.678C99.3362 428.34 96.3354 437.57 88.9242 439.934C69.9416 445.686 50.2998 449.983 30.1578 452.779C15.0854 455.507 -18.0148 443.458 -34.292 426.043C-55.9345 403.946 -75.0535 377.437 -90.2623 347.178C-93.013 341.699 -94.6953 333.787 -94.6953 325.057C-94.6953 316.327 -93.013 308.416 -90.2623 302.937C-75.0535 272.654 -55.9345 246.169 -34.292 224.071C-17.992 206.656 15.0854 194.584 30.1578 197.335C50.2998 200.109 69.9644 204.428 88.9242 210.18C96.3354 212.544 99.3362 221.775 96.8355 230.436C90.3564 252.807 88.6969 274.95 90.8566 295.548C91.6523 303.369 91.6068 313.713 91.6295 325.08V325.012Z" stroke="#004B5D" stroke-opacity="0.5" stroke-width="1.2" stroke-miterlimit="10"></path><path d="M88.2635 325.011C88.2635 335.901 88.3317 345.722 87.5815 353.043C85.4218 373.64 87.286 395.852 94.3107 418.245C96.1067 423.997 93.9924 430.294 89.1047 431.863C70.213 437.729 50.5712 442.071 30.4292 444.799C16.3798 447.368 -15.47 435.637 -30.5424 419.382C-52.0712 397.284 -70.9174 370.594 -85.5578 339.948C-87.2856 336.333 -88.3086 331.013 -88.3086 325.034C-88.3086 319.055 -87.2856 313.735 -85.5578 310.12C-70.9174 279.474 -52.0484 252.761 -30.5424 230.686C-15.47 214.431 16.3798 202.7 30.4292 205.269C50.5712 207.997 70.1903 212.34 89.1047 218.205C93.9924 219.774 96.1294 226.071 94.3107 231.823C87.286 254.216 85.4218 276.428 87.5815 297.025C88.3317 304.323 88.2635 314.167 88.2635 325.034V325.011Z" stroke="#004B5D" stroke-opacity="0.5" stroke-width="1.2" stroke-miterlimit="10"></path><path d="M84.9 325.012C84.9 335.424 84.991 344.722 84.2862 351.52C82.1493 372.117 84.218 394.42 91.8565 416.813C92.8113 419.678 91.6519 422.997 89.2421 423.793C70.4187 429.795 50.8223 434.16 30.703 436.842C17.6767 439.229 -12.9001 427.862 -26.7903 412.744C-48.1827 390.669 -66.756 363.728 -80.76 332.673C-81.5102 331.014 -81.9648 328.217 -81.9648 325.012C-81.9648 321.806 -81.5102 319.033 -80.76 317.373C-66.756 286.34 -48.1827 259.377 -26.7903 237.325C-12.9001 222.184 17.6539 210.817 30.703 213.226C50.8223 215.909 70.4187 220.297 89.2649 226.276C91.6519 227.049 92.834 230.391 91.8565 233.256C84.2407 255.649 82.1493 277.974 84.2862 298.549C84.991 305.369 84.8773 314.645 84.9 325.034V325.012Z" stroke="#004B5D" stroke-opacity="0.5" stroke-width="1.2" stroke-miterlimit="10"></path><path d="M81.5118 325.012C81.5118 334.924 81.6482 343.699 80.9889 349.997C78.852 370.549 81.1708 392.919 89.4459 415.267C89.4459 415.404 89.3549 415.631 89.2867 415.722C70.5769 421.838 51.0488 426.248 30.9522 428.885C18.9034 431.09 -10.3093 420.11 -23.0401 406.105C-44.1597 384.167 -62.3239 357.135 -75.6003 325.876C-75.6003 325.694 -75.623 325.398 -75.623 325.034C-75.623 324.671 -75.623 324.375 -75.6003 324.17C-62.3239 292.911 -44.1597 265.879 -23.0401 243.963C-10.2866 229.936 18.9034 218.956 30.9522 221.161C51.0488 223.775 70.5769 228.186 89.2867 234.324C89.3776 234.415 89.4459 234.642 89.4459 234.779C81.1708 257.149 78.8292 279.52 80.9889 300.072C81.6482 306.369 81.4891 315.122 81.5118 325.034V325.012Z" stroke="#004B5D" stroke-opacity="0.5" stroke-width="1.2" stroke-miterlimit="10"></path><path d="M78.4206 325.011C78.4206 334.424 78.6025 342.653 78.0114 348.473C76.0563 367.548 78.2615 388.281 85.9682 409.015C68.6452 414.699 50.5265 418.814 31.9076 421.246C20.8136 423.338 -7.08057 412.835 -18.7884 399.83C-38.4075 379.392 -55.2531 354.18 -67.5293 325.011C-55.2531 295.866 -38.4075 270.653 -18.7884 250.215C-7.08057 237.234 20.8136 226.708 31.9076 228.799C50.5265 231.255 68.6452 235.347 85.9682 241.03C78.2615 261.764 76.0563 282.498 78.0114 301.572C78.6025 307.392 78.4206 315.622 78.4206 325.034V325.011Z" stroke="#004B5D" stroke-opacity="0.5" stroke-width="1.2" stroke-miterlimit="10"></path><path d="M75.3295 325.011C75.3295 333.923 75.5568 341.63 75.034 346.95C73.2835 364.41 75.3295 383.393 82.3769 402.377C66.5089 407.583 49.9133 411.357 32.8631 413.63C22.7011 415.608 -3.829 405.582 -14.5365 393.601C-32.4506 374.823 -47.8868 351.724 -59.1172 325.011C-47.8868 298.321 -32.4734 275.223 -14.5365 256.444C-3.829 244.463 22.7011 234.415 32.8631 236.415C49.9133 238.666 66.5089 242.44 82.3769 247.669C75.3295 266.652 73.2607 285.635 75.034 303.096C75.5568 308.415 75.3068 316.1 75.3295 325.034V325.011Z" stroke="#004B5D" stroke-opacity="0.5" stroke-width="1.2" stroke-miterlimit="10"></path><path d="M72.2378 325.011C72.2378 333.309 72.4879 340.675 72.056 345.427C70.5101 361.295 72.397 378.528 78.8079 395.761C64.372 400.489 49.3223 403.945 33.8407 406.014C24.77 407.878 -0.737105 398.171 -10.2398 387.349C-26.4943 370.253 -40.4528 349.246 -50.6602 325.011C-40.4528 300.799 -26.4943 279.792 -10.2398 262.673C-0.714371 251.852 24.77 242.144 33.8407 244.008C49.3223 246.1 64.372 249.533 78.8079 254.262C72.4197 271.494 70.5328 288.727 72.056 304.596C72.5106 309.347 72.2378 316.69 72.2378 325.011Z" stroke="#004B5D" stroke-opacity="0.5" stroke-width="1.2" stroke-miterlimit="10"></path><path d="M69.1461 325.011C69.1461 332.718 69.4416 339.72 69.0551 343.903C67.7138 358.181 69.4643 373.663 75.1932 389.122C62.235 393.396 48.7085 396.488 34.7955 398.398C26.7478 400.171 2.40012 390.827 -5.98859 381.12C-20.5609 365.683 -33.0871 346.791 -42.2715 325.011C-33.0871 303.232 -20.5608 284.362 -6.01131 268.925C2.40013 259.195 26.7478 249.874 34.7955 251.647C48.7085 253.534 62.235 256.649 75.1932 260.923C69.4416 276.382 67.7138 291.864 69.0551 306.142C69.4188 310.325 69.1233 317.327 69.1461 325.034V325.011Z" stroke="#004B5D" stroke-opacity="0.5" stroke-width="1.2" stroke-miterlimit="10"></path><path d="M66.0315 325.011C66.0088 332.127 66.3498 338.743 66.0542 342.38C64.9176 355.043 66.5089 368.775 71.5785 382.484C60.0753 386.28 48.072 389.054 35.7276 390.759C28.6574 392.419 5.58278 383.53 -1.76018 374.845C-14.6501 361.091 -25.7214 344.313 -33.8828 324.988C-25.7442 305.687 -14.6501 288.886 -1.76018 275.155C5.58278 266.47 28.6574 257.581 35.7276 259.24C48.072 260.946 60.0526 263.742 71.5785 267.516C66.4862 281.225 64.9176 294.956 66.0542 307.642C66.3498 311.302 65.986 317.895 66.0315 325.011Z" stroke="#004B5D" stroke-opacity="0.5" stroke-width="1.2" stroke-miterlimit="10"></path><path d="M62.9613 325.012C62.984 332.969 63.325 338.47 63.0977 340.858C62.1884 351.929 63.5751 363.91 68.0082 375.869C57.9599 379.188 47.4797 381.62 36.7267 383.144C30.725 384.69 8.71886 376.141 2.55804 368.594C-8.64964 356.522 -18.2887 341.835 -25.4043 324.989C-18.2887 308.143 -8.64964 293.456 2.55804 281.384C8.74159 273.836 30.7478 265.288 36.7494 266.834C47.5252 268.357 57.9826 270.813 68.0309 274.109C63.5978 286.068 62.1884 298.049 63.1204 309.12C63.325 311.507 62.984 317.009 62.984 324.989L62.9613 325.012Z" stroke="#004B5D" stroke-opacity="0.5" stroke-width="1.2" stroke-miterlimit="10"></path><path d="M59.848 325.011C59.8935 332.923 60.2572 337.811 60.0981 339.334C59.3933 348.814 60.621 359.022 64.3948 369.253C55.8015 372.094 46.8671 374.209 37.66 375.55C32.6359 377.005 11.9028 368.866 6.78773 362.387C-2.73767 351.997 -10.9445 339.402 -17.0371 325.011C-10.9445 310.621 -2.76039 298.048 6.76501 287.659C11.8801 281.157 32.6359 273.041 37.6373 274.473C46.8444 275.814 55.7787 277.928 64.372 280.77C60.5982 290.978 59.3479 301.208 60.0754 310.666C60.2345 312.189 59.8708 317.077 59.8253 325.011H59.848Z" stroke="#004B5D" stroke-opacity="0.5" stroke-width="1.2" stroke-miterlimit="10"></path><path d="M56.7564 325.012C56.8246 332.696 57.2565 337.038 57.1429 337.811C56.62 345.7 57.7112 354.157 60.8257 362.614C53.6873 364.979 46.2534 366.752 38.6377 367.911C34.6366 369.275 15.1083 361.523 11.0845 356.112C3.24139 347.405 -3.53321 336.947 -8.58008 324.989C-3.53321 313.053 3.24139 302.595 11.0845 293.888C15.0856 288.477 34.6365 280.725 38.6604 282.089C46.2762 283.248 53.7101 285.022 60.8257 287.363C57.6884 295.821 56.62 304.3 57.1429 312.167C57.2565 312.94 56.8246 317.305 56.7564 324.989V325.012Z" stroke="#004B5D" stroke-opacity="0.5" stroke-width="1.2" stroke-miterlimit="10"></path><path d="M53.6646 325.012C53.7782 332.65 54.2784 336.333 54.1874 336.402C53.8919 342.653 54.7785 349.337 57.2337 356.021C51.5731 357.908 45.6623 359.341 39.5924 360.318C36.5007 361.569 18.4047 354.316 15.3584 349.883C9.17484 342.858 3.85518 334.515 -0.191406 325.012C3.83245 315.531 9.17485 307.165 15.3357 300.163C18.382 295.73 36.4779 288.477 39.5924 289.728C45.6396 290.683 51.5276 292.115 57.211 294.002C54.7558 300.708 53.8464 307.438 54.1647 313.713C54.1647 313.713 53.7555 317.464 53.6418 324.989L53.6646 325.012Z" stroke="#004B5D" stroke-opacity="0.5" stroke-width="1.2" stroke-miterlimit="10"></path><path d="M50.5729 325.011C50.6411 331.059 51.2322 334.378 51.2322 335.083C51.1412 339.675 51.8687 344.517 53.6647 349.383C49.4362 350.792 45.0714 351.883 40.5701 352.656C37.9103 353.657 22.2013 347.268 19.6097 343.517C15.1312 338.22 11.2437 332.014 8.26562 325.011C11.2665 317.986 15.1766 311.734 19.7006 306.437C22.2241 302.777 37.933 296.366 40.661 297.389C45.1396 298.162 49.4817 299.253 53.6647 300.64C51.8687 305.505 51.1412 310.393 51.2322 314.985C51.2322 315.872 50.6411 319.169 50.5729 325.011Z" stroke="#004B5D" stroke-opacity="0.5" stroke-width="1.2" stroke-miterlimit="10"></path><path d="M47.4799 325.012C47.5481 330.059 48.2528 332.991 48.3437 333.878C48.4346 336.765 48.9803 339.766 50.0715 342.767C47.3662 343.677 44.5927 344.427 41.7283 344.972C39.2503 345.791 26.0193 340.289 23.7232 336.97C20.9724 333.469 18.5627 329.468 16.6758 325.034C18.5854 320.556 21.0179 316.509 23.7914 312.985C26.0193 309.734 39.273 304.278 41.7965 305.096C44.6154 305.642 47.3662 306.369 50.026 307.279C48.9348 310.302 48.3892 313.326 48.2983 316.213C48.1846 317.191 47.5026 320.078 47.4571 325.012H47.4799Z" stroke="#004B5D" stroke-opacity="0.5" stroke-width="1.2" stroke-miterlimit="10"></path><path d="M44.3888 325.011C44.457 329.194 45.3436 331.672 45.5936 332.673C45.7528 333.809 46.0483 334.992 46.4575 336.151C45.3435 336.538 44.1842 336.879 43.002 337.174C40.524 337.993 29.8847 333.423 27.8159 330.104C26.7929 328.535 25.8836 326.83 25.0879 325.011C25.8836 323.17 26.8384 321.419 27.8841 319.828C29.9301 316.554 40.6377 312.053 43.0929 312.894C44.2296 313.189 45.3663 313.508 46.4575 313.894C46.0483 315.076 45.7528 316.258 45.5936 317.395C45.3436 318.396 44.4342 320.896 44.3888 325.011Z" stroke="#004B5D" stroke-opacity="0.5" stroke-width="1.2" stroke-miterlimit="10"></path><path d="M41.4796 325.011C41.4796 326.739 42.0252 328.126 42.6163 329.103C40.2293 329.399 36.3645 327.739 34.3867 324.988C36.3645 322.26 40.2066 320.624 42.6163 320.919C42.0252 321.919 41.4796 323.283 41.4796 324.988V325.011Z" stroke="#004B5D" stroke-opacity="0.5" stroke-width="1.2" stroke-miterlimit="10"></path><path d="M-93.7184 337.038C-124.704 320.737 -152.758 272.154 -151.394 237.165C-150.893 203.587 -146.324 171.304 -138.254 141.044C-130.251 109.193 -103.698 78.411 -83.9884 71.2269C-65.0513 63.7018 -45.8414 57.4271 -26.5178 52.4255C-6.39852 47.7877 12.243 65.8161 19.6087 87.3911C26.7926 108.943 36.9545 128.268 49.1397 145.046C61.2113 162.688 77.0339 190.128 86.2865 209.407C94.7434 228.345 106.383 246.805 121.455 263.81C136.46 280.997 142.78 306.142 128.685 321.237C114.681 335.469 99.6538 348.973 83.6721 361.614C67.5994 375.095 27.6565 382.711 -3.92055 373.708C-34.1335 365.547 -64.392 353.384 -93.7184 337.015V337.038Z" stroke="#004B5D" stroke-opacity="0.5" stroke-width="1.2" stroke-miterlimit="10"></path><path d="M65.8032 178.352C72.4641 189.923 78.6477 200.768 82.6715 209.748C91.1057 228.686 102.904 247.146 118.272 263.992C131.753 278.974 137.141 300.913 124.797 314.19C110.861 328.467 95.8571 341.971 79.8753 354.589C64.6893 367.343 25.7693 374.663 -4.03452 366.07C-34.1793 357.885 -64.3696 345.518 -93.5368 328.785C-106.245 321.533 -119.43 308.029 -129.251 290.978C-139.118 273.927 -144.21 255.762 -144.142 241.121C-144.051 207.497 -139.686 175.169 -131.707 144.955C-124.227 114.854 -98.4473 84.7995 -79.8057 78.0246C-60.8686 70.4768 -41.6814 64.2476 -22.3578 59.3142C-4.69379 55.2675 11.629 70.886 17.858 90.0739C24.7917 111.808 34.8627 131.246 47.048 148.024C52.8223 156.004 59.0968 166.803 65.8032 178.329V178.352Z" stroke="#004B5D" stroke-opacity="0.5" stroke-width="1.2" stroke-miterlimit="10"></path><path d="M62.8933 180.034C69.3042 191.174 75.2604 201.541 79.0796 210.066C87.5138 229.004 99.4717 247.419 115.135 264.129C126.979 276.906 131.481 295.73 120.932 307.12C107.087 321.442 92.106 334.946 76.1015 347.541C61.8248 359.568 23.8596 366.593 -4.12547 358.431C-34.2021 350.224 -64.2786 337.629 -93.2867 320.465C-104.085 314.122 -115.27 302.459 -123.727 287.773C-132.229 273.109 -136.708 257.581 -136.822 245.055C-137.185 211.385 -133.048 179.011 -125.114 148.865C-118.203 120.538 -93.1276 91.1652 -75.5772 84.8223C-56.6856 77.2518 -37.4757 71.0453 -18.1748 66.2028C-3.03424 62.7699 11.0379 76.0696 16.1757 92.7112C22.8139 114.65 32.794 134.202 44.9792 150.98C50.458 158.55 56.4597 168.894 62.8933 180.011V180.034Z" stroke="#004B5D" stroke-opacity="0.5" stroke-width="1.2" stroke-miterlimit="10"></path><path d="M59.961 181.716C66.1218 192.424 71.828 202.314 75.4654 210.407C83.8995 229.345 96.0165 247.737 112.021 264.288C122.183 274.859 125.798 290.569 117.022 300.094C103.269 314.463 88.3326 327.99 72.3054 340.539C58.9152 351.838 21.9731 358.567 -4.23874 350.815C-34.2244 342.562 -64.2328 329.74 -93.0136 312.144C-101.902 306.733 -111.132 296.934 -118.225 284.635C-125.341 272.336 -129.206 259.445 -129.456 249.056C-130.297 215.318 -126.409 182.921 -118.566 152.821C-112.178 126.244 -87.8758 97.5989 -71.3939 91.6652C-52.5023 84.0719 -33.3151 77.8881 -14.0142 73.1593C-1.39704 70.3175 10.4017 81.321 14.4937 95.3936C20.8137 117.537 30.7029 137.225 42.8653 154.003C48.0486 161.187 53.7547 171.077 59.961 181.762V181.716Z" stroke="#004B5D" stroke-opacity="0.5" stroke-width="1.2" stroke-miterlimit="10"></path><path d="M57.0509 183.399C62.9617 193.698 68.4405 203.11 71.8506 210.726C80.2847 229.641 92.5836 248.033 108.975 264.379C117.341 272.768 120.137 285.385 113.135 293.001C99.4719 307.415 84.5586 320.965 68.5314 333.491C56.0052 344.086 20.1543 350.497 -4.35257 343.154C-34.2473 334.878 -64.1647 321.761 -92.7182 303.687C-99.7201 299.276 -107.018 291.342 -112.747 281.43C-118.498 271.495 -121.704 261.219 -122.022 252.943C-123.409 219.183 -119.794 186.718 -112.019 156.686C-106.131 131.792 -82.67 103.942 -67.2111 98.4175C-48.3422 90.8015 -29.155 84.6405 -9.85411 80.0254C0.262359 77.7747 9.76499 86.5047 12.8568 97.9401C18.813 120.311 28.5884 140.158 40.7509 156.913C45.6387 163.688 51.072 173.123 57.0282 183.399H57.0509Z" stroke="#004B5D" stroke-opacity="0.5" stroke-width="1.2" stroke-miterlimit="10"></path><path d="M54.141 185.081C59.8017 194.948 65.0304 203.882 68.2358 211.044C76.67 229.959 89.1735 248.305 105.974 264.447C112.475 270.699 114.499 280.202 109.247 285.954C95.6981 300.413 80.8076 313.985 64.7804 326.466C53.0953 336.378 18.4037 342.471 -4.42083 335.537C-34.2246 327.216 -64.0284 313.826 -92.3318 295.206C-97.4696 291.842 -102.857 285.817 -107.222 278.269C-111.587 270.721 -114.111 263.014 -114.452 256.899C-116.429 223.07 -113.11 190.583 -105.426 160.619C-100.038 137.384 -77.4185 110.398 -62.9827 105.238C-44.1592 97.576 -24.972 91.4832 -5.67119 86.9591C1.92185 85.2767 9.15114 91.7788 11.3108 100.532C16.8806 123.152 26.5196 143.159 38.6821 159.914C43.2743 166.279 48.4121 175.26 54.1183 185.104L54.141 185.081Z" stroke="#004B5D" stroke-opacity="0.5" stroke-width="1.2" stroke-miterlimit="10"></path><path d="M51.232 186.764C56.6426 196.198 61.644 204.678 64.6448 211.362C73.079 230.277 85.7871 248.579 103.087 264.47C107.498 268.539 108.816 275.064 105.361 278.861C91.9252 293.388 77.0801 306.961 61.0302 319.396C50.1408 328.626 16.6996 334.424 -4.48813 327.853C-34.1555 319.487 -63.8457 305.778 -91.8535 286.568C-95.1499 284.294 -98.7191 280.202 -101.697 275.019C-104.675 269.835 -106.471 264.72 -106.767 260.719C-109.404 226.867 -106.426 194.289 -98.8327 164.416C-93.8995 142.795 -72.1889 116.719 -58.7533 111.899C-39.9299 104.192 -20.7881 98.1448 -1.46455 93.7798C3.55958 92.6885 8.53823 97.099 9.85678 102.965C14.9719 125.881 24.4745 146.046 36.637 162.802C40.9337 168.758 45.7759 177.306 51.232 186.718V186.764Z" stroke="#004B5D" stroke-opacity="0.5" stroke-width="1.2" stroke-miterlimit="10"></path><path d="M48.2992 188.446C53.4825 197.448 58.2338 205.451 61.0301 211.703C69.4415 230.618 82.4224 248.874 100.223 264.47C102.473 266.447 103.133 269.926 101.45 271.813C88.1513 286.408 73.3744 300.003 57.279 312.394C47.1853 320.987 15.0399 326.421 -4.55646 320.26C-34.1102 311.825 -63.6639 297.775 -91.308 277.906C-92.8084 276.837 -94.6044 274.655 -96.1958 271.881C-97.7871 269.13 -98.7874 266.47 -98.9692 264.651C-102.357 230.777 -99.7422 198.13 -92.2628 168.326C-87.807 148.274 -67.0058 123.152 -54.5477 118.696C-35.7697 110.967 -16.6053 104.942 2.69554 100.736C5.15077 100.213 7.85608 102.509 8.42442 105.465C13.0393 128.677 22.3829 149.047 34.5226 165.802C38.5237 171.349 43.0932 179.466 48.2765 188.446H48.2992Z" stroke="#004B5D" stroke-opacity="0.5" stroke-width="1.2" stroke-miterlimit="10"></path><path d="M45.3897 190.128C50.3457 198.722 54.8469 206.224 57.4385 212.021C65.85 230.891 79.0582 249.101 97.4043 264.333C97.4725 264.447 97.5179 264.674 97.4725 264.811C84.3324 279.474 69.6238 293.047 53.5511 305.369C44.2076 313.303 13.449 318.418 -4.60152 312.644C-33.8597 304.209 -63.1179 289.887 -90.2391 269.448C-90.3528 269.289 -90.5119 269.039 -90.6938 268.721C-90.8756 268.403 -91.0121 268.13 -91.103 267.948C-95.2405 234.255 -93.0126 201.745 -85.6924 172.213C-81.6685 153.707 -61.8675 129.586 -50.3189 125.471C-31.6091 117.696 -12.4901 111.74 6.76529 107.693C6.87896 107.738 7.0381 107.897 7.12904 108.011C11.1529 131.519 20.3145 152.048 32.4315 168.78C36.1599 173.918 40.4111 181.58 45.367 190.151L45.3897 190.128Z" stroke="#004B5D" stroke-opacity="0.5" stroke-width="1.2" stroke-miterlimit="10"></path><path d="M42.683 191.697C47.3889 199.859 51.6628 206.884 54.0498 212.226C61.8929 229.709 74.1691 246.578 91.2193 260.673C79.0341 274.268 65.4167 286.886 50.5034 298.299C41.9556 305.665 12.5382 310.507 -4.10279 305.096C-31.3149 297.185 -58.5271 283.771 -83.716 264.674C-87.6489 233.301 -85.6711 203.041 -78.9192 175.51C-75.2818 158.414 -56.3901 135.338 -45.7281 131.61C-28.3823 124.403 -10.6501 118.924 7.21855 115.173C10.9014 136.975 19.3583 156.049 30.5887 171.577C33.9988 176.328 37.9544 183.535 42.683 191.697Z" stroke="#004B5D" stroke-opacity="0.5" stroke-width="1.2" stroke-miterlimit="10"></path><path d="M40.0013 193.243C44.4571 200.972 48.5037 207.52 50.7089 212.385C57.9155 228.39 69.1914 243.804 84.7866 256.717C73.6244 269.176 61.1664 280.725 47.5262 291.228C39.7285 298.026 11.7435 302.595 -3.53354 297.571C-28.4496 290.273 -53.3657 277.974 -76.4403 260.468C-80.055 231.732 -78.2363 204.019 -72.0982 178.806C-68.8245 163.074 -50.865 141.113 -41.0668 137.748C-25.176 131.178 -8.94416 126.153 7.42405 122.743C10.8114 142.704 18.5181 160.164 28.7709 174.419C31.8627 178.761 35.5228 185.536 40.0013 193.265V193.243Z" stroke="#004B5D" stroke-opacity="0.5" stroke-width="1.2" stroke-miterlimit="10"></path><path d="M37.3412 194.789C41.4787 201.996 45.4116 208.225 47.3895 212.567C53.9822 227.072 64.2351 241.053 78.3982 252.784C68.2817 264.106 56.9603 274.609 44.5932 284.158C37.6595 290.319 10.7201 294.661 -2.92005 290.023C-25.54 283.339 -48.1372 272.131 -69.0976 256.263C-72.3713 230.186 -70.78 204.997 -65.2557 182.08C-62.4367 167.939 -45.2046 146.774 -36.4067 143.864C-21.9709 137.93 -7.19398 133.383 7.65108 130.269C10.7201 148.388 17.6993 164.257 26.9747 177.215C29.7254 181.103 33.1809 187.605 37.3412 194.812V194.789Z" stroke="#004B5D" stroke-opacity="0.5" stroke-width="1.2" stroke-miterlimit="10"></path><path d="M34.6587 196.335C38.4779 203.019 42.2517 208.929 44.0249 212.749C50.0039 225.776 59.2337 238.325 71.9645 248.828C62.8711 259.013 52.7092 268.471 41.6151 277.065C35.5225 282.612 9.78807 286.704 -2.35169 282.475C-22.6756 276.405 -42.9767 266.288 -61.8002 252.034C-64.7328 228.595 -63.346 205.974 -58.4356 185.331C-56.0258 172.714 -39.5894 152.457 -31.7463 149.956C-18.7427 144.637 -5.48893 140.567 7.87845 137.793C10.6292 154.071 16.881 168.326 25.1787 180.034C27.6112 183.467 30.8394 189.696 34.7041 196.357L34.6587 196.335Z" stroke="#004B5D" stroke-opacity="0.5" stroke-width="1.2" stroke-miterlimit="10"></path><path d="M31.9752 197.88C35.499 204.064 39.1136 209.611 40.6822 212.908C46.0474 224.457 54.277 235.551 65.5301 244.895C57.4597 253.921 48.4571 262.332 38.6135 269.994C33.3165 274.95 8.90061 278.792 -1.80693 274.95C-19.8347 269.494 -37.8397 260.491 -54.549 247.828C-57.1406 227.026 -55.9357 206.951 -51.6618 188.605C-49.6612 177.419 -34.1114 158.163 -27.1549 156.072C-15.629 151.388 -3.85294 147.796 8.01401 145.318C10.4692 159.732 15.9708 172.418 23.2683 182.83C25.3597 185.854 28.3378 191.742 31.9298 197.903L31.9752 197.88Z" stroke="#004B5D" stroke-opacity="0.5" stroke-width="1.2" stroke-miterlimit="10"></path><path d="M29.3159 199.426C33.317 206.315 36.3633 210.907 37.3636 213.09C42.1149 223.138 49.3215 232.8 59.1424 240.962C52.095 248.851 44.2519 256.194 35.6813 262.924C31.271 267.266 7.94626 270.858 -1.19266 267.425C-16.9243 262.583 -32.6333 254.671 -47.2283 243.645C-49.5016 225.48 -48.4786 207.952 -44.7958 191.901C-43.2272 182.262 -28.4275 163.87 -22.4713 162.21C-12.3776 158.141 -2.10199 155.026 8.26454 152.866C10.4015 165.438 15.1756 176.51 21.5183 185.649C22.905 187.604 25.3602 192.538 29.3386 199.449L29.3159 199.426Z" stroke="#004B5D" stroke-opacity="0.5" stroke-width="1.2" stroke-miterlimit="10"></path><path d="M26.633 200.972C30.6341 207.815 33.3849 211.862 34.0214 213.249C38.1362 221.82 44.3197 230.049 52.7084 237.006C46.684 243.758 40.0004 250.056 32.7029 255.83C29.0882 259.604 7.05931 262.923 -0.601923 259.854C-14.0602 255.626 -27.4503 248.828 -39.9084 239.393C-41.8407 223.888 -41.0223 208.906 -37.9533 195.129C-36.7711 186.945 -22.8809 169.53 -17.7885 168.28C-9.1725 164.847 -0.374587 162.187 8.49153 160.346C10.333 171.076 14.3568 180.557 19.7219 188.4C20.6313 189.65 22.7455 194.061 26.6784 200.949L26.633 200.972Z" stroke="#004B5D" stroke-opacity="0.5" stroke-width="1.2" stroke-miterlimit="10"></path><path d="M23.9507 202.518C27.8382 209.134 30.3844 212.703 30.6799 213.431C34.1809 220.501 39.3414 227.299 46.2752 233.073C41.2738 238.689 35.7495 243.94 29.7023 248.737C26.9288 251.92 6.12756 254.966 -0.0559862 252.306C-11.1955 248.692 -22.3122 243.008 -32.656 235.187C-34.2474 222.32 -33.6108 209.884 -31.1783 198.403C-30.4054 191.696 -17.3563 175.214 -13.2188 174.396C-6.03495 171.577 1.26254 169.394 8.62824 167.894C10.1741 176.783 13.4705 184.649 17.8354 191.219C18.3128 191.833 20.1315 195.834 23.928 202.495L23.9507 202.518Z" stroke="#004B5D" stroke-opacity="0.5" stroke-width="1.2" stroke-miterlimit="10"></path><path d="M21.2684 204.064C25.1786 210.612 27.4747 213.567 27.4065 213.658C30.2709 219.228 34.3857 224.571 39.8645 229.118C35.8861 233.596 31.4986 237.779 26.7245 241.644C24.6785 244.281 5.37761 247.032 0.535344 244.736C-8.33077 241.735 -17.1287 237.166 -25.3583 230.982C-26.6086 220.751 -26.1539 210.862 -24.3125 201.7C-23.9033 196.357 -11.8545 181.012 -8.51263 180.557C-2.80649 178.352 3.03604 176.669 8.87858 175.464C10.1062 182.512 12.6524 188.787 16.0852 194.061C16.1761 194.061 17.6083 197.494 21.2912 204.087L21.2684 204.064Z" stroke="#004B5D" stroke-opacity="0.5" stroke-width="1.2" stroke-miterlimit="10"></path><path d="M18.5861 205.61C21.6778 210.816 23.8375 213.408 24.1785 214.022C26.3837 218.046 29.4527 221.865 33.4311 225.184C30.4985 228.504 27.2476 231.664 23.7466 234.551C21.9279 236.733 5.15049 239.075 1.01297 237.12C-5.51159 234.778 -11.9907 231.323 -18.0605 226.753C-18.9699 219.16 -18.7198 211.817 -17.4695 204.951C-17.1285 200.518 -6.69375 187.104 -3.82931 186.627C0.421881 185.058 4.71853 183.83 9.06066 182.944C9.94727 188.059 11.7432 192.651 14.1303 196.585C14.5395 197.357 15.6989 200.495 18.5861 205.587V205.61Z" stroke="#004B5D" stroke-opacity="0.5" stroke-width="1.2" stroke-miterlimit="10"></path><path d="M15.9043 207.156C18.4732 211.498 20.5419 213.681 21.0648 214.408C22.588 216.864 24.5431 219.183 26.9983 221.251C25.1114 223.388 23.0654 225.435 20.8829 227.321C19.1552 229.254 4.94668 231.118 1.28656 229.39C-2.85096 227.731 -6.92027 225.457 -10.785 222.57C-11.3533 217.728 -11.2851 213.022 -10.6486 208.566C-10.3303 204.633 -1.6006 193.265 1.01377 192.72C3.71907 191.788 6.46983 191.037 9.24333 190.492C9.78894 193.652 10.8347 196.539 12.2214 199.085C12.6079 199.995 13.4718 202.836 15.9043 207.133V207.156Z" stroke="#004B5D" stroke-opacity="0.5" stroke-width="1.2" stroke-miterlimit="10"></path><path d="M13.2436 208.702C15.3806 212.294 17.4039 213.976 18.1086 214.726C18.8133 215.636 19.6545 216.5 20.6093 217.295C19.8136 218.205 18.9952 219.069 18.1313 219.91C16.4036 221.842 4.90036 223.229 1.44485 221.388C-0.23744 220.524 -1.87427 219.523 -3.46562 218.341C-3.69296 216.341 -3.73843 214.363 -3.6475 212.453C-3.5111 208.565 3.49087 199.358 6.05977 198.835C7.19645 198.517 8.33314 198.244 9.46982 198.017C9.69715 199.244 10.0382 200.404 10.4701 201.495C10.7429 202.495 11.2203 205.11 13.2436 208.702Z" stroke="#004B5D" stroke-opacity="0.5" stroke-width="1.2" stroke-miterlimit="10"></path><path d="M10.6967 210.157C11.5605 211.658 12.72 212.567 13.743 213.135C11.8106 214.59 7.65037 215.091 4.55859 213.681C4.8996 210.339 7.42304 206.997 9.65094 206.065C9.62821 207.224 9.85552 208.679 10.6967 210.18V210.157Z" stroke="#004B5D" stroke-opacity="0.5" stroke-width="1.2" stroke-miterlimit="10"></path><path d="M-100.356 288.181C-135.343 289.568 -183.925 261.514 -200.225 230.527C-216.593 201.199 -228.755 170.94 -236.917 140.726C-245.919 109.148 -238.303 69.2033 -224.822 53.1301C-212.16 37.1478 -198.679 22.1203 -184.447 8.11591C-169.33 -5.95669 -144.186 0.340742 -127.022 15.3455C-110.04 30.4184 -91.5578 42.0811 -72.6206 50.5156C-53.3425 59.7685 -25.9258 75.6144 -8.26174 87.6637C8.51568 99.8493 27.862 110.012 49.3908 117.196C70.9877 124.562 89.0155 143.181 84.3551 163.301C79.3537 182.625 73.0792 201.836 65.5771 220.774C58.3933 240.484 27.6119 267.038 -4.23788 275.041C-34.4963 283.089 -66.7781 287.681 -100.356 288.159V288.181Z" stroke="#004B5D" stroke-opacity="0.5" stroke-width="1.2" stroke-miterlimit="10"></path><path d="M-41.5454 70.9768C-29.9967 77.6607 -19.2209 83.9581 -11.2414 89.7327C5.53599 101.918 24.996 111.99 46.7066 118.924C65.8938 125.153 81.5118 141.476 77.4652 159.141C72.532 178.465 66.303 197.676 58.7554 216.591C51.9808 235.233 21.9269 261.014 -8.17242 268.493C-38.3854 276.496 -70.6899 280.861 -104.336 280.952C-118.976 281.02 -137.118 275.928 -154.168 266.061C-171.241 256.24 -184.745 243.054 -191.997 230.345C-208.729 201.177 -221.118 171.008 -229.28 140.84C-237.873 111.035 -230.553 72.1135 -217.799 56.9269C-205.182 40.9219 -191.656 25.9171 -177.402 12.0037C-164.125 -0.318387 -142.187 5.04694 -127.206 18.5285C-110.337 33.8742 -91.9004 45.6734 -72.9633 54.1306C-63.9607 58.1546 -53.1168 64.3611 -41.5681 70.9995L-41.5454 70.9768Z" stroke="#004B5D" stroke-opacity="0.5" stroke-width="1.2" stroke-miterlimit="10"></path><path d="M-43.2274 73.9098C-32.1107 80.3437 -21.7896 86.3683 -14.1966 91.8246C2.58083 104.01 22.1318 113.991 44.0697 120.629C60.7107 125.767 74.0099 139.817 70.5771 154.958C65.7349 174.282 59.5286 193.47 51.9583 212.385C45.6156 229.936 16.2437 255.012 -12.0824 261.924C-42.2272 269.858 -74.5999 273.996 -108.268 273.632C-120.795 273.541 -136.299 269.039 -150.962 260.537C-165.648 252.08 -177.31 240.871 -183.676 230.095C-200.817 201.109 -213.411 171.009 -221.618 140.931C-229.78 112.945 -222.778 74.9556 -210.729 60.7011C-198.134 44.6961 -184.631 29.7141 -170.308 15.8688C-158.919 5.32006 -140.095 9.79874 -127.319 21.6661C-110.61 37.3301 -92.1729 49.2884 -73.2586 57.7229C-64.7334 61.5423 -54.3669 67.4987 -43.2047 73.9098H-43.2274Z" stroke="#004B5D" stroke-opacity="0.5" stroke-width="1.2" stroke-miterlimit="10"></path><path d="M-44.909 76.8195C-34.2242 83.0033 -24.3351 88.7324 -17.1512 93.9158C-0.373816 106.101 19.3135 115.968 41.4561 122.288C55.5509 126.358 66.5313 138.18 63.7123 150.797C58.9837 170.122 52.8002 189.309 45.2071 208.202C39.2737 224.684 10.6293 248.987 -15.9464 255.376C-46.0457 263.219 -78.4411 267.107 -112.178 266.266C-122.59 266.038 -135.48 262.151 -147.779 255.035C-160.1 247.942 -169.899 238.711 -175.286 229.822C-192.882 201.04 -205.704 171.031 -213.956 141.022C-221.708 114.809 -214.979 77.8653 -203.681 64.4748C-191.109 48.447 -177.605 33.5105 -163.238 19.7561C-153.712 10.9806 -138.003 14.5954 -127.432 24.7577C-110.882 40.7627 -92.4905 52.8802 -73.5534 61.3147C-65.4829 64.9294 -55.5938 70.6358 -44.8635 76.7968L-44.909 76.8195Z" stroke="#004B5D" stroke-opacity="0.5" stroke-width="1.2" stroke-miterlimit="10"></path><path d="M-46.6147 79.7296C-36.3391 85.686 -26.9046 91.0968 -20.13 96.0074C-3.35258 108.17 16.4711 117.946 38.841 123.903C50.2988 126.994 59.0285 136.52 56.7779 146.614C52.1402 165.939 46.0021 185.104 38.3864 203.973C32.8394 219.41 4.99067 242.895 -19.9027 248.783C-49.9338 256.558 -82.3747 260.173 -116.157 258.786C-124.432 258.468 -134.707 255.262 -144.642 249.51C-154.577 243.781 -162.488 236.483 -166.898 229.481C-184.972 200.927 -198.066 171.008 -206.364 141.113C-213.707 116.605 -207.296 80.7753 -196.702 68.2487C-184.176 52.2209 -170.649 37.3071 -156.213 23.6437C-148.575 16.6415 -135.981 19.4379 -127.592 27.8041C-111.224 44.1957 -92.8549 56.495 -73.9405 64.9294C-66.3247 68.3396 -56.8903 73.8186 -46.6147 79.7296Z" stroke="#004B5D" stroke-opacity="0.5" stroke-width="1.2" stroke-miterlimit="10"></path><path d="M-48.2955 82.64C-38.4519 88.3463 -29.4494 93.4843 -23.0839 98.0767C-6.30652 110.24 13.6764 119.879 36.2963 125.449C45.0488 127.609 51.5506 134.838 49.8683 142.432C45.367 161.733 39.2517 180.921 31.5904 199.745C26.4072 214.181 -0.577629 236.802 -23.8114 242.19C-53.7743 249.874 -86.2607 253.194 -120.088 251.216C-126.226 250.852 -133.91 248.351 -141.458 243.986C-149.028 239.621 -155.03 234.21 -158.417 229.095C-177.036 200.791 -190.403 170.986 -198.747 141.204C-205.68 118.378 -199.588 83.7085 -189.676 72.023C-177.195 55.9725 -163.646 41.1042 -149.165 27.5317C-143.413 22.2801 -133.933 24.3034 -127.659 30.8055C-111.518 47.6062 -93.1944 60.1102 -74.2573 68.5446C-67.0962 71.7502 -58.1619 76.9791 -48.2955 82.6627V82.64Z" stroke="#004B5D" stroke-opacity="0.5" stroke-width="1.2" stroke-miterlimit="10"></path><path d="M-49.9562 85.5723C-40.5445 91.0285 -31.9967 95.871 -26.0404 100.168C-9.28575 112.331 10.879 121.834 33.7945 126.949C39.6598 128.268 44.0701 133.269 42.9789 138.271C38.5913 157.572 32.5441 176.737 24.8602 195.561C20.0406 208.997 -6.03482 230.732 -27.6545 235.642C-57.5265 243.236 -90.1038 246.214 -123.954 243.577C-127.933 243.281 -133.07 241.508 -138.231 238.507C-143.414 235.529 -147.506 231.959 -149.78 228.663C-168.989 200.677 -182.675 170.963 -191.064 141.294C-197.611 120.106 -191.837 86.6635 -182.607 75.7738C-170.172 59.7005 -156.6 44.8777 -142.073 31.4416C-138.276 27.986 -131.752 29.3046 -127.682 33.7378C-111.792 51.016 -93.4911 63.7245 -74.5767 72.159C-67.8703 75.1599 -59.4134 80.1388 -49.9562 85.5723Z" stroke="#004B5D" stroke-opacity="0.5" stroke-width="1.2" stroke-miterlimit="10"></path><path d="M-51.6608 88.4826C-42.6583 93.6888 -34.5652 98.2357 -29.0181 102.26C-12.2635 114.423 8.08316 123.766 31.3169 128.359C34.2723 128.95 36.5684 131.633 36.0455 134.111C31.8171 153.412 25.8154 172.577 18.0859 191.356C13.6529 203.837 -11.4905 224.616 -31.5188 229.072C-61.3226 236.552 -93.9454 239.166 -127.841 235.779C-129.66 235.597 -132.32 234.597 -135.071 233.005C-137.844 231.414 -140.026 229.618 -141.095 228.14C-160.964 200.495 -175.014 170.918 -183.448 141.363C-189.609 121.766 -184.175 89.6193 -175.582 79.5252C-163.192 63.4293 -149.597 48.6519 -135.002 35.3522C-133.115 33.6699 -129.66 34.3065 -127.659 36.5799C-112.064 54.381 -93.809 67.3396 -74.8946 75.7741C-68.6429 78.5704 -60.6634 83.3219 -51.6381 88.5053L-51.6608 88.4826Z" stroke="#004B5D" stroke-opacity="0.5" stroke-width="1.2" stroke-miterlimit="10"></path><path d="M-53.3427 91.3927C-44.7721 96.3488 -37.1109 100.623 -31.9731 104.329C-15.2639 116.469 5.28733 125.631 28.7939 129.632C28.9303 129.7 29.0667 129.882 29.1122 129.996C25.0656 149.252 19.1094 168.372 11.3345 187.082C7.21967 198.631 -16.878 218.433 -35.4059 222.457C-64.9596 229.777 -97.446 232.005 -131.16 227.868C-131.342 227.777 -131.592 227.663 -131.91 227.458C-132.228 227.276 -132.478 227.117 -132.638 227.004C-153.075 199.881 -167.397 170.622 -175.832 141.386C-181.606 123.335 -176.514 92.5522 -168.557 83.2083C-156.235 67.1124 -142.663 52.4032 -128 39.2627C-127.886 39.2627 -127.636 39.2627 -127.523 39.3536C-112.291 57.7003 -94.1041 70.909 -75.2125 79.3208C-69.4381 81.9125 -61.9133 86.4139 -53.32 91.37L-53.3427 91.3927Z" stroke="#004B5D" stroke-opacity="0.5" stroke-width="1.2" stroke-miterlimit="10"></path><path d="M-54.8892 94.0978C-46.7506 98.8038 -39.5213 102.76 -34.7927 106.193C-19.2656 117.423 -0.192093 125.881 21.6095 129.564C17.8584 147.433 12.3796 165.166 5.17305 182.512C1.44474 193.174 -21.6072 212.067 -38.7256 215.704C-66.2333 222.479 -96.5145 224.457 -127.887 220.524C-146.983 195.311 -160.396 168.121 -168.307 140.908C-173.695 124.289 -168.876 94.8708 -161.51 86.2999C-150.075 71.3861 -137.48 57.7682 -123.886 45.5825C-109.791 62.6333 -92.9226 74.9099 -75.4631 82.7533C-70.1435 85.1404 -63.096 89.4145 -54.9347 94.1205L-54.8892 94.0978Z" stroke="#004B5D" stroke-opacity="0.5" stroke-width="1.2" stroke-miterlimit="10"></path><path d="M-56.4352 96.7805C-48.7058 101.259 -41.9311 104.897 -37.589 108.011C-23.335 118.264 -5.87562 125.971 14.0845 129.359C10.6517 145.728 5.62759 161.96 -0.919699 177.874C-4.28428 187.673 -26.245 205.633 -41.9539 208.884C-67.1882 215.022 -94.9005 216.818 -123.636 213.203C-141.118 190.128 -153.44 165.234 -160.714 140.317C-165.761 125.062 -161.192 97.076 -154.372 89.2554C-143.891 75.6147 -132.343 63.1563 -119.862 51.9937C-106.949 67.5895 -91.5359 78.8657 -75.5542 86.0726C-70.6892 88.2778 -64.1192 92.3245 -56.3897 96.7805H-56.4352Z" stroke="#004B5D" stroke-opacity="0.5" stroke-width="1.2" stroke-miterlimit="10"></path><path d="M-57.9806 99.4632C-50.7968 103.624 -44.295 107.079 -40.4076 109.83C-27.4494 119.106 -11.5586 126.085 6.53737 129.154C3.42286 144.023 -1.12385 158.777 -7.05733 173.214C-9.96724 182.012 -31.1322 199.245 -45.2726 202.064C-68.2108 207.588 -93.3769 209.18 -119.475 205.906C-135.366 184.945 -146.551 162.347 -153.235 139.726C-157.872 126.062 -153.507 99.1221 -147.347 92.2109C-137.798 79.8434 -127.295 68.5216 -115.997 58.4048C-104.289 72.5683 -90.3079 82.8216 -75.7811 89.4145C-71.4617 91.4152 -65.21 95.3028 -58.0034 99.4632H-57.9806Z" stroke="#004B5D" stroke-opacity="0.5" stroke-width="1.2" stroke-miterlimit="10"></path></g><defs><clipPath id="clip0_526_2205"><rect width="204" height="650" fill="white"></rect></clipPath></defs></svg>