<svg xmlns="http://www.w3.org/2000/svg" width="246" height="44" viewBox="0 0 246 44" fill="none"><path d="M13.1873 30.1864C12.5706 29.913 12.0354 29.4831 11.6345 28.9389C10.9668 28.1047 10.3922 27.3796 9.90312 26.6C9.41399 25.8203 8.87051 24.9705 8.14846 23.8088C7.94413 23.4243 7.63066 23.1096 7.24784 22.9044C6.75518 22.6853 6.2311 22.5458 5.69504 22.4911C5.46989 22.4911 5.35343 22.6549 5.35343 22.9823V27.4576C5.33178 27.927 5.4777 28.3887 5.76492 28.7596C6.11482 29.1253 6.58247 29.3546 7.08479 29.4067C7.27069 29.4455 7.45077 29.5084 7.62051 29.5939C7.67219 29.62 7.71558 29.6602 7.74576 29.7098C7.77594 29.7593 7.79172 29.8164 7.79131 29.8745C7.79131 30.0695 7.58169 30.1708 7.15467 30.1708L5.52423 30.0928C5.11179 30.0462 4.69706 30.0227 4.282 30.0227C3.71523 30.0227 3.17951 30.0227 2.65933 30.1006H1.88293C1.51802 30.1006 1.26181 30.1864 0.96678 30.1864C0.547525 30.1864 0.337898 30.085 0.337898 29.8901C0.337495 29.832 0.353275 29.7749 0.383455 29.7253C0.413636 29.6757 0.457018 29.6356 0.508706 29.6095C0.675813 29.5146 0.856516 29.4462 1.04442 29.4067C1.53272 29.3582 1.99656 29.1687 2.37982 28.861C2.52491 28.6961 2.63488 28.5031 2.70297 28.2939C2.77107 28.0848 2.79584 27.8638 2.77579 27.6447V17.0413C2.78364 16.6095 2.74459 16.1782 2.65933 15.7549C2.63675 15.6363 2.59077 15.5235 2.5241 15.4231C2.45743 15.3227 2.37142 15.2367 2.27113 15.1701C1.96732 15.011 1.63451 14.9156 1.29287 14.8895C1.09877 14.8877 0.909591 14.828 0.749389 14.7179C0.695276 14.6833 0.650148 14.6363 0.617743 14.5807C0.585339 14.5251 0.566592 14.4626 0.563053 14.3983C0.563053 14.2969 0.625165 14.2267 0.749389 14.1644C0.891918 14.1046 1.04529 14.0754 1.1997 14.0786C1.71989 14.0786 2.23231 14.0786 2.75249 14.1254H3.91709C4.30085 14.1299 4.68454 14.1117 5.06616 14.0708C5.68015 14.0085 6.29687 13.9773 6.91398 13.9773C8.37914 13.8849 9.83855 14.2323 11.1065 14.9752C11.5799 15.3084 11.9605 15.7577 12.2119 16.2805C12.4633 16.8032 12.5773 17.3818 12.5429 17.9613C12.574 18.8608 12.2694 19.7394 11.6888 20.425C11.1069 21.0869 10.3926 21.6183 9.59256 21.9844C9.56942 21.993 9.54989 22.0093 9.53719 22.0305C9.52449 22.0518 9.51937 22.0768 9.52268 22.1013L9.56926 22.2962C10.5475 23.7828 11.355 24.9445 11.9916 25.7813C12.6922 26.686 13.4716 27.5262 14.3208 28.2918C14.6765 28.6487 15.1219 28.902 15.6096 29.0247C16.1798 29.1365 16.7603 29.1862 17.341 29.1728C17.5817 29.1728 17.7059 29.2898 17.7059 29.5159C17.7059 29.8901 17.473 30.163 16.9994 30.2956C16.4825 30.4738 15.9387 30.5609 15.3922 30.5528C14.6405 30.576 13.8915 30.4515 13.1873 30.1864ZM8.94815 20.9084C9.55985 20.2343 9.88815 19.3486 9.8643 18.4369C9.92661 17.4968 9.67826 16.5622 9.15777 15.7783C8.82754 15.4411 8.42527 15.1837 7.98139 15.0257C7.53751 14.8677 7.06365 14.8131 6.59566 14.8661C6.41582 14.843 6.23321 14.8744 6.07133 14.9564C5.90944 15.0384 5.77569 15.1671 5.68728 15.3261C5.48325 15.9066 5.38591 16.5194 5.40001 17.1349C5.40001 18.1796 5.35343 19.4739 5.35343 21.0332C5.33557 21.1656 5.3519 21.3004 5.40085 21.4246C5.44979 21.5489 5.52971 21.6584 5.63293 21.7427C5.91061 21.8769 6.21837 21.936 6.52579 21.9142C6.97816 21.934 7.42937 21.8543 7.84781 21.6805C8.26626 21.5068 8.64181 21.2433 8.94815 20.9084Z" fill="white"></path><path d="M22.7599 29.4068C21.5171 28.744 20.4741 27.7586 19.7397 26.5532C18.9793 25.3002 18.5863 23.8571 18.6062 22.3898C18.5955 20.9275 18.9336 19.4839 19.5922 18.1796C20.2502 16.89 21.253 15.8101 22.4882 15.061C23.7866 14.2862 25.2609 13.8579 26.7708 13.817C28.2806 13.776 29.7758 14.1238 31.1139 14.8271C32.3614 15.4975 33.405 16.4943 34.1341 17.7118C34.896 18.9671 35.289 20.4131 35.2677 21.883C35.2783 23.3453 34.9402 24.7889 34.2816 26.0932C33.6237 27.3828 32.6208 28.4627 31.3857 29.2118C30.0016 30.0283 28.4174 30.4389 26.8127 30.3969C25.4007 30.4109 24.0077 30.0706 22.7599 29.4068ZM31.0053 27.7071C31.9461 26.366 32.4085 24.7451 32.3174 23.1071C32.3368 21.7107 32.1189 20.3211 31.673 18.9983C31.306 17.8536 30.6413 16.8281 29.7475 16.0278C28.8868 15.2805 27.7793 14.8829 26.6419 14.9129C25.9214 14.8643 25.1999 14.9914 24.5388 15.2832C23.8777 15.5751 23.2967 16.0231 22.8453 16.5891C21.9206 17.9138 21.4642 19.5112 21.5487 21.1268C21.5318 22.5294 21.7442 23.9254 22.1776 25.259C22.5406 26.4147 23.2023 27.4532 24.0953 28.2684C24.9545 29.0192 26.0624 29.4197 27.2009 29.3912C27.9227 29.4342 28.6442 29.3039 29.3058 29.011C29.9674 28.7182 30.55 28.2712 31.0053 27.7071Z" fill="white"></path><path d="M38.8935 30.124C38.8455 30.1107 38.8031 30.0823 38.7723 30.043C38.7416 30.0037 38.7242 29.9556 38.7227 29.9057C38.7227 29.6952 38.9633 29.5392 39.4292 29.4457C39.9263 29.3739 40.3968 29.1753 40.7956 28.8687C40.9422 28.7106 41.0545 28.5236 41.1254 28.3196C41.1962 28.1156 41.224 27.899 41.2071 27.6836V16.6202C41.2459 16.1756 41.1216 15.732 40.8577 15.3728C40.5172 15.0683 40.0792 14.8967 39.6233 14.8894C39.4314 14.889 39.2443 14.8291 39.0876 14.7179C39.0379 14.68 38.997 14.6318 38.9675 14.5767C38.9381 14.5215 38.9207 14.4607 38.9168 14.3982C38.9168 14.2968 38.9789 14.2267 39.0876 14.1643C39.2344 14.1007 39.3937 14.0713 39.5534 14.0785C40.0736 14.0785 40.586 14.0785 41.1062 14.1253H42.3251C42.7145 14.1227 43.1034 14.0966 43.4897 14.0474C44.4214 14.0006 45.0425 13.9772 45.2987 13.9772C46.7962 13.8746 48.2945 14.1648 49.6466 14.8192C50.1122 15.1127 50.4888 15.5289 50.7352 16.0224C50.9816 16.516 51.0884 17.0679 51.0441 17.6182C51.0673 18.1064 50.9825 18.5937 50.7956 19.045C50.6313 19.4234 50.3938 19.7652 50.0969 20.0507C49.8704 20.2691 49.6234 20.4649 49.3593 20.6355C49.0611 20.8073 48.7463 20.9483 48.4199 21.0565C48.3911 21.0648 48.3658 21.0822 48.3476 21.1061C48.3295 21.1299 48.3194 21.159 48.3189 21.1891C48.3205 21.2162 48.3314 21.2419 48.3499 21.2619C48.3683 21.2818 48.393 21.2946 48.4199 21.2982C49.0347 21.4641 49.6306 21.694 50.1978 21.9843C50.7237 22.2586 51.1683 22.6674 51.4866 23.1694C51.8679 23.8113 52.0541 24.5511 52.0223 25.2979C52.0496 26.0046 51.9168 26.7084 51.6341 27.3562C51.4372 27.8488 51.1226 28.2853 50.718 28.627C50.3372 28.929 49.926 29.1903 49.4913 29.4067C48.1697 29.979 46.7368 30.2455 45.2987 30.1863C44.959 30.1871 44.6194 30.1689 44.2817 30.1318C43.6295 30.1318 43.0782 30.085 42.6202 30.085C42.1621 30.085 41.7118 30.085 41.0674 30.1318C40.423 30.1785 39.9261 30.1863 39.3671 30.1863C39.2065 30.2008 39.0448 30.1795 38.8935 30.124ZM47.4338 20.3158C47.7074 20.1091 47.9305 19.8425 48.086 19.5362C48.3384 19.0781 48.4694 18.5627 48.4664 18.0392C48.4664 15.9237 47.4028 14.866 45.2755 14.866C44.8699 14.8248 44.4618 14.9149 44.1109 15.1233C43.9995 15.2259 43.9139 15.3537 43.8613 15.496C43.8086 15.6383 43.7904 15.7911 43.8081 15.9419V20.1209C43.7954 20.2575 43.8189 20.3951 43.8762 20.5196C43.9335 20.6442 44.0224 20.7514 44.1341 20.8304C44.3678 20.9717 44.6382 21.0396 44.9105 21.0253C45.8145 21.0388 46.7034 20.7927 47.4727 20.3158H47.4338ZM47.3018 28.5724C47.8463 28.2608 48.3031 27.8155 48.6295 27.2782C49.1204 26.4893 49.2792 25.5369 49.071 24.6304C48.8628 23.7239 48.3047 22.9376 47.5192 22.4443C46.7607 22.0229 45.9008 21.8205 45.0348 21.8596C44.6982 21.8372 44.3641 21.9307 44.0876 22.1246C43.9895 22.1908 43.9077 22.2786 43.8485 22.3812C43.7893 22.4839 43.7542 22.5988 43.7459 22.7172V27.3952C43.724 27.6282 43.7514 27.8634 43.8264 28.0851C43.9013 28.3068 44.022 28.5101 44.1807 28.6816C44.561 28.9628 45.03 29.0958 45.5006 29.0558C46.1336 29.0623 46.7564 28.8952 47.3018 28.5724Z" fill="white"></path><path d="M56.8984 29.9058C56.8984 29.6953 57.1314 29.5394 57.605 29.4458C58.0855 29.3737 58.5384 29.1746 58.9171 28.8689C59.0595 28.7088 59.1675 28.521 59.2343 28.317C59.3011 28.1131 59.3253 27.8975 59.3053 27.6838V16.6204C59.3454 16.1974 59.2263 15.7746 58.9714 15.4353C58.6136 15.1399 58.1806 14.9509 57.7214 14.8896C57.2556 14.7908 57.0227 14.6271 57.0227 14.3984C57.0227 14.297 57.077 14.2269 57.1935 14.1645C57.3378 14.1017 57.4944 14.0724 57.6515 14.0787C58.2209 14.0787 58.9274 14.0943 59.7711 14.1255C60.5475 14.1645 61.2307 14.1801 61.7199 14.1801C62.8068 14.1801 64.15 14.1801 65.7416 14.1255H67.1003H67.7447C67.8546 14.126 67.9631 14.1499 68.063 14.1957C68.1081 14.216 68.1473 14.2473 68.1772 14.2868C68.207 14.3263 68.2265 14.3727 68.2338 14.4218L68.3581 15.1546C68.5085 15.79 68.6072 16.4367 68.6531 17.0882C68.657 17.1461 68.6494 17.2041 68.6308 17.259C68.6121 17.3139 68.5828 17.3645 68.5444 17.4079C68.5136 17.4381 68.4772 17.462 68.4373 17.478C68.3973 17.4941 68.3545 17.502 68.3115 17.5014C68.164 17.5014 68.0553 17.4079 67.9699 17.213C67.9315 17.0503 67.8795 16.8912 67.8146 16.7374C67.7411 16.5247 67.6555 16.3165 67.5584 16.1136C67.4903 15.9741 67.4097 15.841 67.3177 15.716C67.1027 15.4935 66.8439 15.3183 66.5579 15.2016C66.2719 15.0848 65.9648 15.029 65.6562 15.0377H62.9155C62.6669 15.0444 62.4271 15.132 62.2323 15.2872C62.1291 15.3572 62.0442 15.4512 61.9847 15.5611C61.9252 15.671 61.893 15.7937 61.8907 15.9187V20.9085C61.8868 20.9803 61.8979 21.052 61.9233 21.1191C61.9487 21.1863 61.9879 21.2473 62.0382 21.2984C62.1358 21.3938 62.2668 21.447 62.4031 21.4465H64.7323C65.0721 21.4765 65.41 21.37 65.6717 21.1502C65.9044 20.8559 66.0664 20.5118 66.1453 20.1445C66.254 19.817 66.4093 19.6533 66.6034 19.6533C66.6475 19.6572 66.6903 19.6703 66.7291 19.6918C66.7679 19.7133 66.8017 19.7427 66.8286 19.778C66.894 19.8713 66.9268 19.9837 66.9217 20.0977C66.8596 21.0099 66.8286 21.6024 66.8286 21.8831C66.8185 22.5284 66.8418 23.1738 66.8984 23.8167V23.9492C66.8984 24.2143 66.8286 24.3468 66.681 24.3468C66.5335 24.3468 66.223 24.1052 66.0987 23.6374C66.028 23.2878 65.8823 22.9579 65.6717 22.6706C65.583 22.5667 65.4719 22.4846 65.3467 22.4306C65.2216 22.3765 65.0858 22.3519 64.9497 22.3587H62.6205C62.4164 22.3416 62.2123 22.3908 62.0382 22.4991C61.9733 22.5633 61.9241 22.6418 61.8944 22.7284C61.8648 22.815 61.8555 22.9073 61.8674 22.998V27.676C61.8241 27.882 61.8321 28.0956 61.8908 28.2977C61.9494 28.4999 62.0569 28.6844 62.2036 28.8348C62.3503 28.9852 62.5317 29.0969 62.7318 29.16C62.9318 29.2231 63.1443 29.2355 63.3503 29.1963H65.2758C65.9977 29.2503 66.7193 29.0875 67.3487 28.7285C67.6215 28.5326 67.8602 28.2929 68.0553 28.0191C68.3127 27.6393 68.5411 27.2406 68.7385 26.8262C68.8705 26.6079 69.0025 26.5143 69.15 26.5299C69.2975 26.5455 69.4217 26.6624 69.4217 26.9197C69.3893 27.3568 69.3059 27.7886 69.1733 28.2062C69.0102 28.7987 68.8394 29.3523 68.6609 29.8591C68.5522 30.1163 68.4124 30.2489 68.2494 30.2489C67.1158 30.2489 65.9202 30.2489 64.5925 30.1709L62.9 30.1241H60.5242C60.0625 30.1129 59.6005 30.1363 59.1422 30.1943C58.2105 30.2489 57.6748 30.2723 57.5273 30.2723C57.1081 30.1865 56.8984 30.1007 56.8984 29.9058Z" fill="white"></path><path d="M86.5563 30.1864C85.9418 29.9094 85.4075 29.4802 85.0035 28.9389C84.3436 28.1047 83.7613 27.3796 83.2799 26.6C82.7986 25.8203 82.2085 24.9705 81.5253 23.8088C81.3209 23.4243 81.0075 23.1096 80.6246 22.9044C80.132 22.6853 79.6079 22.5458 79.0718 22.4911C78.8467 22.4911 78.7302 22.6549 78.7302 22.9823V27.4576C78.7057 27.9261 78.8489 28.3879 79.134 28.7596C79.4821 29.1333 79.9543 29.3662 80.4616 29.4145C80.6475 29.4533 80.8276 29.5162 80.9973 29.6017C81.049 29.6278 81.0924 29.668 81.1226 29.7175C81.1527 29.7671 81.1685 29.8242 81.1681 29.8823C81.1681 30.0773 80.9585 30.1786 80.5315 30.1786L78.901 30.1006C78.4886 30.054 78.0739 30.0305 77.6588 30.0305C77.1102 30.0305 76.5744 30.0539 76.0517 30.1006H75.2753C74.9104 30.1006 74.6153 30.1006 74.3203 30.1006C73.901 30.1006 73.6914 29.9993 73.6914 29.8044C73.691 29.7463 73.7068 29.6892 73.737 29.6396C73.7672 29.59 73.8105 29.5498 73.8622 29.5237C74.0333 29.4557 74.2142 29.4162 74.3979 29.4067C74.8862 29.3582 75.3501 29.1687 75.7333 28.861C75.8784 28.6961 75.9884 28.5031 76.0565 28.2939C76.1246 28.0848 76.1494 27.8638 76.1293 27.6447V17.0413C76.1385 16.6102 76.1047 16.1792 76.0284 15.7549C76.0058 15.6363 75.9598 15.5235 75.8931 15.4231C75.8265 15.3227 75.7405 15.2367 75.6402 15.1701C75.3364 15.011 75.0036 14.9156 74.6619 14.8895C74.4678 14.8877 74.2786 14.828 74.1184 14.7179C74.0643 14.6833 74.0192 14.6363 73.9868 14.5807C73.9544 14.5251 73.9356 14.4626 73.9321 14.3983C73.9321 14.2969 73.9942 14.2267 74.1184 14.1644C74.2598 14.1009 74.414 14.0716 74.5687 14.0786C75.0889 14.0786 75.6014 14.0786 76.1215 14.1254H77.2861C77.6699 14.1299 78.0536 14.1117 78.4352 14.0708C79.0492 14.0085 79.6659 13.9773 80.283 13.9773C81.7482 13.8849 83.2076 14.2323 84.4756 14.9752C84.949 15.3084 85.3295 15.7577 85.5809 16.2805C85.8324 16.8032 85.9463 17.3818 85.9119 17.9613C85.943 18.8608 85.6384 19.7394 85.0579 20.425C84.476 21.0869 83.7617 21.6183 82.9616 21.9844C82.9385 21.993 82.9189 22.0093 82.9062 22.0305C82.8935 22.0518 82.8884 22.0768 82.8917 22.1013L82.9383 22.2962C83.9166 23.7828 84.724 24.9445 85.3607 25.7813C86.0612 26.686 86.8407 27.5262 87.6899 28.2918C88.0455 28.6487 88.491 28.902 88.9787 29.0247C89.5488 29.1365 90.1293 29.1862 90.7101 29.1728C90.9507 29.1728 91.075 29.2898 91.075 29.5159C91.075 29.8901 90.842 30.163 90.3684 30.2956C89.8515 30.4738 89.3078 30.5609 88.7613 30.5528C88.0096 30.576 87.2605 30.4515 86.5563 30.1864ZM82.3172 20.9084C82.9289 20.2343 83.2572 19.3486 83.2333 18.4369C83.2956 17.4968 83.0473 16.5622 82.5268 15.7783C82.1966 15.4411 81.7943 15.1837 81.3504 15.0257C80.9066 14.8677 80.4327 14.8131 79.9647 14.8661C79.7837 14.8424 79.5999 14.8735 79.4366 14.9555C79.2734 15.0374 79.1383 15.1665 79.0486 15.3261C78.8546 15.9089 78.7602 16.5204 78.7691 17.1349C78.7691 18.1796 78.7225 19.4739 78.7225 21.0332C78.7046 21.1656 78.7209 21.3004 78.7699 21.4246C78.8188 21.5489 78.8988 21.6584 79.002 21.7427C79.2797 21.8769 79.5874 21.936 79.8948 21.9142C80.3468 21.9304 80.7969 21.849 81.2148 21.6754C81.6327 21.5019 82.0086 21.2404 82.3172 20.9084Z" fill="white"></path><path d="M96.2374 29.8824C96.237 29.8243 96.2527 29.7672 96.2829 29.7176C96.3131 29.6681 96.3565 29.6279 96.4082 29.6018C96.5832 29.5094 96.772 29.4462 96.9672 29.4146C97.4846 29.3612 97.9755 29.1581 98.3802 28.8299C98.5361 28.6693 98.6556 28.4768 98.7307 28.2655C98.8057 28.0543 98.8345 27.8293 98.815 27.6058V17.9224C98.8305 17.235 98.7993 16.5473 98.7218 15.8641C98.6597 15.5211 98.5355 15.3262 98.3569 15.2794C97.8569 15.195 97.3497 15.161 96.8429 15.178H95.8957C95.452 15.1788 95.0141 15.2801 94.6147 15.4743C94.2418 15.6382 93.9256 15.9096 93.7063 16.254C93.2482 16.9401 92.8756 17.2831 92.5805 17.2831C92.4175 17.2831 92.3398 17.174 92.3398 16.9401C92.3541 16.7529 92.4042 16.5702 92.4874 16.4021C92.712 15.9668 92.899 15.5129 93.0464 15.0455C93.1694 14.585 93.2576 14.1159 93.3103 13.6421C93.3647 13.2523 93.5277 13.0496 93.7995 13.0496C93.8849 13.0496 94.0013 13.1665 94.1566 13.3926C94.3119 13.6187 94.4128 13.7746 94.4594 13.8604C94.6467 14.0468 94.8892 14.1672 95.1504 14.2035C95.4915 14.2838 95.8404 14.3256 96.1908 14.3282H104.98C105.687 14.367 106.395 14.2499 107.053 13.9852C107.191 13.9024 107.321 13.8057 107.441 13.6967L107.674 13.5329C107.8 13.4477 107.949 13.4016 108.101 13.4004C108.163 13.4004 108.217 13.455 108.248 13.5641C108.279 13.6785 108.295 13.7965 108.295 13.915C108.287 14.1192 108.264 14.3225 108.225 14.5231L108.054 15.2638C108.001 15.4348 107.959 15.6094 107.93 15.7862C107.899 15.9769 107.883 16.1698 107.883 16.3631V16.7062C107.884 16.9044 107.844 17.1007 107.767 17.2831C107.697 17.4468 107.604 17.5326 107.487 17.5326C107.42 17.53 107.355 17.507 107.301 17.4666C107.247 17.4263 107.206 17.3705 107.185 17.3065C107.084 17.0519 106.999 16.7915 106.928 16.5268C106.893 16.3238 106.815 16.1305 106.7 15.9599C106.585 15.7892 106.435 15.6449 106.261 15.5367C105.76 15.2794 105.199 15.1636 104.638 15.2014H102.596C102.327 15.1846 102.059 15.2412 101.82 15.3652C101.72 15.4562 101.639 15.5668 101.583 15.6901C101.527 15.8134 101.497 15.9469 101.494 16.0824C101.426 16.7012 101.398 17.3235 101.408 17.9458V27.6058C101.392 27.8245 101.424 28.0441 101.501 28.2489C101.579 28.4538 101.701 28.6389 101.858 28.7909C102.275 29.1156 102.766 29.33 103.287 29.4146C103.473 29.4534 103.653 29.5163 103.823 29.6018C103.873 29.6293 103.916 29.6697 103.946 29.719C103.976 29.7683 103.992 29.8247 103.994 29.8824C103.994 30.0774 103.776 30.1787 103.357 30.1787C102.797 30.1937 102.236 30.1676 101.68 30.1007C101.028 30.0696 100.539 30.054 100.213 30.054C99.8864 30.054 99.3662 30.054 98.6597 30.1007C98.124 30.1475 97.5495 30.1787 96.9361 30.1787C96.4547 30.1865 96.2374 30.0774 96.2374 29.8824Z" fill="white"></path><path d="M150.951 29.3211C150.779 29.1911 150.652 29.0115 150.586 28.8065C150.354 27.8552 150.25 26.8773 150.275 25.8984C150.271 25.8474 150.281 25.7962 150.304 25.7507C150.328 25.7052 150.363 25.6672 150.407 25.6411C150.512 25.5772 150.634 25.5472 150.757 25.5553C150.852 25.5452 150.948 25.5684 151.029 25.6209C151.109 25.6734 151.169 25.7521 151.199 25.8438C151.434 26.8758 151.944 27.8244 152.674 28.5882C153.241 29.1778 154.017 29.5195 154.833 29.5394C155.195 29.555 155.557 29.4936 155.894 29.3592C156.231 29.2249 156.536 29.0206 156.789 28.7597C157.043 28.4979 157.242 28.188 157.376 27.848C157.509 27.508 157.574 27.1447 157.566 26.7794C157.583 26.2685 157.479 25.7607 157.263 25.298C157.049 24.8946 156.749 24.5432 156.385 24.2689C155.891 23.8709 155.372 23.5038 154.833 23.1696C153.862 22.5848 153.125 22.117 152.628 21.7584C152.114 21.377 151.673 20.9071 151.323 20.3706C150.936 19.7708 150.74 19.0659 150.764 18.3512C150.751 17.5266 150.971 16.7152 151.401 16.0123C151.851 15.2927 152.505 14.7251 153.28 14.3828C154.158 13.9866 155.113 13.7921 156.075 13.8136C157.022 13.8153 157.958 14.0061 158.831 14.375C158.968 14.436 159.089 14.5273 159.186 14.6421C159.283 14.7568 159.353 14.8921 159.39 15.0377C159.628 15.8814 159.766 16.7501 159.802 17.6262C159.803 17.6656 159.794 17.7048 159.775 17.7393C159.756 17.7738 159.727 17.8021 159.693 17.8211C159.611 17.8773 159.513 17.9047 159.413 17.899C159.27 17.9008 159.128 17.866 159.002 17.7977C158.892 17.7515 158.803 17.6651 158.753 17.556C158.522 16.7689 158.1 16.0513 157.527 15.4665C157.045 15.0038 156.4 14.7515 155.733 14.7648C155.04 14.733 154.359 14.9608 153.823 15.4041C153.567 15.6571 153.37 15.9635 153.245 16.3018C153.12 16.64 153.071 17.0017 153.101 17.3611C153.105 17.6718 153.177 17.9779 153.311 18.258C153.445 18.5381 153.639 18.7854 153.878 18.9828C154.685 19.6721 155.55 20.2903 156.463 20.8306C157.45 21.4074 158.345 22.1302 159.118 22.9746C159.722 23.7216 160.034 24.6641 159.996 25.6255C160.029 26.2925 159.913 26.9585 159.654 27.574C159.396 28.1895 159.003 28.7387 158.505 29.1807C157.417 29.9919 156.105 30.4416 154.75 30.4667C153.396 30.4919 152.067 30.0913 150.951 29.3211Z" fill="white"></path><path d="M165.042 29.8823C165.037 29.8264 165.052 29.7706 165.083 29.7239C165.114 29.6772 165.159 29.6424 165.213 29.625C165.407 29.5418 165.61 29.4816 165.818 29.4457C166.215 29.3677 166.57 29.149 166.82 28.8298C167.1 28.4503 167.276 28.0043 167.332 27.5355C167.886 23.1278 168.21 19.6947 168.303 17.2362V16.4565C168.312 16.2804 168.276 16.105 168.198 15.9467C168.121 15.7885 168.004 15.6527 167.86 15.5521C167.652 15.3681 167.413 15.2229 167.154 15.1233C166.843 15.022 166.525 14.9362 166.206 14.866C166.051 14.8426 165.905 14.781 165.779 14.6867C165.734 14.6494 165.697 14.6032 165.67 14.5509C165.644 14.4986 165.628 14.4413 165.624 14.3826C165.619 14.3233 165.636 14.2642 165.672 14.2167C165.708 14.1692 165.76 14.1367 165.818 14.1253C166.009 14.0777 166.204 14.0567 166.401 14.063H167.255L168.202 14.1098C169.304 14.1799 170.05 14.2111 170.422 14.2111C170.54 14.2122 170.653 14.2566 170.741 14.3359C170.83 14.4127 170.897 14.5123 170.935 14.6243C171.015 14.8701 171.082 15.1199 171.137 15.3728C171.346 16.0589 171.47 16.4409 171.501 16.5267L175.251 25.8826C175.267 25.9416 175.303 25.9932 175.353 26.0287C175.402 26.0642 175.462 26.0815 175.523 26.0775C175.565 26.074 175.605 26.059 175.64 26.0343C175.674 26.0096 175.701 25.976 175.717 25.9372L180.05 16.5813L180.453 14.5931C180.5 14.3826 180.601 14.2735 180.741 14.2735H181.672C181.96 14.2735 182.619 14.2345 183.644 14.1487C184.289 14.0864 184.692 14.0552 184.84 14.0552C185.213 14.0552 185.399 14.1487 185.399 14.3437C185.402 14.3975 185.39 14.4511 185.366 14.4991C185.341 14.547 185.305 14.5876 185.259 14.6165C185.11 14.7124 184.951 14.7934 184.786 14.8582C184.527 14.9414 184.139 15.0973 183.621 15.326C183.384 15.4255 183.173 15.5806 183.008 15.7782C182.867 15.9722 182.798 16.2093 182.814 16.4487C182.814 18.0081 182.814 19.3881 182.899 20.6199C182.984 21.8518 183.046 23.2942 183.178 24.9392L183.373 27.7772C183.373 27.9854 183.416 28.1913 183.497 28.3828C183.578 28.5743 183.697 28.7474 183.846 28.8921C184.232 29.1944 184.69 29.3905 185.174 29.4613C185.362 29.4929 185.543 29.5562 185.71 29.6484C185.761 29.6746 185.805 29.7147 185.835 29.7643C185.865 29.8139 185.881 29.871 185.88 29.9291C185.88 30.124 185.671 30.2253 185.251 30.2253C184.689 30.2403 184.126 30.2142 183.567 30.1474C182.922 30.1474 182.425 30.1006 182.084 30.1006C181.742 30.1006 181.369 30.1006 180.818 30.1474C180.284 30.2006 179.748 30.2266 179.211 30.2253C178.784 30.2253 178.574 30.124 178.574 29.9291C178.574 29.7342 178.807 29.547 179.281 29.4613C179.685 29.438 180.067 29.2659 180.352 28.9779C180.576 28.6198 180.68 28.1988 180.647 27.7772C180.622 25.2251 180.526 22.3898 180.36 19.2711V18.7643C180.36 18.6162 180.36 18.5382 180.259 18.5382C180.158 18.5382 180.135 18.624 180.019 18.7877L174.731 30.1864C174.721 30.2428 174.691 30.2938 174.647 30.3308C174.603 30.3677 174.548 30.3883 174.491 30.3891C174.433 30.3873 174.377 30.3665 174.332 30.3299C174.287 30.2932 174.256 30.2428 174.242 30.1864C173.414 27.9565 172.211 24.9574 170.632 21.1891L169.584 18.702C169.569 18.6638 169.541 18.6316 169.506 18.6105C169.471 18.5894 169.43 18.5804 169.39 18.585C169.296 18.585 169.234 18.6474 169.219 18.7799C168.862 21.6928 168.675 24.6241 168.66 27.5589C168.652 27.9961 168.81 28.4201 169.102 28.744C169.434 29.1021 169.878 29.3358 170.36 29.4067C170.561 29.4454 170.757 29.5082 170.942 29.5938C170.999 29.6157 171.048 29.6541 171.082 29.7042C171.117 29.7542 171.136 29.8136 171.137 29.8745C171.137 30.0694 170.911 30.1708 170.453 30.1708C169.989 30.1804 169.525 30.1622 169.064 30.1162C168.742 30.0771 168.417 30.0615 168.093 30.0694C167.837 30.0694 167.387 30.0694 166.897 30.1162C166.408 30.163 166.028 30.1864 165.702 30.1864C165.376 30.1864 165.042 30.0772 165.042 29.8823Z" fill="white"></path><path d="M192.246 29.8823C192.247 29.8246 192.264 29.7682 192.294 29.7189C192.324 29.6696 192.366 29.6292 192.417 29.6017C192.587 29.5162 192.767 29.4533 192.953 29.4145C193.451 29.3597 193.926 29.1712 194.327 28.8688C194.48 28.7146 194.598 28.5286 194.671 28.3238C194.745 28.1191 194.773 27.9006 194.754 27.6837V16.6203C194.794 16.1973 194.675 15.7744 194.42 15.4352C194.055 15.1366 193.614 14.9474 193.147 14.8895C192.681 14.7881 192.44 14.6244 192.44 14.3983C192.44 14.1722 192.65 14.0786 193.054 14.0786C193.457 14.0786 194.047 14.0786 194.731 14.1254C195.414 14.1722 195.818 14.18 196.144 14.18H197.533C198.147 14.18 198.69 14.1254 199.141 14.1254C199.591 14.1254 199.777 14.2267 199.777 14.4217C199.777 14.6166 199.536 14.8115 199.071 14.9129C198.579 14.9687 198.113 15.1633 197.727 15.4742C197.593 15.6354 197.492 15.8217 197.429 16.0224C197.366 16.2231 197.344 16.4342 197.363 16.6437V27.6837C197.343 27.8947 197.371 28.1075 197.445 28.3059C197.519 28.5044 197.637 28.6835 197.79 28.8298C198.202 29.1347 198.681 29.3353 199.187 29.4145C199.375 29.4462 199.556 29.5095 199.723 29.6017C199.774 29.6278 199.818 29.668 199.848 29.7175C199.878 29.7671 199.894 29.8242 199.894 29.8823C199.894 30.0773 199.692 30.1786 199.288 30.1786C198.736 30.1933 198.183 30.1672 197.634 30.1006C196.982 30.0695 196.493 30.0539 196.167 30.0539C195.81 30.0539 195.29 30.0539 194.614 30.1006C194.071 30.1474 193.504 30.1786 192.906 30.1786C192.456 30.1864 192.246 30.0773 192.246 29.8823Z" fill="white"></path><path d="M209.909 29.8824C209.909 29.8243 209.925 29.7672 209.955 29.7176C209.985 29.6681 210.028 29.6279 210.08 29.6018C210.255 29.5094 210.444 29.4462 210.639 29.4146C211.156 29.3612 211.647 29.1581 212.052 28.8299C212.208 28.6693 212.327 28.4768 212.403 28.2655C212.478 28.0543 212.506 27.8293 212.487 27.6058V17.9224C212.502 17.235 212.471 16.5473 212.394 15.8641C212.332 15.5211 212.207 15.3262 212.029 15.2794C211.529 15.195 211.022 15.161 210.515 15.178H209.568C209.124 15.1788 208.686 15.2801 208.287 15.4743C207.914 15.6382 207.597 15.9096 207.378 16.254C206.92 16.9401 206.547 17.2831 206.252 17.2831C206.089 17.2831 206.012 17.174 206.012 16.9401C206.026 16.7529 206.076 16.5702 206.159 16.4021C206.384 15.9668 206.571 15.5129 206.718 15.0455C206.841 14.585 206.929 14.1159 206.982 13.6421C207.037 13.2523 207.2 13.0496 207.471 13.0496C207.557 13.0496 207.673 13.1665 207.828 13.3926C207.984 13.6187 208.085 13.7746 208.131 13.8604C208.319 14.0468 208.561 14.1672 208.822 14.2035C209.163 14.2838 209.512 14.3256 209.863 14.3282H218.651C219.359 14.367 220.067 14.2499 220.724 13.9852C220.863 13.9024 220.993 13.8057 221.113 13.6967L221.346 13.5329C221.472 13.4477 221.62 13.4016 221.773 13.4004C221.835 13.4004 221.889 13.455 221.92 13.5641C221.951 13.6785 221.966 13.7965 221.967 13.915C221.959 14.1192 221.935 14.3225 221.897 14.5231L221.726 15.2638C221.673 15.4348 221.631 15.6094 221.602 15.7862C221.571 15.9769 221.555 16.1698 221.555 16.3631V16.7062C221.556 16.9044 221.516 17.1007 221.439 17.2831C221.369 17.4468 221.276 17.5326 221.159 17.5326C221.092 17.53 221.027 17.507 220.973 17.4666C220.919 17.4263 220.878 17.3705 220.856 17.3065C220.756 17.0519 220.67 16.7915 220.6 16.5268C220.565 16.3238 220.487 16.1305 220.372 15.9599C220.257 15.7892 220.107 15.6449 219.933 15.5367C219.432 15.2794 218.871 15.1636 218.31 15.2014H216.268C215.999 15.1846 215.731 15.2412 215.492 15.3652C215.392 15.4568 215.312 15.5675 215.256 15.6906C215.2 15.8138 215.169 15.9471 215.165 16.0824C215.098 16.7012 215.069 17.3235 215.08 17.9458V27.6058C215.064 27.8245 215.095 28.0441 215.173 28.2489C215.251 28.4538 215.373 28.6389 215.53 28.7909C215.944 29.1101 216.429 29.3217 216.943 29.4068C217.129 29.4456 217.309 29.5085 217.479 29.594C217.53 29.6215 217.572 29.6619 217.602 29.7112C217.632 29.7605 217.649 29.8169 217.65 29.8746C217.65 30.0696 217.433 30.1709 217.013 30.1709C216.453 30.1859 215.893 30.1598 215.336 30.093C214.684 30.0618 214.195 30.0462 213.869 30.0462C213.543 30.0462 213.023 30.0462 212.316 30.093C211.78 30.1397 211.206 30.1709 210.592 30.1709C210.127 30.1865 209.909 30.0774 209.909 29.8824Z" fill="white"></path><path d="M228.03 30.0929C227.983 30.0732 227.942 30.041 227.912 29.9998C227.882 29.9586 227.864 29.9099 227.859 29.859C227.859 29.8047 227.872 29.7511 227.898 29.7034C227.924 29.6556 227.961 29.6153 228.007 29.5861C228.176 29.5023 228.356 29.4444 228.543 29.4146C228.981 29.3709 229.395 29.1879 229.723 28.8922C229.957 28.5354 230.064 28.1094 230.026 27.6837V16.597C230.064 16.1842 229.98 15.7694 229.785 15.4041C229.494 15.1055 229.105 14.9227 228.69 14.8895C228.502 14.859 228.321 14.7957 228.154 14.7024C228.103 14.6762 228.059 14.6361 228.029 14.5865C227.999 14.5369 227.983 14.4798 227.984 14.4217C227.986 14.3713 228.002 14.3224 228.029 14.28C228.056 14.2376 228.094 14.2031 228.139 14.18C228.277 14.1046 228.433 14.0695 228.589 14.0786C229.063 14.0786 229.583 14.0786 230.142 14.1254C230.701 14.1722 231.074 14.18 231.361 14.18H232.681C233.294 14.18 233.838 14.1254 234.311 14.1254C234.785 14.1254 234.917 14.2346 234.917 14.4451C234.917 14.5032 234.901 14.5603 234.871 14.6099C234.841 14.6595 234.798 14.6996 234.746 14.7258C234.58 14.8191 234.398 14.8824 234.21 14.9129C233.737 14.9749 233.293 15.1787 232.937 15.4976C232.676 15.8105 232.548 16.2136 232.58 16.6203V21.2983C232.58 21.4776 232.696 21.5634 232.921 21.5634H241.089C241.237 21.5634 241.307 21.462 241.307 21.2437V16.5658C241.33 16.1613 241.206 15.7623 240.957 15.4431C240.607 15.1245 240.168 14.9205 239.699 14.8583C239.511 14.8278 239.33 14.7645 239.164 14.6712C239.112 14.645 239.069 14.6049 239.038 14.5553C239.008 14.5057 238.993 14.4486 238.993 14.3905C238.993 14.18 239.195 14.0709 239.606 14.0709C240.018 14.0709 240.6 14.0709 241.283 14.1254H242.696C243.062 14.1306 243.428 14.1123 243.791 14.0709C244.295 14.0279 244.8 14.0123 245.305 14.0241C245.464 14.0147 245.623 14.0498 245.763 14.1254C245.812 14.1449 245.854 14.1781 245.884 14.221C245.914 14.2638 245.932 14.3146 245.934 14.3671C245.934 14.4252 245.919 14.4823 245.888 14.5319C245.858 14.5815 245.815 14.6216 245.763 14.6478C245.597 14.7411 245.415 14.8045 245.227 14.8349C244.802 14.863 244.404 15.0559 244.117 15.3729C243.93 15.7241 243.846 16.1217 243.876 16.519V27.6525C243.835 28.0873 243.925 28.5244 244.133 28.9078C244.44 29.204 244.841 29.3832 245.266 29.4146C245.452 29.4444 245.633 29.5023 245.802 29.5861C245.846 29.6162 245.882 29.6569 245.907 29.7046C245.931 29.7523 245.943 29.8054 245.942 29.859C245.942 29.9525 245.887 30.0305 245.763 30.0929C245.621 30.1526 245.467 30.1818 245.313 30.1786C244.794 30.1942 244.275 30.1681 243.76 30.1007C243.348 30.0488 242.932 30.0331 242.518 30.0539C242.207 30.0539 241.788 30.0539 241.206 30.1007C240.623 30.1475 240.173 30.1786 239.567 30.1786C239.418 30.185 239.269 30.1556 239.133 30.0929C239.085 30.074 239.044 30.042 239.014 30.0006C238.984 29.9592 238.966 29.9102 238.962 29.859C238.956 29.8028 238.968 29.7463 238.994 29.6964C239.02 29.6466 239.06 29.6055 239.109 29.5783C239.28 29.5004 239.46 29.4453 239.645 29.4146C240.109 29.3437 240.543 29.1407 240.895 28.8298C241.037 28.6819 241.147 28.5054 241.217 28.3119C241.286 28.1184 241.314 27.9123 241.299 27.7071V22.9824C241.299 22.7407 241.237 22.6159 241.105 22.6159H232.797C232.768 22.6121 232.739 22.6158 232.712 22.6267C232.684 22.6377 232.66 22.6554 232.642 22.6783C232.61 22.7517 232.596 22.8322 232.603 22.9122V27.5356C232.595 27.7589 232.633 27.9814 232.715 28.1893C232.796 28.3972 232.92 28.586 233.077 28.7441C233.452 29.0958 233.922 29.3289 234.428 29.4146C234.617 29.4461 234.803 29.5011 234.979 29.5783C235.031 29.6026 235.074 29.6429 235.102 29.6933C235.13 29.7437 235.141 29.8017 235.134 29.859C235.134 29.9525 235.08 30.0305 234.956 30.0929C234.813 30.1526 234.66 30.1818 234.505 30.1786C233.95 30.1933 233.395 30.1672 232.844 30.1007C232.199 30.1007 231.71 30.0539 231.384 30.0539C231.058 30.0539 230.608 30.0539 230.049 30.1007C229.533 30.1541 229.015 30.1801 228.496 30.1786C228.336 30.1864 228.177 30.1571 228.03 30.0929Z" fill="white"></path><path d="M112.347 42.396C111.925 42.1667 111.57 41.8299 111.317 41.4194C111.065 41.0089 110.925 40.539 110.911 40.057C110.903 39.7349 110.96 39.4146 111.077 39.1147C111.195 38.8148 111.37 38.5415 111.594 38.3105C111.789 38.0893 112.028 37.9112 112.295 37.7878C112.563 37.6643 112.853 37.598 113.147 37.5933C113.459 37.6564 113.736 37.8344 113.923 38.0922C114.295 38.5153 114.63 38.9691 114.925 39.4488C115.234 39.9461 115.599 40.4064 116.012 40.821C116.163 40.9723 116.344 41.0905 116.543 41.1683C116.742 41.2461 116.955 41.2818 117.169 41.2733C117.504 41.2375 117.825 41.1135 118.097 40.9136C118.37 40.7137 118.585 40.4451 118.721 40.1349C119.304 39.0669 119.753 37.9303 120.057 36.7512L125.895 15.8875C125.924 15.7755 125.937 15.66 125.934 15.5444C125.934 15.256 125.724 15.1156 125.29 15.1156H122.72C122.503 15.1387 122.287 15.0773 122.114 14.9441C121.987 14.7865 121.925 14.5851 121.943 14.3827C121.986 14.0364 122.135 13.712 122.37 13.455C122.491 13.29 122.646 13.1531 122.824 13.0536C123.002 12.954 123.2 12.8941 123.403 12.878L126.105 12.7455C126.165 12.7511 126.226 12.7427 126.282 12.7211C126.339 12.6995 126.39 12.6651 126.431 12.6207C126.523 12.4746 126.588 12.3137 126.625 12.1451L126.967 11.0692C127.637 8.86201 128.688 6.79035 130.072 4.94885C131.144 3.49235 132.522 2.29162 134.11 1.43258C135.418 0.731997 136.874 0.355115 138.356 0.333255C139.519 0.3047 140.662 0.633891 141.633 1.27665C142.037 1.51739 142.372 1.85961 142.605 2.26969C142.838 2.67977 142.96 3.14361 142.96 3.61563C142.967 4.3467 142.776 5.06588 142.409 5.69732C142.278 5.9663 142.076 6.19455 141.826 6.35789C141.576 6.52123 141.287 6.61356 140.988 6.62512C140.807 6.62961 140.627 6.58584 140.467 6.49822C140.308 6.41061 140.174 6.28225 140.08 6.12614C139.775 5.55223 139.516 4.95527 139.304 4.34071C139.078 3.76187 138.775 3.21636 138.403 2.71902C138.254 2.53394 138.064 2.3857 137.849 2.28569C137.633 2.18567 137.398 2.13654 137.161 2.14207C136.384 2.14207 135.724 2.66444 135.096 3.70139C134.334 5.06498 133.745 6.51855 133.341 8.02851C133.108 8.89393 132.852 9.98546 132.565 11.3031L132.433 12.0827V12.2543C132.433 12.5973 132.658 12.7688 133.116 12.7688C133.574 12.7688 134.35 12.7688 135.266 12.6831L137.324 12.6441C137.385 12.6451 137.444 12.6614 137.497 12.6913C137.55 12.7213 137.594 12.764 137.627 12.8156C137.714 12.9409 137.758 13.0917 137.751 13.2444C137.706 13.6228 137.558 13.9815 137.324 14.2814C137.037 14.7102 136.796 14.9285 136.594 14.9285L133.116 15.0533C132.731 15.0512 132.351 15.1393 132.006 15.3105C131.745 15.4995 131.56 15.7762 131.485 16.0902L129.156 24.4092C128.752 25.875 128.302 27.4992 127.805 29.2821C127.308 31.0675 126.773 32.9855 126.19 35.0516C125.773 36.478 125.016 37.7811 123.985 38.8485C122.872 40.0981 121.586 41.18 120.165 42.0607C119.129 42.7854 117.922 43.2237 116.664 43.3316C115.166 43.4392 113.668 43.1146 112.347 42.396Z" fill="#802934"></path><path d="M132.316 31.0129C132.081 30.7679 131.95 30.4408 131.951 30.1007C131.952 29.5799 132.159 29.0807 132.526 28.7129C132.7 28.5233 132.911 28.3721 133.146 28.2688C133.381 28.1654 133.635 28.1122 133.892 28.1125C134.077 28.1042 134.261 28.1386 134.431 28.2129C134.6 28.2872 134.751 28.3996 134.87 28.5414C135.106 28.8198 135.232 29.1743 135.228 29.5393C135.229 29.7874 135.177 30.0329 135.075 30.259C134.973 30.4851 134.824 30.6864 134.638 30.8492C134.26 31.2128 133.755 31.4118 133.232 31.4027C133.061 31.4076 132.89 31.3753 132.732 31.308C132.574 31.2408 132.432 31.1401 132.316 31.0129Z" fill="#802934"></path></svg>