<svg xmlns="http://www.w3.org/2000/svg" width="50" height="50" viewBox="0 0 50 50" fill="none"><rect x="7" y="6" width="37" height="37" rx="10" fill="#f1edee"/><path d="M37.9264 18.7285C38.5123 20.7793 38.5123 25.1738 38.5123 25.1738C38.5123 25.1738 38.5123 29.5195 37.9264 31.6191C37.6334 32.791 36.7057 33.6699 35.5826 33.9629C33.483 34.5 25.1823 34.5 25.1823 34.5C25.1823 34.5 16.8326 34.5 14.733 33.9629C13.61 33.6699 12.6823 32.791 12.3893 31.6191C11.8033 29.5195 11.8033 25.1738 11.8033 25.1738C11.8033 25.1738 11.8033 20.7793 12.3893 18.7285C12.6823 17.5566 13.61 16.6289 14.733 16.3359C16.8326 15.75 25.1823 15.75 25.1823 15.75C25.1823 15.75 33.483 15.75 35.5826 16.3359C36.7057 16.6289 37.6334 17.5566 37.9264 18.7285ZM22.4479 29.1289L29.3815 25.1738L22.4479 21.2188V29.1289Z" fill="#9b2233"/></svg>