<svg xmlns="http://www.w3.org/2000/svg" width="486" height="486" viewBox="0 0 486 486" fill="none"><path d="M476.581 311.856L476.016 312.164L174.144 476.581L9.41796 174.144L9.98235 173.836L311.855 9.41854L476.581 311.856ZM174.657 474.837L474.836 311.343L311.342 11.163L11.1624 174.657L174.657 474.837Z" fill="url(#paint0_linear_678_4497)" fill-opacity="0.2"></path><path d="M473.758 165.457L320.545 473.756L319.98 473.474L12.2461 320.543L165.459 12.2442L166.023 12.5263L473.758 165.457ZM319.955 472.038L472.014 166.022L165.998 13.9625L13.9644 319.978L319.955 472.038Z" fill="url(#paint1_linear_678_4497)" fill-opacity="0.2"></path><path d="M438.908 387.558L438.266 387.66L98.443 438.907L47.0937 98.4423L47.735 98.3397L387.558 47.093L438.908 387.558ZM99.5203 437.445L437.446 386.48L386.481 48.555L48.5557 99.5196L99.5203 437.445Z" fill="url(#paint2_linear_678_4497)" fill-opacity="0.2"></path><path d="M486 249.044L485.539 249.479L236.956 486L-1.0886e-05 236.956L0.460944 236.521L249.044 -1.0886e-05L486 249.044ZM237.008 484.182L484.207 248.992L249.018 1.79259L1.8182 237.008L237.008 484.182Z" fill="url(#paint3_linear_678_4497)" fill-opacity="0.2"></path><path d="M445.5 108.585L377.415 445.5L40.5 377.415L108.585 40.5L445.5 108.585ZM376.417 443.989L443.989 109.583L109.583 42.0107L42.0107 376.417L376.417 443.989Z" fill="url(#paint4_linear_678_4497)" fill-opacity="0.2"></path><path d="M469.021 331.702L468.432 331.958L154.298 469.046L16.9531 154.298L17.5415 154.042L331.702 16.9534L469.046 331.702L469.021 331.702ZM154.963 467.358L467.358 331.037L331.037 18.6417L18.6415 154.963L154.963 467.358Z" fill="url(#paint5_linear_678_4497)" fill-opacity="0.2"></path><path d="M479.408 185.916L479.075 186.454L300.085 479.407L6.59374 300.084L6.92682 299.546L185.917 6.59304L479.408 185.916ZM299.675 477.639L477.665 186.326L186.352 8.33529L8.36161 299.649L299.675 477.639Z" fill="url(#paint6_linear_678_4497)" fill-opacity="0.2"></path><path d="M425.719 404.233L81.7649 425.721L60.2773 81.7666L404.232 60.2791L425.719 404.233ZM82.9715 424.36L424.359 403.027L403.025 61.6397L61.6379 82.9732L82.9715 424.36Z" fill="url(#paint7_linear_678_4497)" fill-opacity="0.2"></path><path d="M485.032 270.16L484.519 270.569L216.246 484.116L215.836 483.605L1.8828 215.866L2.39502 215.457L270.669 1.88362L271.079 2.39489L485.057 270.16L485.032 270.16ZM216.451 482.327L483.239 269.955L270.464 3.67299L3.67556 216.07L216.451 482.327Z" fill="url(#paint8_linear_678_4497)" fill-opacity="0.2"></path><path d="M456.804 126.558L456.624 127.173L359.444 456.802L358.828 456.623L29.1992 359.442L29.3788 358.827L126.559 29.1976L127.175 29.3771L456.804 126.558ZM358.597 455.212L455.214 127.43L127.431 30.8134L30.7894 358.57L358.597 455.212Z" fill="url(#paint9_linear_678_4497)" fill-opacity="0.2"></path><path d="M460.569 351.119L459.955 351.324L134.874 460.57L134.669 459.956L25.4297 134.881L26.044 134.676L351.125 25.4303L351.33 26.0446L460.569 351.145L460.569 351.119ZM135.667 458.957L458.931 350.326L350.306 27.0429L27.0422 135.674L135.667 458.957Z" fill="url(#paint10_linear_678_4497)" fill-opacity="0.2"></path><path d="M483.177 206.767L279.236 483.175L2.82812 279.208L206.795 2.82571L483.177 206.792L483.177 206.767ZM278.955 481.383L481.386 207.048L207.051 4.61687L4.61932 278.952L278.955 481.383Z" fill="url(#paint11_linear_678_4497)" fill-opacity="0.2"></path><path d="M419.127 75.4263L410.573 419.128L409.932 419.128L66.8711 410.574L75.4252 66.8722L76.0655 66.8722L419.127 75.4263ZM409.318 417.796L417.795 76.6556L76.6545 68.1783L68.1773 409.319L409.318 417.796Z" fill="url(#paint12_linear_678_4497)" fill-opacity="0.2"></path><path d="M481.288 291.15L194.848 481.291L4.70702 194.85L291.148 4.70937L481.288 291.15ZM195.206 479.524L479.521 290.791L290.789 6.47655L6.47422 195.209L195.206 479.524Z" fill="url(#paint13_linear_678_4497)" fill-opacity="0.2"></path><path d="M466.219 145.578L465.988 146.168L340.42 466.221L19.7773 340.396L20.0083 339.806L145.576 19.7791L466.194 145.604L466.219 145.578ZM339.676 464.553L464.551 146.322L146.32 21.4468L21.4451 339.678L339.676 464.553Z" fill="url(#paint14_linear_678_4497)" fill-opacity="0.2"></path><path d="M450.208 369.602L449.594 369.756L116.396 450.209L35.789 116.398L36.403 116.244L369.601 35.7906L450.208 369.602ZM117.343 448.649L448.673 368.656L368.68 37.3255L37.3495 117.344L117.343 448.649Z" fill="url(#paint15_linear_678_4497)" fill-opacity="0.2"></path><path d="M485.974 227.828L485.538 228.315L258.159 486L257.671 485.564L-9.95755e-06 258.198L0.436026 257.711L227.816 -9.95814e-06L228.303 0.436025L486 227.828L485.974 227.828ZM258.056 484.204L484.179 227.93L227.918 1.79555L1.79543 258.07L258.056 484.204Z" fill="url(#paint16_linear_678_4497)" fill-opacity="0.2"></path><path d="M433.258 91.2518L394.75 433.256L394.109 433.179L52.7461 394.748L91.2536 52.7442L91.8945 52.8211L433.258 91.2518ZM393.622 431.82L431.848 92.3798L92.4073 54.1543L54.1818 393.595L393.622 431.82Z" fill="url(#paint17_linear_678_4497)" fill-opacity="0.2"></path><path d="M476.581 311.856L476.016 312.164L174.144 476.581L9.41796 174.144L9.98235 173.836L311.855 9.41854L476.581 311.856ZM174.657 474.837L474.836 311.343L311.342 11.163L11.1624 174.657L174.657 474.837Z" fill="url(#paint18_linear_678_4497)" fill-opacity="0.2"></path><path d="M473.758 165.457L320.545 473.756L319.98 473.474L12.2461 320.543L165.459 12.2442L166.023 12.5263L473.758 165.457ZM319.955 472.038L472.014 166.022L165.998 13.9625L13.9644 319.978L319.955 472.038Z" fill="url(#paint19_linear_678_4497)" fill-opacity="0.2"></path><path d="M438.908 387.558L438.266 387.66L98.443 438.907L47.0937 98.4423L47.735 98.3397L387.558 47.093L438.908 387.558ZM99.5203 437.445L437.446 386.48L386.481 48.555L48.5557 99.5196L99.5203 437.445Z" fill="url(#paint20_linear_678_4497)" fill-opacity="0.2"></path><defs><linearGradient id="paint0_linear_678_4497" x1="9.41796" y1="243" x2="476.581" y2="243" gradientUnits="userSpaceOnUse"><stop offset="0.15625" stop-color="#19687D" stop-opacity="0"></stop><stop offset="1" stop-color="#19687D"></stop></linearGradient><linearGradient id="paint1_linear_678_4497" x1="12.2461" y1="243" x2="473.758" y2="243" gradientUnits="userSpaceOnUse"><stop offset="0.15625" stop-color="#19687D" stop-opacity="0"></stop><stop offset="1" stop-color="#19687D"></stop></linearGradient><linearGradient id="paint2_linear_678_4497" x1="47.0937" y1="243" x2="438.908" y2="243" gradientUnits="userSpaceOnUse"><stop offset="0.15625" stop-color="#19687D" stop-opacity="0"></stop><stop offset="1" stop-color="#19687D"></stop></linearGradient><linearGradient id="paint3_linear_678_4497" x1="-1.06219e-05" y1="243" x2="486" y2="243" gradientUnits="userSpaceOnUse"><stop offset="0.15625" stop-color="#19687D" stop-opacity="0"></stop><stop offset="1" stop-color="#19687D"></stop></linearGradient><linearGradient id="paint4_linear_678_4497" x1="40.5" y1="243" x2="445.5" y2="243" gradientUnits="userSpaceOnUse"><stop offset="0.15625" stop-color="#19687D" stop-opacity="0"></stop><stop offset="1" stop-color="#19687D"></stop></linearGradient><linearGradient id="paint5_linear_678_4497" x1="16.9531" y1="243" x2="469.046" y2="243" gradientUnits="userSpaceOnUse"><stop offset="0.15625" stop-color="#19687D" stop-opacity="0"></stop><stop offset="1" stop-color="#19687D"></stop></linearGradient><linearGradient id="paint6_linear_678_4497" x1="6.59374" y1="243" x2="479.408" y2="243" gradientUnits="userSpaceOnUse"><stop offset="0.15625" stop-color="#19687D" stop-opacity="0"></stop><stop offset="1" stop-color="#19687D"></stop></linearGradient><linearGradient id="paint7_linear_678_4497" x1="60.2773" y1="243" x2="425.719" y2="243" gradientUnits="userSpaceOnUse"><stop offset="0.15625" stop-color="#19687D" stop-opacity="0"></stop><stop offset="1" stop-color="#19687D"></stop></linearGradient><linearGradient id="paint8_linear_678_4497" x1="1.8828" y1="243" x2="485.057" y2="243" gradientUnits="userSpaceOnUse"><stop offset="0.15625" stop-color="#19687D" stop-opacity="0"></stop><stop offset="1" stop-color="#19687D"></stop></linearGradient><linearGradient id="paint9_linear_678_4497" x1="29.1992" y1="243" x2="456.804" y2="243" gradientUnits="userSpaceOnUse"><stop offset="0.15625" stop-color="#19687D" stop-opacity="0"></stop><stop offset="1" stop-color="#19687D"></stop></linearGradient><linearGradient id="paint10_linear_678_4497" x1="25.4297" y1="243" x2="460.569" y2="243" gradientUnits="userSpaceOnUse"><stop offset="0.15625" stop-color="#19687D" stop-opacity="0"></stop><stop offset="1" stop-color="#19687D"></stop></linearGradient><linearGradient id="paint11_linear_678_4497" x1="2.82811" y1="243" x2="483.177" y2="243" gradientUnits="userSpaceOnUse"><stop offset="0.15625" stop-color="#19687D" stop-opacity="0"></stop><stop offset="1" stop-color="#19687D"></stop></linearGradient><linearGradient id="paint12_linear_678_4497" x1="66.8711" y1="243" x2="419.127" y2="243" gradientUnits="userSpaceOnUse"><stop offset="0.15625" stop-color="#19687D" stop-opacity="0"></stop><stop offset="1" stop-color="#19687D"></stop></linearGradient><linearGradient id="paint13_linear_678_4497" x1="4.70702" y1="243" x2="481.288" y2="243" gradientUnits="userSpaceOnUse"><stop offset="0.15625" stop-color="#19687D" stop-opacity="0"></stop><stop offset="1" stop-color="#19687D"></stop></linearGradient><linearGradient id="paint14_linear_678_4497" x1="19.7773" y1="243" x2="466.219" y2="243" gradientUnits="userSpaceOnUse"><stop offset="0.15625" stop-color="#19687D" stop-opacity="0"></stop><stop offset="1" stop-color="#19687D"></stop></linearGradient><linearGradient id="paint15_linear_678_4497" x1="35.7891" y1="243" x2="450.208" y2="243" gradientUnits="userSpaceOnUse"><stop offset="0.15625" stop-color="#19687D" stop-opacity="0"></stop><stop offset="1" stop-color="#19687D"></stop></linearGradient><linearGradient id="paint16_linear_678_4497" x1="-1.06219e-05" y1="243" x2="486" y2="243" gradientUnits="userSpaceOnUse"><stop offset="0.15625" stop-color="#19687D" stop-opacity="0"></stop><stop offset="1" stop-color="#19687D"></stop></linearGradient><linearGradient id="paint17_linear_678_4497" x1="52.7461" y1="243" x2="433.258" y2="243" gradientUnits="userSpaceOnUse"><stop offset="0.15625" stop-color="#19687D" stop-opacity="0"></stop><stop offset="1" stop-color="#19687D"></stop></linearGradient><linearGradient id="paint18_linear_678_4497" x1="9.41796" y1="243" x2="476.581" y2="243" gradientUnits="userSpaceOnUse"><stop offset="0.15625" stop-color="#19687D" stop-opacity="0"></stop><stop offset="1" stop-color="#19687D"></stop></linearGradient><linearGradient id="paint19_linear_678_4497" x1="12.2461" y1="243" x2="473.758" y2="243" gradientUnits="userSpaceOnUse"><stop offset="0.15625" stop-color="#19687D" stop-opacity="0"></stop><stop offset="1" stop-color="#19687D"></stop></linearGradient><linearGradient id="paint20_linear_678_4497" x1="47.0937" y1="243" x2="438.908" y2="243" gradientUnits="userSpaceOnUse"><stop offset="0.15625" stop-color="#19687D" stop-opacity="0"></stop><stop offset="1" stop-color="#19687D"></stop></linearGradient></defs></svg>