<svg xmlns="http://www.w3.org/2000/svg" width="445" height="475" viewBox="0 0 445 475" fill="none"><path d="M5.99999 306.769C5.99999 241.964 96.9596 158.688 212.973 118.598C293.88 90.6602 369.325 89.7648 409.92 116.27C427.307 127.629 437.282 143.773 438.795 162.961C443.95 228.43 351.195 315.237 232.027 356.402C151.12 384.34 75.6749 385.235 35.0804 358.73C17.6937 347.371 7.71813 331.227 6.20513 312.039C6.07693 310.299 5.99999 308.534 5.99999 306.769ZM437.641 168.257C437.641 166.517 437.564 164.777 437.436 163.063C435.949 144.029 426.435 128.653 409.176 117.396C368.941 91.1208 293.932 92.0674 213.409 119.877C97.934 159.763 7.35912 242.476 7.35912 306.718C7.35912 308.457 7.43606 310.197 7.56429 311.911C9.05163 330.946 18.5656 346.296 35.8241 357.579C76.0596 383.854 151.069 382.907 231.591 355.097C347.041 315.237 437.641 232.524 437.641 168.257Z" fill="#41B3C5" fill-opacity="0.24"></path><path d="M2.99999 320.524C2.99999 258.974 85.494 174.385 197.114 124.791C280.299 87.846 363.023 78.6096 407.875 101.264C425.699 110.27 436.669 123.56 440.53 140.775C454.441 202.889 368.035 296.818 247.899 350.209C164.715 387.154 81.9906 396.39 37.138 373.736C19.3146 364.73 8.34444 351.44 4.48314 334.225C3.48583 329.812 2.99999 325.245 2.99999 320.524ZM440.684 154.553C440.684 149.909 440.198 145.419 439.226 141.057C435.467 124.252 424.701 111.27 407.262 102.444C362.741 79.9694 280.478 89.2058 197.651 125.997C86.5168 175.36 4.35528 259.385 4.3297 320.396C4.3297 325.04 4.81554 329.53 5.78728 333.891C9.54628 350.696 20.3119 363.678 37.7518 372.504C82.272 394.979 164.536 385.743 247.362 348.952C358.471 299.589 440.684 215.564 440.684 154.553Z" fill="#41B3C5" fill-opacity="0.24"></path><path d="M-4.16095e-05 333.755C-3.90476e-05 275.144 74.4435 190.506 180.986 133.048C266.677 86.8613 354.396 68.776 404.522 86.9894C422.805 93.6241 435.106 104.639 441.089 119.727C463.917 177.288 384.466 276.988 264.006 341.952C178.341 388.139 90.5956 406.224 40.4958 388.011C22.2123 381.376 9.91207 370.361 3.92885 355.273C1.28392 348.612 0.0256233 341.388 0.0256237 333.729L-4.16095e-05 333.755ZM443.682 141.399C443.682 133.868 442.424 126.746 439.83 120.214C434.001 105.51 421.958 94.7513 404.06 88.2446C354.294 70.1593 266.985 88.219 181.653 134.226C75.5477 191.454 1.33526 275.528 1.33526 333.575C1.33525 341.107 2.59352 348.228 5.18712 354.76C11.0163 369.464 23.0597 380.223 40.958 386.73C90.724 404.815 178.033 386.755 263.364 340.748C369.47 283.546 443.682 199.472 443.682 141.399Z" fill="#41B3C5" fill-opacity="0.24"></path><path d="M-1.20839e-05 346.448C-9.62725e-06 290.246 65.8264 206.493 165.271 142.66C251.032 87.6101 341.995 60.3155 397.009 73.1179C415.944 77.5219 429.55 86.4067 437.494 99.5675C469.036 151.852 398.264 256.268 279.73 332.34C193.943 387.39 102.98 414.684 47.9926 401.882C29.0569 397.478 15.4509 388.593 7.50765 375.432C2.43422 367.009 -1.25551e-05 357.228 -1.20839e-05 346.448ZM443.669 128.706C443.669 118.105 441.286 108.504 436.289 100.233C428.551 87.4053 415.227 78.7253 396.676 74.4237C342.021 61.6982 251.468 88.9416 165.988 143.787C48.0695 219.449 -22.4973 323.045 8.66069 374.716C16.399 387.543 29.7231 396.224 48.2744 400.525C102.929 413.251 193.482 386.007 278.962 331.162C378.022 267.611 443.669 184.345 443.669 128.706Z" fill="#41B3C5" fill-opacity="0.24"></path><path d="M1.02559 357.894C1.02559 354.98 1.17937 351.99 1.51253 348.897C7.45833 293.357 65.6607 216.782 149.825 153.804C265.102 67.5165 391.501 34.8008 431.584 80.9095C441.477 92.3089 445.501 107.491 443.502 126.098C437.556 181.638 379.354 258.213 295.19 321.191C179.913 407.504 53.4871 440.194 13.4042 394.085C5.15178 384.603 0.999956 372.462 0.999956 357.919L1.02559 357.894ZM442.656 117.101C442.656 102.865 438.607 91.0309 430.585 81.8041C390.963 36.2066 265.384 68.9989 150.645 154.878C66.7883 217.651 8.7654 293.868 2.87084 349.05C0.923082 367.274 4.81862 382.098 14.4549 393.191C54.0766 438.788 179.656 405.996 294.395 320.117C378.252 257.344 436.249 181.127 442.143 125.945C442.477 122.903 442.63 119.964 442.63 117.101L442.656 117.101Z" fill="#41B3C5" fill-opacity="0.24"></path><path d="M3.99999 368.56C3.99999 314.734 55.2555 235.378 135.069 165.865C245.385 69.7979 374.355 23.6865 422.565 63.0824C434.516 72.848 440.708 86.9967 440.99 105.118C441.834 158.945 390.4 239.044 309.947 309.121C199.631 405.214 70.6603 451.325 22.4499 411.903C10.4997 402.138 4.30702 387.989 4.02556 369.868C4.02556 369.432 4.02556 368.996 4.02556 368.56L3.99999 368.56ZM439.659 106.426C439.659 105.99 439.659 105.554 439.659 105.144C439.378 87.4325 433.339 73.6426 421.721 64.1589C373.997 25.1475 245.794 71.2332 135.964 166.916C55.7929 236.737 4.5118 316.451 5.38182 369.868C5.66332 387.579 11.7024 401.369 23.32 410.853C71.0441 449.864 199.247 403.778 309.077 308.095C388.583 238.839 439.659 159.893 439.659 106.426Z" fill="#41B3C5" fill-opacity="0.24"></path><path d="M7.99995 377.086C7.99996 325.524 50.9816 249.679 120.92 179.417C224.982 74.8583 355.207 15.7395 411.193 47.6554C425.426 55.7497 433.848 68.9412 436.28 86.8459C443.244 138.178 399.212 220.119 324.078 295.606C220.015 400.165 89.7905 459.258 33.8043 427.342C19.571 419.248 11.1487 406.056 8.71675 388.152C8.23036 384.591 7.99995 380.903 7.99995 377.061L7.99995 377.086ZM435.666 97.9883C435.666 94.1974 435.436 90.5601 434.949 87.0252C432.594 69.5816 424.377 56.723 410.527 48.8337C355.027 17.1995 225.545 76.2158 121.867 180.365C52.1848 250.37 9.3311 325.857 9.3311 377.035C9.3311 380.826 9.56151 384.463 10.0479 387.998C12.4031 405.442 20.6205 418.3 34.4699 426.19C89.9697 457.824 219.452 398.808 323.13 294.658C392.812 224.627 435.666 149.167 435.666 97.9883Z" fill="#41B3C5" fill-opacity="0.24"></path><path d="M13 383.368C13 334.162 48.1038 262.87 107.568 194.007C204.058 82.2765 334.063 10.7548 397.399 34.5783C414.168 40.8921 425.015 53.1872 429.605 71.106C441.964 119.443 405.783 201.829 337.448 280.993C240.957 392.724 110.952 464.245 47.6166 440.422C30.8468 434.108 20.0003 421.813 15.4103 403.894C13.7949 397.606 13.0256 390.73 13.0256 383.368L13 383.368ZM430.63 91.7087C430.63 84.4237 429.861 77.6498 428.271 71.4383C423.81 53.9797 413.245 41.9912 396.911 35.8564C334.063 12.2118 204.725 83.5545 108.593 194.901C40.5138 273.734 4.4612 355.633 16.7181 403.562C21.1798 421.02 31.7442 433.009 48.0782 439.144C110.927 462.788 240.265 391.445 336.396 280.099C395.629 211.491 430.63 140.557 430.63 91.7087Z" fill="#41B3C5" fill-opacity="0.24"></path><path d="M20 387.394C20 370.299 23.6299 350.565 30.8643 328.883C43.2624 291.644 65.7579 250.279 95.9479 209.298C183.016 91.0976 310.55 7.44487 380.286 22.8222C399.816 27.1279 413.186 38.5584 420.011 56.8062C428.268 78.8727 426.248 109.756 414.157 146.097C401.759 183.336 379.263 224.701 349.073 265.682C262.006 383.882 134.471 467.535 64.7354 452.183C45.2052 447.878 31.8357 436.447 25.0104 418.199C21.6871 409.306 20.0256 398.952 20.0256 387.419L20 387.394ZM423.59 87.2533C423.59 76.0791 422.005 65.9813 418.758 57.2931C412.086 39.5066 399.049 28.3581 380.005 24.1549C310.754 8.88009 183.808 92.3022 97.0471 210.118C37.2295 291.311 9.468 372.811 26.2629 417.713C32.9349 435.499 45.9721 446.648 65.0166 450.851C134.267 466.126 261.213 382.703 347.974 264.887C396.212 199.431 423.59 133.77 423.59 87.2533Z" fill="#41B3C5" fill-opacity="0.24"></path><path d="M27 387.78C27 344.261 47.3753 286.202 85.2626 225.456C161.906 102.554 285.743 7.83672 361.339 14.3133C383.606 16.2077 400.249 26.9593 409.427 45.3652C430.722 88.0134 411.676 166.27 359.728 249.57C283.085 372.446 159.248 467.163 83.652 460.687C61.3849 458.792 44.7421 448.041 35.5643 429.635C29.7866 418.09 27 403.933 27 387.755L27 387.78ZM416.687 87.2967C416.687 71.3228 413.926 57.3712 408.225 45.9795C399.124 27.7529 383.325 17.5644 361.211 15.6701C286.076 9.24467 162.801 103.655 86.3874 226.172C48.6279 286.714 28.3038 344.517 28.3038 387.729C28.3038 403.703 31.0648 417.654 36.7658 429.046C45.867 447.273 61.6661 457.461 83.7799 459.355C158.915 465.781 282.19 371.371 358.604 248.853C396.363 188.311 416.687 130.508 416.687 87.2967Z" fill="#41B3C5" fill-opacity="0.24"></path><path d="M34 385.138C34 345.565 48.2753 295.234 75.6981 242.059C140.898 115.732 259.662 10.7667 340.495 8.05159C366.047 7.20634 385.884 16.7603 397.853 35.6633C422.738 74.9548 411.795 150.567 369.276 232.941C304.102 359.294 185.313 464.259 104.505 466.948C78.953 467.794 59.1163 458.24 47.1476 439.337C38.3313 425.403 34 406.884 34 385.138ZM409.667 89.9133C409.667 68.4233 405.413 50.1607 396.699 36.4061C384.987 17.9129 365.56 8.58949 340.521 9.40913C260.123 12.0986 141.872 116.731 76.9027 242.7C34.6151 324.664 23.6459 399.738 48.2752 438.62C59.9877 457.113 79.4143 466.436 104.454 465.617C184.851 462.927 303.103 358.295 368.072 232.326C395.418 179.331 409.667 129.205 409.667 89.8877L409.667 89.9133Z" fill="#41B3C5" fill-opacity="0.24"></path><path d="M41 377.771C41 343.835 50.0982 303.02 68.1407 258.956C120.577 130.96 232.369 17.0297 317.354 5.0357C346.237 0.943923 369.482 9.02519 384.603 28.41C412.974 64.7501 410.078 134.899 376.863 216.018C324.427 344.04 212.635 457.945 127.676 469.964C98.7926 474.056 75.5473 465.975 60.4265 446.59C47.4584 429.993 41.0256 406.312 41.0256 377.797L41 377.771ZM402.671 97.1775C402.671 68.9698 396.315 45.5955 383.527 29.2284C368.713 10.2527 345.904 2.35047 317.533 6.36553C232.984 18.3084 121.679 131.855 69.3965 259.493C36.3612 340.178 33.3883 409.79 61.4772 445.772C76.2906 464.747 99.1001 472.649 127.471 468.634C212.02 456.692 323.325 343.145 375.608 215.507C393.599 171.571 402.671 130.935 402.671 97.2031L402.671 97.1775Z" fill="#41B3C5" fill-opacity="0.24"></path><path d="M48.0256 366.602C48.0256 339.591 52.9086 308.868 62.7771 276.07C101.407 147.622 204.361 25.676 292.307 4.27212C324.418 -3.56231 351.262 2.73596 369.925 22.4756C401.014 55.3239 405.615 121.302 382.248 198.93C343.618 327.378 240.639 449.324 152.692 470.728C120.581 478.562 93.7373 472.264 75.0742 452.524C57.127 433.553 48 403.521 48 366.576L48.0256 366.602ZM395.67 108.373C395.67 71.8121 386.671 42.1385 368.954 23.3973C350.623 4.04169 324.239 -2.12856 292.614 5.57785C205.102 26.9049 102.558 148.415 64.0554 276.454C40.8415 353.647 45.3411 419.113 76.0713 451.603C94.402 470.958 120.786 477.129 152.385 469.422C239.897 448.095 342.442 326.585 380.944 198.545C390.787 165.851 395.645 135.256 395.645 108.373L395.67 108.373Z" fill="#41B3C5" fill-opacity="0.24"></path><path d="M53.0256 350.492C53.0256 332.526 54.9188 313.229 58.7565 292.985C82.9336 165.916 175.958 37.5158 266.091 6.75309C301.372 -5.2756 332.048 -1.18073 354.818 18.6026C388.435 47.8042 400.178 108.869 386.261 181.988C362.083 309.083 269.059 437.483 178.926 468.246C143.645 480.274 112.969 476.179 90.1995 456.422C65.8944 435.307 53 397.507 53 350.543L53.0256 350.492ZM390.661 124.43C390.661 77.876 377.946 40.4846 353.922 19.6008C331.561 0.175699 301.321 -3.8424 266.526 8.03274C176.802 38.6419 84.1872 166.607 60.0868 293.266C46.2713 365.899 57.861 426.503 91.0949 455.372C113.481 474.823 143.696 478.815 178.516 466.94C268.24 436.331 360.855 308.366 384.956 181.707C388.793 161.539 390.661 142.293 390.661 124.43Z" fill="#41B3C5" fill-opacity="0.24"></path><path d="M56 331.837C56 324.626 56.2814 317.209 56.8187 309.614C65.8752 185.588 147.435 52.2271 238.64 12.334C276.171 -4.08358 311.707 -2.62595 338.672 16.4512C375.154 42.2538 393.19 96.5443 388.176 165.385C379.119 289.412 297.559 422.773 206.354 462.666C168.823 479.084 133.288 477.626 106.323 458.549C73.8572 435.585 56 390.091 56 331.837ZM387.639 143.112C387.639 85.3179 369.986 40.208 337.879 17.5252C310.914 -1.52633 276.785 -2.90725 239.178 13.5615C148.408 53.2756 67.2056 186.125 58.1746 309.717C53.1858 378.098 71.0175 431.928 107.09 457.449C134.055 476.501 168.184 477.882 205.791 461.413C296.561 421.699 377.763 288.85 386.794 165.258C387.357 157.688 387.613 150.298 387.613 143.112L387.639 143.112Z" fill="#41B3C5" fill-opacity="0.24"></path><path d="M56.0257 309.999C56.0257 194.37 122.961 67.0904 210.377 20.4137C250.235 -0.889065 289.862 -2.70697 321.892 15.2929C360.801 37.1334 385.106 85.9352 388.571 149.152C395.115 268.776 326.076 405.784 234.656 454.586C194.772 475.889 155.171 477.707 123.115 459.707C84.2061 437.867 59.9011 389.065 56.4363 325.848C56.154 320.599 56 315.299 56 309.999L56.0257 309.999ZM387.647 165.027C387.647 159.727 387.518 154.478 387.21 149.229C383.771 86.4729 359.723 38.0807 321.225 16.4707C289.605 -1.27313 250.466 0.544776 210.993 21.6171C124.013 68.0634 57.3859 194.83 57.3603 309.973C57.3603 315.273 57.4886 320.522 57.7966 325.771C61.2357 388.527 85.284 436.919 123.782 458.529C155.402 476.273 194.567 474.455 234.014 453.383C320.994 406.937 387.647 280.17 387.647 165.027Z" fill="#41B3C5" fill-opacity="0.24"></path><path d="M54 288.447C54 187.756 105.179 80.412 181.588 31.8193C222.803 5.59107 266.041 -0.0639984 303.311 15.8777C344.525 33.5082 374.648 76.4713 385.996 133.815C408.409 247.147 353.414 385.939 263.403 443.181C222.188 469.409 178.95 475.064 141.68 459.122C100.466 441.492 70.3423 398.529 58.9949 341.185C55.6137 324.066 54 306.359 54 288.472L54 288.447ZM389.659 186.579C389.659 168.744 388.045 151.113 384.69 134.071C373.419 77.1878 343.577 34.5573 302.798 17.1315C265.938 1.36896 223.161 6.99844 182.331 32.9708C92.7555 89.9309 38.0418 228.083 60.3525 340.929C71.5975 397.812 101.439 440.443 142.244 457.868C179.104 473.631 221.881 468.002 262.711 442.029C338.762 393.667 389.684 286.809 389.684 186.579L389.659 186.579Z" fill="#41B3C5" fill-opacity="0.24"></path><path d="M49 269.242C49 183.269 87.7862 94.1438 152.745 45.712C194.346 14.6797 240.705 4.6346 283.252 17.396C327.591 30.7212 362.462 66.8785 381.446 119.205C419.772 224.935 379.783 364.055 292.258 429.297C250.658 460.33 204.324 470.375 161.751 457.588C117.413 444.263 82.5413 408.105 63.5576 355.778C53.6819 328.539 49 299.07 49 269.216L49 269.242ZM394.673 205.819C394.673 176.119 390.017 146.804 380.192 119.667C361.362 67.7498 326.797 31.8743 282.869 18.7029C240.731 6.04399 194.807 16.0379 153.564 46.7883C88.9375 94.9895 50.356 183.679 50.356 269.19C50.356 298.89 55.0123 328.206 64.8368 355.343C83.6671 407.285 118.232 443.135 162.161 456.332C204.298 468.991 250.223 458.997 291.465 428.247C356.092 380.046 394.673 291.356 394.673 205.845L394.673 205.819Z" fill="#41B3C5" fill-opacity="0.24"></path><path d="M41 253.556C41 181.968 70.2888 109.256 124.002 62.9796C164.863 27.7738 213.558 12.945 261.101 21.2542C308.388 29.5124 348.865 59.6814 375.081 106.213C429.307 202.422 405.036 339.615 321.01 412.02C280.149 447.226 231.454 462.055 183.911 453.746C136.624 445.488 96.1469 415.319 69.9303 368.787C50.3704 334.067 41.0256 293.977 41.0256 253.556L41 253.556ZM402.629 221.495C402.629 181.278 393.336 141.445 373.878 106.904C347.866 60.7297 307.722 30.7907 260.845 22.6093C213.712 14.3767 165.426 29.0777 124.872 64.0278C41.3072 136.025 17.1645 272.45 71.0824 368.147C97.0941 414.321 137.238 444.26 184.116 452.442C231.249 460.674 279.534 445.973 320.088 411.023C373.494 365.003 402.629 292.674 402.629 221.495Z" fill="#41B3C5" fill-opacity="0.24"></path><path d="M31.0256 242.789C31.0256 184.055 53.0027 125.038 95.9848 82.1331C134.797 43.4034 184.584 23.5519 236.162 26.2415C286.692 28.8542 332.949 52.9578 366.413 94.044C436.131 179.7 428.328 313.768 349.016 392.867C310.204 431.597 260.417 451.448 208.838 448.759C158.309 446.146 112.052 422.042 78.5873 380.956C46.6833 341.74 31 292.38 31 242.789L31.0256 242.789ZM412.67 232.211C412.67 182.928 397.089 133.875 365.39 94.8893C332.181 54.0848 286.283 30.1862 236.111 27.5734C184.917 24.9095 135.513 44.6329 96.9569 83.0808C18.1309 161.718 10.3789 294.941 79.6618 380.085C112.871 420.89 158.769 444.788 208.941 447.401C260.135 450.065 309.539 430.341 348.095 391.894C390.821 349.27 412.67 290.561 412.67 232.211Z" fill="#41B3C5" fill-opacity="0.24"></path><path d="M19 237.36C19 190.041 35.3613 142.517 68.7241 104.058C142.312 19.2773 271.128 10.1617 355.931 83.7267C440.707 157.292 449.848 286.139 376.286 370.919C302.724 455.725 173.882 464.841 89.1053 391.276C42.761 351.075 19.0256 294.358 19.0256 237.36L19 237.36ZM424.653 237.642C424.653 181.002 401.072 124.696 355.035 84.7509C270.795 11.6724 142.824 20.7368 69.7483 104.979C36.6159 143.183 20.357 190.4 20.357 237.386C20.357 294.026 43.9388 350.332 89.9759 390.277C174.215 463.356 302.187 454.291 375.262 370.049C408.394 331.845 424.653 284.628 424.653 237.642Z" fill="#41B3C5" fill-opacity="0.24"></path></svg>