<svg xmlns="http://www.w3.org/2000/svg" width="567" height="553" viewBox="0 0 567 553" fill="none"><g clip-path="url(#clip0_654_1919)"><path d="M284.401 442.671L94.6487 170.931L95.495 170.848L424.942 141.503L424.584 142.28L284.391 442.688L284.401 442.671ZM96.4482 171.764L284.239 440.701L423.331 142.633L96.4482 171.764Z" fill="#41B3C5" fill-opacity="0.14"></path><path d="M438.078 155.403L271.9 443.233L106.552 155.883L438.061 155.393L438.078 155.403ZM271.897 441.263L436.361 156.402L108.263 156.87L271.897 441.263Z" fill="#41B3C5" fill-opacity="0.14"></path><path d="M449.926 170.389L449.432 171.088L259.367 442.702L119.707 141.946L449.917 170.407L449.926 170.389ZM259.551 440.726L448.139 171.234L121.338 143.071L259.551 440.726Z" fill="#41B3C5" fill-opacity="0.14"></path><path d="M460.438 186.389L246.965 441.079L246.678 440.272L134.046 129.196L134.896 129.344L460.448 186.372L460.438 186.389ZM247.305 439.147L458.563 187.068L135.544 130.473L247.305 439.147Z" fill="#41B3C5" fill-opacity="0.14"></path><path d="M469.506 203.226L234.741 438.392L149.411 117.749L469.506 203.226ZM235.257 436.471L467.598 203.726L150.812 119.153L235.257 436.471Z" fill="#41B3C5" fill-opacity="0.14"></path><path d="M477.078 220.801L476.415 221.356L222.797 434.631L165.71 107.687L477.078 220.801ZM223.477 432.782L475.117 221.156L166.98 109.199L223.477 432.782Z" fill="#41B3C5" fill-opacity="0.14"></path><path d="M483.091 238.984L211.235 429.854L182.833 99.0831L183.608 99.439L483.091 238.984ZM212.089 428.059L481.123 239.153L183.973 100.702L212.089 428.059Z" fill="#41B3C5" fill-opacity="0.14"></path><path d="M487.497 257.615L200.14 424.067L200.63 91.9922L487.48 257.605L487.497 257.615ZM201.131 422.351L485.514 257.614L201.623 93.7093L201.131 422.351Z" fill="#41B3C5" fill-opacity="0.14"></path><path d="M490.257 276.575L189.583 417.354L218.971 86.4947L219.666 86.9879L490.257 276.575ZM190.728 415.727L488.285 276.398L219.808 88.2826L190.728 415.727Z" fill="#41B3C5" fill-opacity="0.14"></path><path d="M491.35 295.694L490.544 295.984L179.664 409.728L237.707 82.5987L491.35 295.694ZM180.943 408.224L489.423 295.36L238.397 84.4844L180.943 408.224Z" fill="#41B3C5" fill-opacity="0.14"></path><path d="M490.801 314.851L170.451 401.274L256.728 80.3787L490.801 314.851ZM171.839 399.856L488.868 314.329L257.205 82.2785L171.839 399.856Z" fill="#41B3C5" fill-opacity="0.14"></path><path d="M488.571 333.882L161.997 392.023L275.838 79.7877L488.554 333.872L488.571 333.882ZM163.517 390.772L486.717 333.223L276.194 81.778L163.517 390.772Z" fill="#41B3C5" fill-opacity="0.14"></path><path d="M484.682 352.665L483.836 352.748L154.389 382.093L294.939 80.9078L295.428 81.6018L484.692 352.648L484.682 352.665ZM156.009 380.946L482.892 351.815L295.102 82.8779L156.009 380.946Z" fill="#41B3C5" fill-opacity="0.14"></path><path d="M479.189 371.026L147.68 371.516L313.868 83.6684L479.199 371.009L479.189 371.026ZM149.387 370.533L477.478 370.038L313.861 85.6552L149.387 370.533Z" fill="#41B3C5" fill-opacity="0.14"></path><path d="M472.126 388.868L141.916 360.408L332.475 88.0951L472.136 388.851L472.126 388.868ZM143.703 359.563L470.505 387.726L332.292 90.0715L143.703 359.563Z" fill="#41B3C5" fill-opacity="0.14"></path><path d="M463.53 406.009L462.681 405.861L137.139 348.816L350.622 94.1093L463.54 405.992L463.53 406.009ZM138.986 348.144L462.006 404.74L350.245 96.0655L138.986 348.144Z" fill="#41B3C5" fill-opacity="0.14"></path><path d="M453.488 422.338L133.393 336.86L368.158 101.694L453.488 422.338ZM135.3 336.36L452.094 420.961L367.648 103.642L135.3 336.36Z" fill="#41B3C5" fill-opacity="0.14"></path><path d="M442.04 437.741L130.699 324.62L384.98 110.789L442.067 437.733L442.04 437.741ZM132.633 324.272L440.77 436.229L384.273 112.646L132.633 324.272Z" fill="#41B3C5" fill-opacity="0.14"></path><path d="M429.328 452.094L428.553 451.738L129.07 312.193L400.909 121.313L429.328 452.094ZM131.047 312.008L428.198 450.458L400.082 123.101L131.047 312.008Z" fill="#41B3C5" fill-opacity="0.14"></path><path d="M415.407 465.268L128.557 299.655L415.897 133.193L415.407 465.268ZM130.523 299.646L414.414 463.551L414.889 134.899L130.523 299.646Z" fill="#41B3C5" fill-opacity="0.14"></path><path d="M400.401 477.197L399.706 476.704L129.115 287.117L429.772 146.328L400.401 477.197ZM131.087 287.294L399.564 475.409L428.644 147.965L131.087 287.294Z" fill="#41B3C5" fill-opacity="0.14"></path><path d="M384.409 487.757L130.772 274.688L131.578 274.398L442.458 160.654L442.308 161.506L384.409 487.757ZM132.717 275.032L383.743 485.908L441.196 162.168L132.717 275.032Z" fill="#41B3C5" fill-opacity="0.14"></path><path d="M367.563 496.908L133.5 262.419L453.85 175.995L367.563 496.908ZM135.406 262.948L367.052 494.989L452.444 177.403L135.406 262.948Z" fill="#41B3C5" fill-opacity="0.14"></path><path d="M350.006 504.528L349.454 503.866L137.28 250.46L463.838 192.31L350.006 504.528ZM139.125 251.136L349.665 502.592L462.342 193.597L139.125 251.136Z" fill="#41B3C5" fill-opacity="0.14"></path><path d="M331.835 510.604L142.082 238.864L142.928 238.78L472.375 209.436L472.017 210.213L331.835 510.604ZM143.882 239.697L331.672 508.634L470.765 210.565L143.882 239.697Z" fill="#41B3C5" fill-opacity="0.14"></path><path d="M479.411 227.227L313.222 515.074L147.892 227.734L479.401 227.244L479.411 227.227ZM313.229 513.087L477.694 228.226L149.602 228.721L313.229 513.087Z" fill="#41B3C5" fill-opacity="0.14"></path></g><defs><clipPath id="clip0_654_1919"><rect width="386" height="437" fill="white" transform="translate(0.273438 334.393) rotate(-60)"></rect></clipPath></defs></svg>