<svg xmlns="http://www.w3.org/2000/svg" width="492" height="492" viewBox="0 0 492 492" fill="none"><g clip-path="url(#clip0_655_2288)"><path d="M176.418 482.045L176.107 481.475L9.95508 176.418L315.582 9.95508L315.893 10.5254L482.045 315.582L176.418 482.045ZM11.718 176.936L176.936 480.282L480.282 315.064L315.064 11.718L11.718 176.936Z" fill="#0F667B" fill-opacity="0.5"></path><path d="M324.397 479.271L12.7559 324.396L13.041 323.826L167.63 12.7549L479.272 167.629L478.987 168.2L324.397 479.271ZM14.4928 323.8L323.827 477.508L477.535 168.174L168.201 14.4918L14.4928 323.8Z" fill="#0F667B" fill-opacity="0.5"></path><path d="M99.8877 444.013L99.784 443.365L47.9863 99.8882L392.112 47.9868L392.215 48.6349L444.013 392.112L99.8877 444.013ZM49.464 100.977L100.977 442.536L442.535 391.023L391.023 49.4645L49.464 100.977Z" fill="#0F667B" fill-opacity="0.5"></path><path d="M239.882 492L239.441 491.533L0 239.882L252.118 0L252.559 0.466646L492 252.118L239.882 492ZM1.84066 239.934L239.934 490.185L490.185 252.092L252.066 1.84066L1.84066 239.934Z" fill="#0F667B" fill-opacity="0.5"></path><path d="M382.104 451.039L40.9863 382.105L109.92 40.9868L451.038 109.921L382.104 451.039ZM42.5159 381.094L381.093 449.509L449.509 110.932L110.931 42.5164L42.5159 381.094Z" fill="#0F667B" fill-opacity="0.5"></path><path d="M156.12 475.071L155.86 474.475L16.9297 156.119L335.908 16.9287L336.167 17.525L475.098 335.907L156.12 475.097V475.071ZM18.6407 156.793L156.794 473.386L473.387 335.233L335.234 18.6397L18.6407 156.793Z" fill="#0F667B" fill-opacity="0.5"></path><path d="M303.761 485.208L303.217 484.871L6.79297 303.761L188.24 6.79248L188.785 7.1295L485.208 188.24L303.761 485.208ZM8.58178 303.346L303.346 483.445L483.445 188.681L188.681 8.58129L8.58178 303.346Z" fill="#0F667B" fill-opacity="0.5"></path><path d="M83.1932 430.533L61.4941 83.1927L408.834 61.4937L430.533 408.834L83.1932 430.533ZM62.8682 84.4111L84.4116 429.159L429.159 407.615L407.616 62.8677L62.8682 84.4111Z" fill="#0F667B" fill-opacity="0.5"></path><path d="M218.469 490.548L218.054 490.03L1.47852 218.468L1.99701 218.053L273.533 1.47754L273.948 1.99603L490.549 273.558L490.031 273.973L218.469 490.574V490.548ZM3.29325 218.675L218.676 488.733L488.734 273.35L273.326 3.29227L3.29325 218.675Z" fill="#0F667B" fill-opacity="0.5"></path><path d="M363.698 462.109L363.076 461.927L29.8906 363.698L30.0721 363.076L128.301 29.8911L128.923 30.0726L462.108 128.301L461.927 128.924L363.698 462.109ZM31.498 362.843L362.816 460.501L460.475 129.183L129.182 31.4984L31.498 362.843Z" fill="#0F667B" fill-opacity="0.5"></path><path d="M136.493 466.386L136.286 465.764L25.6387 136.494L26.2609 136.286L355.505 25.6396L355.713 26.2618L466.359 355.532L465.737 355.74L136.467 466.386H136.493ZM27.2719 137.298L137.297 464.727L464.726 354.703L354.702 27.2729L27.2719 137.298Z" fill="#0F667B" fill-opacity="0.5"></path><path d="M282.709 489.33L2.66992 282.71L209.316 2.67041L489.329 209.317L282.683 489.33H282.709ZM4.48465 282.424L282.424 487.515L487.515 209.576L209.575 4.48514L4.48465 282.424Z" fill="#0F667B" fill-opacity="0.5"></path><path d="M415.625 424.284L67.7148 415.626V414.977L76.3737 67.7153L424.284 76.3742V77.0223L415.625 424.284ZM69.0629 414.355L414.381 422.936L422.962 77.6186L77.644 69.0375L69.0629 414.355Z" fill="#0F667B" fill-opacity="0.5"></path><path d="M197.262 487.204L4.79688 197.261L294.739 4.7959L487.205 294.738L197.262 487.204ZM6.58568 197.624L197.625 485.415L485.416 294.375L294.376 6.58471L6.58568 197.624Z" fill="#0F667B" fill-opacity="0.5"></path><path d="M344.437 471.545L343.841 471.312L20.4551 344.436L147.59 20.4546L148.186 20.6879L471.546 147.564L344.411 471.519L344.437 471.545ZM22.1402 343.684L343.685 469.86L469.861 148.315L148.316 22.1397L22.1402 343.684Z" fill="#0F667B" fill-opacity="0.5"></path><path d="M117.699 455.99L117.543 455.368L36.0098 117.698L374.302 36.0093L374.457 36.6315L455.991 374.301L117.699 455.99ZM37.5912 118.657L118.658 454.435L454.435 373.368L373.343 37.5907L37.5912 118.657Z" fill="#0F667B" fill-opacity="0.5"></path><path d="M261.347 491.611L260.854 491.171L0.414062 261.348L0.854783 260.855L230.652 0.415039L231.144 0.85576L491.61 230.679L491.17 231.171L261.347 491.637V491.611ZM2.2288 261.244L261.243 489.797L489.796 230.782L230.781 2.22977L2.2288 261.244Z" fill="#0F667B" fill-opacity="0.5"></path><path d="M399.449 438.388L53.6133 399.449L53.6911 398.8L92.5523 53.6123L438.389 92.5513L438.311 93.1994L399.449 438.388ZM55.0651 398.308L398.309 436.962L436.963 93.7179L93.7189 55.0641L55.0651 398.308Z" fill="#0F667B" fill-opacity="0.5"></path><path d="M176.418 482.045L176.107 481.475L9.95508 176.418L315.582 9.95508L315.893 10.5254L482.045 315.582L176.418 482.045ZM11.718 176.936L176.936 480.282L480.282 315.064L315.064 11.718L11.718 176.936Z" fill="#0F667B" fill-opacity="0.5"></path><path d="M324.397 479.271L12.7559 324.396L13.041 323.826L167.63 12.7549L479.272 167.629L478.987 168.2L324.397 479.271ZM14.4928 323.8L323.827 477.508L477.535 168.174L168.201 14.4918L14.4928 323.8Z" fill="#0F667B" fill-opacity="0.5"></path><path d="M99.8877 444.013L99.784 443.365L47.9863 99.8882L392.112 47.9868L392.215 48.6349L444.013 392.112L99.8877 444.013ZM49.464 100.977L100.977 442.536L442.535 391.023L391.023 49.4645L49.464 100.977Z" fill="#0F667B" fill-opacity="0.5"></path></g><defs><clipPath id="clip0_655_2288"><rect width="492" height="492" fill="white"></rect></clipPath></defs></svg>