<?xml version="1.0" encoding="UTF-8"?> <svg xmlns="http://www.w3.org/2000/svg" id="Layer_1" data-name="Layer 1" viewBox="0 0 100 100"><defs><style>.cls-1{fill:#365b63;}.cls-2{fill:#fff;}</style></defs><circle class="cls-1" cx="50.27" cy="49.89" r="49.5"></circle><path class="cls-2" d="M66,73.94a11.92,11.92,0,0,1-4.81-3.8q-3-3.8-5.28-7t-5.37-8.49a6.63,6.63,0,0,0-2.75-2.75,15.57,15.57,0,0,0-4.69-1.27c-.7,0-1,.5-1,1.49V65.6a6,6,0,0,0,1.23,4,6.65,6.65,0,0,0,4.06,2,4.81,4.81,0,0,1,1.64.56,1,1,0,0,1,.52.85c0,.6-.64.9-1.93.9-.5,0-2.16-.08-5-.23a34,34,0,0,0-3.8-.22c-1.69,0-3.33.08-4.92.22q-.73,0-2.31.12c-1,.07-2,.11-2.9.11-1.29,0-1.94-.3-1.94-.9a1,1,0,0,1,.52-.85,4.89,4.89,0,0,1,1.64-.56,8,8,0,0,0,4.1-1.68,5,5,0,0,0,1.19-3.68V33.87a18.12,18.12,0,0,0-.3-3.9,2.75,2.75,0,0,0-1.19-1.79,8.15,8.15,0,0,0-3-.86A3,3,0,0,1,28,26.8a1.24,1.24,0,0,1-.56-1c0-.3.18-.53.56-.71a3.28,3.28,0,0,1,1.37-.26q2.39,0,4.77.15l3.57.08c.85,0,2-.05,3.5-.15a53.84,53.84,0,0,1,5.67-.3q8.4,0,12.8,3.05t4.4,9.09a10.84,10.84,0,0,1-2.61,7.48A18.6,18.6,0,0,1,55,48.92a.34.34,0,0,0-.23.37l.15.6q4.47,6.78,7.41,10.61a57.9,57.9,0,0,0,7.12,7.63,8.69,8.69,0,0,0,3.94,2.24,25.15,25.15,0,0,0,5.29.44c.74,0,1.12.35,1.12,1q0,1.71-2.16,2.49a14.43,14.43,0,0,1-4.92.78A17.23,17.23,0,0,1,66,73.94ZM53,45.64a10.72,10.72,0,0,0,2.79-7.52c0-3.52-.72-6.22-2.16-8.08s-4-2.79-7.82-2.79A2.81,2.81,0,0,0,43,28.66a15.48,15.48,0,0,0-.86,5.51Q42,38.94,42,46a2.33,2.33,0,0,0,.86,2.16,5.38,5.38,0,0,0,2.72.53A9.54,9.54,0,0,0,53,45.64Z"></path></svg> 