<svg xmlns="http://www.w3.org/2000/svg" width="400" height="400" viewBox="0 0 400 400" fill="none"><g opacity="0.5" clip-path="url(#clip0_513_3083)"><path d="M172.491 2.15465C187.453 2.15465 202.555 15.5735 213.915 38.9736C223.128 57.9588 234.295 92.7013 235.141 150.434L235.159 151.594L236.276 151.254C269.943 140.871 300.366 135.61 326.714 135.601C348.595 135.601 366.89 139.353 379.61 146.464C391.301 152.999 397.774 162.186 397.835 172.342C397.923 187.322 384.539 202.451 361.132 213.846C342.138 223.086 307.371 234.288 249.554 235.135L248.394 235.152L248.734 236.269C259.596 271.474 264.848 303.066 264.351 330.157C263.915 353.915 259.003 372.839 250.139 384.888C243.909 393.351 236.092 397.827 227.507 397.827C212.545 397.827 197.443 384.408 186.084 361.008C176.871 342.023 165.703 307.281 164.857 249.548L164.84 248.388L163.723 248.728C130.055 259.111 99.6328 264.38 73.2848 264.38C51.4038 264.38 33.1086 260.629 20.3883 253.518C8.69753 246.983 2.22395 237.796 2.17162 227.64C2.08436 212.659 15.4677 197.531 38.8755 186.136C57.8599 176.896 92.6357 165.693 150.453 164.847L151.613 164.83L151.273 163.713C140.411 128.508 135.159 96.9154 135.656 69.8334C136.092 46.0756 141.004 27.1514 149.868 15.1023C156.089 6.63924 163.915 2.16338 172.5 2.16338L172.491 2.15465ZM234.836 152.388C234.784 152.388 234.714 152.379 234.644 152.327C234.557 152.266 234.504 152.161 234.504 152.057C233.841 93.5389 222.622 58.4213 213.321 39.2702C202.076 16.1057 187.192 2.81774 172.491 2.81774C164.133 2.81774 156.49 7.19762 150.392 15.4863C141.615 27.4306 136.747 46.2239 136.31 69.8334C135.804 97.2469 141.214 129.285 152.372 165.048C152.407 165.144 152.39 165.257 152.329 165.336C152.268 165.423 152.172 165.475 152.067 165.475C93.4559 166.138 58.3136 177.394 39.1547 186.72C15.9824 198.002 2.74742 212.912 2.82594 227.631C2.87828 237.534 9.22972 246.521 20.7111 252.933C33.3355 259.983 51.5085 263.709 73.2848 263.709C99.9643 263.709 130.84 258.29 165.058 247.611C165.093 247.602 165.127 247.594 165.162 247.594C165.232 247.594 165.302 247.62 165.363 247.655C165.442 247.716 165.494 247.812 165.494 247.917C166.157 306.434 177.377 341.552 186.677 360.712C197.923 383.876 212.807 397.164 227.507 397.164C235.866 397.164 243.508 392.784 249.598 384.496C258.375 372.56 263.252 353.767 263.679 330.148C264.185 302.726 258.776 270.697 247.617 234.934C247.582 234.838 247.609 234.725 247.67 234.637C247.731 234.55 247.827 234.498 247.931 234.498C306.534 233.835 341.676 222.58 360.844 213.253C384.016 201.971 397.251 187.061 397.172 172.342C397.12 162.439 390.769 153.452 379.287 147.048C366.663 139.999 348.49 136.273 326.714 136.273C300.025 136.273 269.149 141.691 234.941 152.371C234.906 152.371 234.871 152.388 234.845 152.388L234.836 152.388Z" fill="url(#paint0_linear_513_3083)" fill-opacity="0.3"></path><path d="M301.335 33.3294C313.017 33.3294 321.863 39.0616 326.243 49.4616C331.923 62.9503 329.68 82.9128 319.935 105.676C308.759 131.772 288.004 160.861 259.893 189.819L259.082 190.656L260.111 191.197C297.81 211.125 327.552 233.591 346.135 256.162C367.981 282.695 367.824 300.546 365.791 308.826C362.589 321.852 350.811 329.32 333.476 329.32C318.408 329.32 299.956 323.71 280.117 313.092C257.686 301.078 234.147 283.183 210.172 259.905L209.335 259.094L208.794 260.123C190.56 294.604 170.014 322.698 149.354 341.378C131.312 357.694 113.305 366.68 98.6562 366.68C86.9654 366.68 78.11 360.948 73.7303 350.539C68.0507 337.051 70.2929 317.088 80.0468 294.334C91.2229 268.246 111.987 239.149 140.089 210.2L140.9 209.362L139.871 208.821C102.172 188.894 72.4304 166.427 53.8385 143.856C31.9837 117.315 32.1407 99.4726 34.1823 91.1927C37.3929 78.1665 49.1622 70.698 66.4977 70.698C81.5736 70.698 100.017 76.3081 119.857 86.9262C142.296 98.9404 165.826 116.835 189.801 140.113L190.638 140.924L191.179 139.895C209.405 105.414 229.96 77.3201 250.619 58.6402C268.661 42.3247 286.66 33.3381 301.317 33.3381L301.326 33.3381L301.335 33.3294ZM333.484 328.649C350.48 328.649 362.022 321.363 365.154 308.66C368.574 294.779 361.455 275.793 345.629 256.581C326.854 233.774 296.684 211.107 258.384 191.031C258.288 190.979 258.227 190.892 258.209 190.787C258.192 190.682 258.227 190.578 258.297 190.499C286.93 161.218 308.035 131.789 319.333 105.405C329.009 82.8081 331.251 63.0375 325.641 49.7146C321.375 39.5764 312.746 33.9925 301.343 33.9925C286.852 33.9925 269.002 42.9267 251.082 59.1288C230.186 78.0268 209.422 106.548 191.031 141.622C190.979 141.718 190.891 141.779 190.787 141.797L190.769 141.797C190.647 141.797 190.569 141.762 190.507 141.71C166.175 117.917 142.305 99.6819 119.56 87.502C99.8252 76.9362 81.4777 71.3524 66.5152 71.3524C49.5199 71.3524 37.9774 78.6376 34.8453 91.341C31.4253 105.222 38.5445 124.199 54.3707 143.42C73.1458 166.218 103.315 188.894 141.624 208.97C141.72 209.022 141.781 209.109 141.799 209.214C141.816 209.319 141.781 209.423 141.711 209.493C113.078 238.782 91.9732 268.203 80.675 294.587C70.9996 317.184 68.7574 336.955 74.3672 350.277C78.6335 360.424 87.2707 366.017 98.6823 366.017C113.165 366.017 131.007 357.092 148.927 340.889C169.822 321.991 190.586 293.47 208.968 258.396C209.021 258.3 209.108 258.239 209.213 258.221L209.23 258.221C209.352 258.221 209.431 258.256 209.492 258.309C233.825 282.101 257.695 300.336 280.439 312.508C300.174 323.073 318.522 328.657 333.484 328.657L333.484 328.649Z" fill="url(#paint1_linear_513_3083)" fill-opacity="0.3"></path><path d="M279.122 19.1078C289.243 19.1078 297.531 24.3514 302.452 33.8702C309.178 46.879 309.396 66.9986 303.062 90.5208C295.812 117.446 280.082 148.585 257.564 180.561L256.892 181.512L257.992 181.888C348.578 212.843 385.003 256.337 380.518 283.646C378.049 298.696 363.191 307.674 340.796 307.674C308.419 307.674 265.32 289.875 219.429 257.558L218.478 256.886L218.103 257.986C204.711 297.195 187.716 329.469 168.958 351.324C152.609 370.379 135.535 380.876 120.886 380.876C110.757 380.876 102.469 375.632 97.5485 366.096C90.8219 353.087 90.6125 332.967 96.9465 309.445C104.197 282.52 119.927 251.39 142.445 219.413L143.116 218.462L142.017 218.087C51.4309 187.14 15.0061 143.655 19.4905 116.338C21.9596 101.287 36.8174 92.3094 59.2131 92.3094C91.5896 92.3094 134.689 110.108 180.579 142.425L181.53 143.097L181.905 141.997C195.306 102.788 212.293 70.5147 231.05 48.6589C247.4 29.6038 264.474 19.1078 279.122 19.1078ZM340.796 307.011C362.842 307.011 377.447 298.234 379.864 283.541C382.193 269.346 372.849 251.468 354.231 234.49C332.132 214.344 298.255 196.196 256.255 182.01C256.16 181.975 256.081 181.896 256.046 181.792C256.011 181.696 256.029 181.582 256.09 181.495C279.061 149.108 295.088 117.594 302.417 90.3463C308.707 66.9898 308.506 47.0361 301.858 34.1756C296.99 24.7528 289.121 19.7709 279.122 19.7709C240.953 19.7796 202.844 82.0402 182.01 143.734C181.975 143.83 181.897 143.908 181.801 143.943C181.766 143.952 181.731 143.961 181.696 143.961C181.626 143.961 181.565 143.943 181.504 143.9C154.703 124.879 103.167 92.9812 59.2044 92.9812C37.1576 92.9812 22.5528 101.758 20.1361 116.451C17.8067 130.646 27.1506 148.524 45.7687 165.502C67.8678 185.648 101.745 203.796 143.736 217.982C143.841 218.017 143.91 218.096 143.945 218.192C143.98 218.288 143.963 218.401 143.902 218.48C120.93 250.866 104.903 282.381 97.5746 309.62C91.2843 332.976 91.4762 352.921 98.1243 365.79C102.993 375.222 110.862 380.204 120.878 380.204C159.03 380.204 197.147 317.943 217.981 256.241C218.016 256.145 218.095 256.066 218.191 256.031C218.225 256.023 218.26 256.014 218.295 256.014C218.365 256.014 218.435 256.031 218.487 256.075C245.289 275.095 296.824 306.993 340.787 306.993L340.796 307.011Z" fill="url(#paint2_linear_513_3083)" fill-opacity="0.3"></path><path d="M145.83 8.59423C173.46 8.59423 210.635 51.4507 226.968 145.557L227.168 146.7L228.215 146.185C281.548 120.011 318.234 114.514 339.618 114.514C369.988 114.514 389.801 125.682 391.319 143.664C392.558 158.383 381.059 175.108 359.754 189.557C334.959 206.369 298.552 219.308 254.45 226.96L253.307 227.161L253.822 228.208C291.511 305.004 290.412 355.765 276.819 377.665C271.236 386.651 263.41 391.406 254.188 391.406C226.558 391.406 189.383 348.55 173.05 254.443L172.85 253.3L171.803 253.815C118.461 279.99 81.7836 285.486 60.4087 285.486C30.0387 285.486 10.2254 274.319 8.70736 256.337C7.46849 241.618 18.9673 224.892 40.2725 210.444C65.0675 193.631 101.483 180.692 145.577 173.04L146.72 172.84L146.205 171.793C108.515 94.9878 109.615 44.2353 123.207 22.3359C128.782 13.3493 136.608 8.59423 145.839 8.59423L145.83 8.59423ZM226.915 147.529C226.863 147.529 226.811 147.52 226.767 147.494C226.671 147.45 226.61 147.354 226.593 147.25C219.177 103.617 206.587 67.3562 190.194 42.3769C176.383 21.3238 160.208 9.25731 145.839 9.25732C136.853 9.25732 129.227 13.8989 123.775 22.6849C110.156 44.6192 109.24 95.616 147.514 172.944C147.557 173.04 147.557 173.145 147.514 173.241C147.461 173.337 147.374 173.407 147.27 173.424C90.7611 183.03 58.0879 199.163 40.639 211.002C19.5432 225.311 8.14028 241.819 9.36168 256.293C10.8449 273.9 30.4051 284.832 60.3999 284.832C81.9581 284.832 118.993 279.222 172.946 252.515C172.989 252.489 173.042 252.48 173.094 252.48C173.146 252.48 173.199 252.489 173.242 252.515C173.338 252.559 173.399 252.655 173.417 252.751C180.833 296.384 193.422 332.653 209.815 357.632C223.635 378.685 239.801 390.752 254.179 390.752C263.166 390.752 270.799 386.11 276.244 377.324C289.862 355.39 290.779 304.393 252.504 227.065C252.461 226.969 252.461 226.855 252.504 226.768C252.548 226.681 252.644 226.611 252.749 226.594C309.266 216.988 341.93 200.855 359.379 189.016C380.475 174.707 391.878 158.199 390.656 143.725C389.173 126.118 369.613 115.186 339.618 115.186C318.051 115.186 281.025 120.796 227.072 147.503C227.029 147.529 226.976 147.538 226.924 147.538L226.915 147.529Z" fill="url(#paint3_linear_513_3083)" fill-opacity="0.3"></path><path d="M120.921 19.0906C135.578 19.0906 152.643 29.5866 168.984 48.6417C187.733 70.5062 204.719 102.788 218.111 142.006L218.486 143.106L219.437 142.434C265.319 110.143 308.41 92.362 340.795 92.3532C363.217 92.3532 378.075 101.34 380.544 116.39C385.028 143.699 348.595 187.184 257.982 218.113L256.883 218.489L257.555 219.44C280.055 251.416 295.777 282.555 303.018 309.48C309.343 333.002 309.125 353.122 302.399 366.131C297.478 375.658 289.19 380.902 279.069 380.902C264.412 380.902 247.347 370.406 231.006 351.351C212.257 329.486 195.271 297.204 181.879 257.977L181.503 256.878L180.552 257.55C134.67 289.84 91.5715 307.63 59.1949 307.63C36.773 307.63 21.9152 298.644 19.4462 283.593C14.9618 256.285 51.4039 212.8 142.008 181.879L143.107 181.504L142.435 180.553C119.935 148.576 104.213 117.437 96.9719 90.5123C90.6467 66.99 90.8647 46.8705 97.5913 33.8617C102.512 24.3342 110.8 19.0906 120.921 19.0906ZM218.312 143.97C218.312 143.97 218.242 143.969 218.207 143.952C218.103 143.917 218.024 143.839 217.989 143.743C197.164 82.023 159.064 19.7537 120.912 19.7537C110.905 19.7537 103.044 24.7356 98.1671 34.1671C91.5191 47.0363 91.3185 66.9813 97.6001 90.3378C104.929 117.577 120.938 149.1 143.892 181.486C143.953 181.574 143.971 181.678 143.936 181.783C143.901 181.888 143.831 181.966 143.726 181.992C101.727 196.17 67.8409 214.309 45.733 234.446C27.1063 251.416 17.7537 269.293 20.0831 283.489C22.4997 298.19 37.1133 306.967 59.1775 306.967C103.131 306.967 154.658 275.087 181.469 256.084C181.53 256.04 181.591 256.023 181.66 256.023C181.695 256.023 181.73 256.023 181.765 256.04C181.861 256.075 181.948 256.154 181.975 256.25C202.817 317.969 240.917 380.248 279.069 380.247C289.076 380.247 296.937 375.266 301.805 365.834C308.453 352.965 308.654 333.02 302.372 309.663C295.044 282.424 279.034 250.901 256.072 218.515C256.01 218.427 255.993 218.323 256.028 218.218C256.063 218.122 256.141 218.044 256.237 218.009C298.237 203.831 332.123 185.692 354.231 165.555C372.857 148.576 382.21 130.708 379.881 116.512C377.464 101.811 362.85 93.0338 340.795 93.0338C296.824 93.0338 245.306 124.914 218.504 143.917C218.443 143.961 218.382 143.978 218.312 143.978L218.312 143.97Z" fill="url(#paint4_linear_513_3083)" fill-opacity="0.3"></path><path d="M254.215 8.61055C263.445 8.61055 271.28 13.3656 276.855 22.3522C290.439 44.2429 291.521 95.0041 253.805 171.8L253.29 172.847L254.433 173.048C298.527 180.717 334.934 193.656 359.72 210.478C381.016 224.926 392.515 241.66 391.276 256.379C389.758 274.352 369.954 285.52 339.601 285.52C318.218 285.52 281.531 280.024 228.181 253.814L227.134 253.299L226.933 254.442C210.601 348.531 173.409 391.388 145.778 391.388C136.548 391.388 128.713 386.633 123.138 377.646C109.554 355.755 108.472 304.994 146.18 228.198L146.694 227.151L145.551 226.95C101.458 219.281 65.0507 206.342 40.2645 189.521C18.968 175.063 7.46916 158.338 8.70802 143.619C10.2261 125.646 30.0219 114.478 60.3831 114.478C81.7668 114.478 118.453 119.975 171.803 146.184L172.85 146.699L173.051 145.556C189.401 51.4671 226.593 8.61928 254.224 8.61927L254.215 8.61055ZM339.619 284.857C369.596 284.857 389.139 273.925 390.631 256.327C391.852 241.852 380.458 225.345 359.371 211.027C341.922 199.188 309.258 183.047 252.758 173.423C252.653 173.406 252.566 173.336 252.514 173.249C252.47 173.153 252.47 173.048 252.514 172.952C290.814 95.6236 289.915 44.6355 276.305 22.7012C270.852 13.9153 263.219 9.27363 254.224 9.27363C239.846 9.27363 223.679 21.3489 209.86 42.3932C193.458 67.3725 180.868 103.624 173.435 147.249C173.417 147.353 173.348 147.441 173.26 147.484C173.208 147.51 173.156 147.519 173.103 147.519C173.051 147.519 172.999 147.51 172.955 147.484C118.985 120.751 81.95 115.132 60.3918 115.132C30.4058 115.132 10.863 126.065 9.3711 143.663C8.14967 158.137 19.5438 174.645 40.6309 188.962C58.0798 200.802 90.7443 216.943 147.244 226.566C147.349 226.584 147.436 226.654 147.488 226.741C147.532 226.828 147.532 226.942 147.488 227.037C109.188 304.366 110.086 355.354 123.697 377.288C129.149 386.074 136.783 390.716 145.77 390.716C160.148 390.716 176.314 378.641 190.134 357.596C206.536 332.617 219.125 296.365 226.558 252.741C226.576 252.636 226.646 252.549 226.733 252.497C226.776 252.47 226.829 252.462 226.881 252.462C226.933 252.462 226.986 252.47 227.029 252.497C280.999 279.23 318.034 284.848 339.601 284.848L339.619 284.857Z" fill="url(#paint5_linear_513_3083)" fill-opacity="0.3"></path><path d="M227.553 2.16426C236.129 2.16426 243.955 6.64012 250.184 15.1033C259.048 27.1523 263.951 46.0765 264.379 69.8343C264.867 96.925 259.607 128.509 248.736 163.723L248.396 164.831L249.556 164.848C307.364 165.712 342.131 176.923 361.116 186.172C384.515 197.575 397.89 212.704 397.802 227.685C397.741 237.832 391.276 247.019 379.594 253.545C366.883 260.647 348.605 264.399 326.741 264.399C300.385 264.399 269.945 259.129 236.26 248.729L235.152 248.389L235.134 249.549C234.271 307.281 223.095 342.015 213.873 361C202.505 384.401 187.403 397.819 172.44 397.819C163.864 397.819 156.038 393.344 149.809 384.88C140.954 372.831 136.042 353.907 135.614 330.149C135.126 303.05 140.387 271.466 151.257 236.261L151.597 235.153L150.437 235.136C92.62 234.272 57.8617 223.069 38.8772 213.821C15.4782 202.417 2.10353 187.288 2.18205 172.308C2.24311 162.161 8.70799 152.974 20.3901 146.439C33.1016 139.337 51.3794 135.576 73.2429 135.576C99.5996 135.576 130.039 140.846 163.724 151.246L164.833 151.586L164.85 150.426C165.714 92.7022 176.89 57.9598 186.112 38.9744C197.48 15.5744 212.582 2.15556 227.544 2.15556L227.553 2.16426ZM326.75 263.753C348.5 263.753 366.665 260.028 379.28 252.987C390.744 246.583 397.096 237.596 397.148 227.702C397.235 212.983 384 198.072 360.837 186.782C341.686 177.447 306.553 166.183 247.951 165.511C247.846 165.511 247.75 165.459 247.689 165.372C247.628 165.284 247.61 165.18 247.645 165.084C258.821 129.32 264.231 97.2827 263.733 69.8605C263.306 46.2423 258.437 27.4489 249.661 15.5133C243.562 7.22468 235.928 2.8448 227.562 2.8448C212.861 2.8448 197.977 16.1328 186.722 39.2886C177.413 58.4484 166.185 93.5572 165.513 152.066C165.513 152.171 165.461 152.267 165.373 152.328C165.321 152.372 165.251 152.389 165.181 152.389C165.147 152.389 165.112 152.389 165.077 152.372C130.842 141.675 99.9573 136.248 73.2778 136.248C51.5103 136.248 33.3459 139.973 20.7303 147.023C9.26634 153.427 2.9149 162.414 2.86256 172.317C2.77531 187.035 16.0191 201.946 39.1826 213.227C58.3328 222.554 93.4663 233.818 152.069 234.499C152.173 234.499 152.269 234.551 152.33 234.63C152.391 234.717 152.409 234.821 152.383 234.926C141.207 270.689 135.797 302.727 136.295 330.141C136.722 353.759 141.591 372.552 150.367 384.496C156.457 392.785 164.1 397.165 172.466 397.165C187.167 397.165 202.051 383.877 213.306 360.721C222.606 341.57 233.843 306.453 234.515 247.944C234.515 247.839 234.567 247.743 234.655 247.682C234.707 247.638 234.777 247.621 234.846 247.621C234.881 247.621 234.916 247.621 234.942 247.638C269.186 258.335 300.079 263.762 326.768 263.762L326.75 263.753Z" fill="url(#paint6_linear_513_3083)" fill-opacity="0.3"></path><path d="M98.7081 33.3029C113.356 33.3029 131.355 42.2895 149.397 58.605C170.048 77.2849 190.594 105.396 208.82 139.886L209.361 140.915L210.198 140.104C234.173 116.835 257.703 98.9488 280.142 86.9434C299.982 76.3252 318.434 70.7151 333.501 70.7151C350.846 70.7151 362.624 78.1836 365.834 91.2185C367.867 99.4984 368.024 117.341 346.16 143.873C327.569 166.436 297.809 188.893 260.102 208.821L259.073 209.362L259.884 210.199C287.977 239.157 308.732 268.255 319.9 294.351C329.636 317.114 331.879 337.076 326.199 350.565C321.819 360.974 312.973 366.706 301.291 366.706C286.642 366.706 268.644 357.719 250.601 341.404C229.95 322.724 209.404 294.613 191.179 260.123L190.638 259.094L189.8 259.905C165.826 283.174 142.296 301.06 119.856 313.066C100.017 323.684 81.5645 329.294 66.4973 329.294C49.153 329.294 37.375 321.825 34.1644 308.799C32.1316 300.519 31.9745 282.677 53.8381 256.145C72.43 233.582 102.189 211.124 139.888 191.197L140.917 190.656L140.106 189.818C112.013 160.86 91.2574 131.763 80.09 105.667C70.3535 82.9037 68.1113 62.9413 73.791 49.4526C78.1707 39.0439 87.0172 33.3116 98.6993 33.3116L98.7081 33.3029ZM209.23 141.797C209.125 141.779 209.029 141.718 208.985 141.622C190.603 106.531 169.847 78.0004 148.952 59.0936C131.032 42.8828 113.191 33.9573 98.7081 33.9573C87.3052 33.9573 78.6767 39.5499 74.4104 49.6882C68.8005 63.0111 71.0427 82.7903 80.7095 105.379C91.9989 131.763 113.095 161.192 141.711 190.481C141.781 190.56 141.816 190.665 141.798 190.769C141.781 190.874 141.72 190.961 141.624 191.014C103.315 211.081 73.1366 233.748 54.3528 256.546C38.5179 275.758 31.3987 294.743 34.8187 308.625C37.9421 321.328 49.4933 328.613 66.506 328.613C81.4685 328.613 99.8074 323.029 119.551 312.464C142.296 300.292 166.166 282.066 190.498 258.291C190.559 258.23 190.638 258.195 190.725 258.195C190.882 258.212 190.978 258.282 191.022 258.369C209.404 293.452 230.16 321.991 251.055 340.889C268.975 357.1 286.817 366.026 301.299 366.026C312.693 366.026 321.331 360.442 325.597 350.295C331.207 336.972 328.965 317.192 319.298 294.604C308.008 268.22 286.913 238.791 258.296 209.502C258.226 209.423 258.192 209.318 258.209 209.222C258.226 209.118 258.288 209.03 258.384 208.978C296.693 188.902 326.879 166.244 345.663 143.446C361.498 124.233 368.617 105.248 365.197 91.3669C362.074 78.6635 350.523 71.3782 333.51 71.3782C318.548 71.3782 300.2 76.9621 280.465 87.5279C257.72 99.6991 233.85 117.925 209.518 141.701C209.457 141.762 209.369 141.797 209.282 141.797L209.23 141.797Z" fill="url(#paint7_linear_513_3083)" fill-opacity="0.3"></path><path d="M80.1949 50.7266C90.6207 50.7266 108.209 54.3387 132.734 71.5354C154.876 87.0569 177.272 109.846 199.31 139.249L200.008 140.183L200.706 139.249C222.735 109.855 245.14 87.0831 267.283 71.5616C291.825 54.3561 309.413 50.7441 319.839 50.7441C333.667 50.7441 343.779 57.2964 347.557 68.7172C352.163 82.6334 347.513 102.116 334.444 123.588C319.455 148.218 293.971 174.402 260.748 199.302L259.815 200L260.748 200.698C293.962 225.608 319.446 251.791 334.426 276.43C347.487 297.902 352.137 317.385 347.522 331.301C343.735 342.722 333.641 349.274 319.822 349.274C309.387 349.274 291.798 345.662 267.265 328.465C245.123 312.944 222.727 290.163 200.689 260.751L199.991 259.818L199.293 260.751C177.263 290.146 154.859 312.917 132.716 328.439C108.174 345.644 90.5858 349.248 80.1513 349.248C66.3143 349.248 56.2113 342.695 52.4337 331.275C47.8271 317.358 52.4773 297.876 65.5465 276.404C80.5352 251.774 106.019 225.59 139.242 200.69L140.176 199.992L139.242 199.294C106.028 174.384 80.5526 148.201 65.5727 123.57C52.5121 102.107 47.862 82.616 52.4685 68.6998C56.2549 57.279 66.3492 50.7266 80.1775 50.7179L80.1862 50.7179L80.1949 50.7266ZM200.008 141.073C199.904 141.073 199.808 141.02 199.746 140.942C177.447 110.963 154.772 87.7985 132.359 72.085C113.06 58.5528 95.0178 51.3984 80.1949 51.3984C66.4626 51.3984 56.8482 57.628 53.1054 68.9267C50.4706 76.875 48.6647 94.5079 66.1485 123.239C81.2942 148.14 107.154 174.585 140.943 199.739C141.022 199.8 141.074 199.904 141.074 200.009C141.074 200.114 141.022 200.21 140.943 200.271C107.145 225.425 81.2681 251.87 66.1223 276.762C48.6385 305.501 50.4445 323.126 53.0705 331.074C56.8134 342.373 66.4364 348.593 80.16 348.593C94.9829 348.593 113.025 341.439 132.341 327.898C154.754 312.185 177.429 289.029 199.729 259.068C199.79 258.98 199.886 258.937 199.999 258.937C200.113 258.937 200.2 258.989 200.27 259.068C222.57 289.037 245.245 312.211 267.658 327.924C286.965 341.465 305.007 348.62 319.83 348.62C333.545 348.62 343.159 342.399 346.902 331.1C349.537 323.152 351.343 305.519 333.868 276.779C318.731 251.878 292.863 225.425 259.073 200.271C258.986 200.21 258.942 200.105 258.942 200C258.942 199.896 258.994 199.8 259.073 199.73C292.872 174.585 318.74 148.131 333.894 123.239C351.378 94.4992 349.572 76.875 346.946 68.9266C343.203 57.6279 333.58 51.4071 319.856 51.4071C305.033 51.4071 286.991 58.5615 267.675 72.0938C245.262 87.8072 222.587 110.963 200.287 140.924C200.226 141.011 200.122 141.055 200.017 141.055L200.008 141.073Z" fill="url(#paint8_linear_513_3083)" fill-opacity="0.3"></path><path d="M200.026 -1.30353e-05C208.253 -1.37546e-05 216.271 4.24898 223.225 12.2933C233.048 23.6531 240.159 41.7746 243.788 64.6861C247.915 90.7298 247.47 121.633 242.471 156.559L242.305 157.711L243.457 157.545C262.424 154.831 280.466 153.453 297.077 153.453C367.789 153.453 400 177.586 400 200.009C400 212.25 390.831 223.636 374.184 232.081C355.505 241.556 328.861 246.565 297.13 246.565C280.501 246.565 262.441 245.186 243.448 242.464L242.296 242.298L242.462 243.45C247.461 278.367 247.897 309.27 243.762 335.305C240.124 358.217 233.013 376.329 223.19 387.698C216.236 395.742 208.21 400 199.991 400C191.773 400 183.738 395.742 176.784 387.698C166.969 376.329 159.859 358.217 156.221 335.305C152.094 309.27 152.539 278.358 157.538 243.441L157.704 242.289L156.552 242.455C137.576 245.169 119.543 246.547 102.931 246.547C32.2195 246.547 0.00874302 222.414 0.00874106 199.983C0.00874003 188.248 9.00367 176.766 24.6903 168.477C43.3083 158.635 70.3542 153.427 102.888 153.427C119.517 153.427 137.576 154.805 156.561 157.527L157.712 157.693L157.547 156.541C152.548 121.633 152.111 90.7298 156.247 64.6948C159.885 41.7833 166.995 23.6706 176.819 12.3021C183.772 4.24901 191.799 -0.00874034 200.026 -0.00874106L200.026 -1.30353e-05ZM241.912 158.435C241.825 158.435 241.738 158.4 241.677 158.339C241.598 158.26 241.563 158.156 241.581 158.051C246.789 122.532 247.313 91.1573 243.134 64.7908C239.522 42.0014 232.464 24.0021 222.719 12.7296C215.896 4.83354 208.053 0.663072 200.026 0.663073C191.991 0.663074 184.139 4.84227 177.308 12.747C167.571 24.0195 160.513 42.0189 156.892 64.8083C152.705 91.1748 153.219 122.549 158.428 158.051C158.445 158.156 158.41 158.26 158.332 158.339C158.271 158.4 158.184 158.435 158.096 158.435C138.492 155.564 119.935 154.107 102.888 154.107C71.2441 154.107 44.7043 159.089 26.1124 168.521C9.69291 176.844 0.654339 188.021 0.65434 200C0.654341 211.979 9.70161 223.165 26.1211 231.488C44.7217 240.92 71.2703 245.902 102.914 245.902C119.97 245.902 138.51 244.453 158.035 241.591L158.053 241.591C158.175 241.591 158.262 241.626 158.314 241.687C158.393 241.766 158.428 241.871 158.41 241.975C153.202 277.477 152.678 308.86 156.857 335.227C160.469 358.016 167.527 376.015 177.264 387.288C184.087 395.184 191.939 399.363 199.974 399.363C208.009 399.363 215.852 395.193 222.675 387.288C232.411 376.015 239.478 358.016 243.09 335.227C247.278 308.86 246.763 277.486 241.555 241.975C241.537 241.871 241.572 241.766 241.651 241.687C241.712 241.626 241.799 241.591 241.886 241.591C261.473 244.462 280.038 245.919 297.103 245.919C328.73 245.919 355.27 240.937 373.861 231.514C390.298 223.173 399.337 211.988 399.337 200.009C399.337 188.029 390.29 176.844 373.87 168.521C355.27 159.089 328.712 154.107 297.069 154.107C280.021 154.107 261.473 155.556 241.947 158.417L241.895 158.417L241.912 158.435Z" fill="url(#paint9_linear_513_3083)" fill-opacity="0.3"></path><path d="M172.483 2.16393C187.446 2.16393 202.548 15.5828 213.907 38.9829C223.129 57.9594 234.296 92.7106 235.142 150.443L235.16 151.603L236.268 151.263C269.944 140.872 300.375 135.611 326.714 135.611C348.595 135.611 366.882 139.362 379.602 146.473C391.293 152.999 397.767 162.187 397.828 172.342C397.915 187.323 384.532 202.452 361.124 213.855C342.131 223.104 307.364 234.298 249.538 235.153L248.377 235.17L248.718 236.278C259.58 271.483 264.832 303.076 264.343 330.166C263.907 353.924 258.995 372.848 250.131 384.897C243.91 393.361 236.085 397.836 227.508 397.836C212.546 397.836 197.444 384.418 186.076 361.018C176.854 342.032 165.687 307.29 164.832 249.557L164.814 248.397L163.698 248.737C130.021 259.129 99.5901 264.39 73.2509 264.39C51.3699 264.39 33.0833 260.638 20.3631 253.527C8.67226 247.001 2.19872 237.814 2.14635 227.658C2.05913 212.677 15.4425 197.549 38.8502 186.145C57.8434 176.897 92.6105 165.703 150.428 164.848L151.588 164.83L151.248 163.713C140.386 128.509 135.134 96.9247 135.622 69.834C136.058 46.0762 140.97 27.152 149.826 15.1029C156.055 6.63109 163.881 2.15523 172.457 2.15523L172.483 2.16393ZM234.837 152.389C234.767 152.389 234.697 152.362 234.636 152.328C234.558 152.266 234.505 152.17 234.497 152.066C233.834 93.5481 222.605 58.4306 213.305 39.2795C202.059 16.1237 187.175 2.83577 172.474 2.83577C164.108 2.83577 156.474 7.22439 150.375 15.513C141.598 27.4573 136.73 46.2507 136.294 69.8601C135.797 97.2824 141.197 129.311 152.364 165.075C152.399 165.171 152.373 165.284 152.312 165.371C152.251 165.458 152.155 165.511 152.05 165.511C93.4393 166.174 58.2971 177.438 39.1381 186.765C15.9659 198.046 2.72215 212.957 2.8094 227.675C2.86174 237.578 9.21318 246.565 20.6946 252.969C33.3189 260.019 51.492 263.744 73.2596 263.744C99.9478 263.744 130.824 258.326 165.05 247.638C165.085 247.629 165.111 247.62 165.146 247.62C165.216 247.62 165.285 247.647 165.346 247.682C165.434 247.743 165.477 247.839 165.486 247.943C166.149 306.461 177.378 341.579 186.678 360.73C197.924 383.894 212.808 397.173 227.508 397.173C235.866 397.173 243.509 392.793 249.599 384.505C258.376 372.561 263.244 353.767 263.68 330.149C264.177 302.727 258.777 270.689 247.61 234.935C247.575 234.839 247.601 234.725 247.662 234.638C247.723 234.559 247.819 234.507 247.924 234.507C306.535 233.844 341.677 222.58 360.836 213.253C384.008 201.972 397.252 187.061 397.165 172.342C397.112 162.44 390.761 153.453 379.279 147.049C366.655 139.999 348.473 136.274 326.714 136.274C300.035 136.274 269.15 141.692 234.924 152.38C234.889 152.389 234.863 152.397 234.828 152.397L234.837 152.389Z" fill="url(#paint10_linear_513_3083)" fill-opacity="0.3"></path><path d="M301.316 33.3207C313.007 33.3207 321.854 39.0529 326.234 49.4616C331.913 62.9503 329.671 82.9128 319.926 105.676C308.758 131.763 287.994 160.861 259.893 189.819L259.081 190.656L260.111 191.197C297.809 211.125 327.56 233.582 346.143 256.154C367.989 282.686 367.841 300.537 365.799 308.817C362.589 321.843 350.81 329.312 333.484 329.312C318.408 329.312 299.964 323.702 280.125 313.083C257.694 301.078 234.155 283.183 210.181 259.897L209.343 259.085L208.802 260.115C190.568 294.604 170.022 322.698 149.371 341.378C131.329 357.694 113.33 366.68 98.6817 366.68C86.9996 366.68 78.1443 360.948 73.7646 350.539C68.085 337.051 70.3271 317.088 80.0724 294.325C91.2397 268.229 112.004 239.14 140.106 210.182L140.917 209.345L139.887 208.804C102.189 188.876 72.4385 166.418 53.8553 143.847C32.0092 117.315 32.1575 99.4638 34.1991 91.1839C37.4009 78.1577 49.179 70.6892 66.5145 70.6892C81.5904 70.6892 100.043 76.2993 119.873 86.9175C142.304 98.9229 165.843 116.818 189.818 140.104L190.655 140.916L191.196 139.886C209.422 105.397 229.976 77.3027 250.627 58.6228C268.669 42.3073 286.668 33.3207 301.316 33.3207ZM333.484 328.64C350.479 328.64 362.021 321.355 365.154 308.651C368.573 294.77 361.454 275.785 345.628 256.572C326.853 233.774 296.675 211.107 258.375 191.031C258.279 190.979 258.218 190.892 258.2 190.787C258.183 190.682 258.218 190.578 258.287 190.499C286.912 161.218 308.008 131.789 319.306 105.405C328.982 82.8081 331.215 63.0288 325.614 49.7146C321.348 39.5676 312.711 33.9837 301.308 33.9837C286.825 33.9837 268.984 42.9093 251.063 59.1113C230.168 78.0094 209.404 106.54 191.022 141.622C190.969 141.718 190.882 141.779 190.777 141.797L190.751 141.797C190.629 141.797 190.55 141.762 190.489 141.71C166.157 117.917 142.287 99.682 119.542 87.5108C99.8072 76.945 81.4683 71.361 66.5058 71.361C49.5018 71.3611 37.9593 78.6463 34.8359 91.3497C31.416 105.231 38.5351 124.216 54.3613 143.428C73.1364 166.226 103.306 188.894 141.615 208.97C141.711 209.022 141.772 209.109 141.789 209.205C141.807 209.31 141.772 209.415 141.702 209.493C113.077 238.774 91.9726 268.203 80.6831 294.587C71.0077 317.184 68.7742 336.963 74.3753 350.277C78.6416 360.424 87.2788 366.008 98.6817 366.008C113.164 366.008 131.006 357.083 148.926 340.881C169.821 321.983 190.585 293.452 208.968 258.37C209.02 258.274 209.107 258.213 209.212 258.195C209.212 258.195 209.23 258.195 209.238 258.195C209.36 258.195 209.439 258.23 209.5 258.283C233.841 282.075 257.712 300.31 280.448 312.481C300.182 323.047 318.53 328.631 333.492 328.631L333.484 328.64Z" fill="url(#paint11_linear_513_3083)" fill-opacity="0.3"></path><path d="M279.105 19.1075C289.234 19.1075 297.522 24.3511 302.443 33.8786C309.169 46.8962 309.379 67.0069 303.054 90.5292C295.804 117.454 280.073 148.593 257.564 180.57L256.892 181.521L257.992 181.896C348.578 212.826 385.003 256.319 380.518 283.628C378.049 298.678 363.191 307.656 340.796 307.656C308.419 307.656 265.32 289.866 219.438 257.558L218.487 256.886L218.112 257.985C204.72 297.204 187.725 329.477 168.976 351.341C152.626 370.397 135.561 380.893 120.904 380.893C110.775 380.893 102.495 375.649 97.5659 366.121C90.8394 353.113 90.63 332.993 96.9552 309.471C104.205 282.546 119.927 251.407 142.445 219.43L143.116 218.479L142.017 218.104C51.4309 187.166 15.0061 143.681 19.4905 116.372C21.9596 101.322 36.8086 92.3352 59.2131 92.3352C91.5896 92.3352 134.689 110.125 180.579 142.433L181.53 143.105L181.905 142.006C195.298 102.788 212.293 70.5144 231.042 48.6499C247.383 29.5947 264.456 19.0987 279.114 19.0987L279.105 19.1075ZM340.796 307.002C362.842 307.002 377.447 298.225 379.864 283.523C382.193 269.328 372.849 251.451 354.231 234.472C332.132 214.326 298.255 196.179 256.255 182.001C256.16 181.966 256.081 181.887 256.046 181.783C256.011 181.687 256.029 181.573 256.09 181.486C279.053 149.108 295.071 117.585 302.408 90.346C308.698 66.9895 308.498 47.0357 301.85 34.1753C296.981 24.7437 289.112 19.7618 279.105 19.7618C240.953 19.7618 202.844 82.0312 182.01 143.733C181.975 143.829 181.897 143.908 181.801 143.943C181.766 143.952 181.731 143.96 181.696 143.96C181.626 143.96 181.556 143.934 181.504 143.899C154.703 124.888 103.176 92.9896 59.2218 92.9896C37.1576 92.9896 22.5528 101.767 20.1449 116.468C17.8154 130.664 27.1593 148.541 45.7774 165.511C67.8765 185.656 101.754 203.795 143.745 217.982C143.841 218.017 143.919 218.095 143.954 218.191C143.989 218.287 143.971 218.401 143.91 218.479C120.939 250.866 104.929 282.38 97.5921 309.628C91.3018 332.984 91.5024 352.938 98.1505 365.799C103.019 375.23 110.888 380.212 120.895 380.212C159.047 380.212 197.156 317.943 217.99 256.24C218.025 256.145 218.103 256.066 218.199 256.031C218.225 256.022 218.26 256.014 218.295 256.014C218.365 256.014 218.435 256.031 218.487 256.075C245.289 275.086 296.824 306.984 340.778 306.984L340.796 307.002Z" fill="url(#paint12_linear_513_3083)" fill-opacity="0.3"></path><path d="M145.82 8.60296C173.451 8.60295 210.626 51.4595 226.958 145.557L227.159 146.7L228.205 146.185C281.547 120.002 318.233 114.505 339.608 114.505C369.978 114.505 389.792 125.673 391.31 143.655C392.549 158.374 381.05 175.099 359.744 189.548C334.958 206.361 298.542 219.3 254.44 226.96L253.297 227.161L253.812 228.208C291.51 305.004 290.411 355.765 276.818 377.665C271.243 386.651 263.418 391.406 254.187 391.406C226.557 391.406 189.373 348.55 173.041 254.452L172.84 253.309L171.793 253.824C118.452 280.007 81.7651 285.504 60.3901 285.504C30.0202 285.504 10.2069 274.336 8.68886 256.354C7.45 241.635 18.9488 224.91 40.254 210.461C65.049 193.64 101.456 180.71 145.558 173.049L146.701 172.848L146.187 171.802C108.497 95.014 109.587 44.2528 123.171 22.3534C128.746 13.358 136.572 8.61169 145.803 8.60296L145.82 8.60296ZM226.906 147.529C226.853 147.529 226.801 147.52 226.757 147.494C226.661 147.45 226.6 147.354 226.583 147.25C219.158 103.617 206.578 67.3562 190.175 42.3769C176.365 21.3325 160.198 9.25731 145.82 9.25732C136.825 9.25732 129.191 13.9077 123.739 22.6936C110.128 44.6367 109.212 95.6248 147.495 172.944C147.548 173.04 147.539 173.145 147.495 173.241C147.452 173.337 147.356 173.398 147.251 173.416C90.7338 183.03 58.0694 199.163 40.6204 211.002C19.5246 225.311 8.12178 241.819 9.34319 256.293C10.8264 273.9 30.3866 284.832 60.3814 284.832C81.9483 284.832 118.975 279.222 172.936 252.506C172.98 252.48 173.032 252.472 173.084 252.472C173.137 252.472 173.189 252.48 173.241 252.506C173.329 252.55 173.398 252.646 173.416 252.742C180.84 296.375 193.43 332.636 209.823 357.615C223.634 378.659 239.809 390.734 254.187 390.734C263.173 390.734 270.807 386.093 276.251 377.307C289.87 355.364 290.777 304.376 252.494 227.047C252.451 226.951 252.451 226.847 252.494 226.751C252.538 226.655 252.634 226.594 252.73 226.576C309.247 216.961 341.912 200.829 359.361 188.989C380.456 174.681 391.859 158.173 390.638 143.699C389.155 126.092 369.594 115.16 339.6 115.16C318.041 115.16 281.006 120.77 227.045 147.485C227.002 147.511 226.949 147.52 226.897 147.52L226.906 147.529Z" fill="url(#paint13_linear_513_3083)" fill-opacity="0.3"></path><path d="M120.921 19.0987C135.569 19.0987 152.643 29.5948 168.975 48.6411C187.724 70.4969 204.719 102.788 218.111 142.006L218.486 143.105L219.437 142.433C265.319 110.134 308.418 92.344 340.795 92.344C363.217 92.344 378.075 101.331 380.544 116.381C385.028 143.69 348.595 187.174 257.991 218.104L256.892 218.479L257.563 219.43C280.064 251.407 295.794 282.537 303.035 309.471C309.361 332.993 309.143 353.113 302.416 366.121C297.495 375.649 289.207 380.893 279.087 380.893C264.43 380.893 247.365 370.397 231.024 351.35C212.275 329.494 195.288 297.204 181.887 257.985L181.512 256.886L180.561 257.558C134.67 289.857 91.5715 307.647 59.2037 307.647C36.7905 307.647 21.924 298.661 19.4549 283.61C14.9705 256.302 51.4127 212.817 142.008 181.887L143.107 181.512L142.435 180.561C119.935 148.584 104.205 117.454 96.9632 90.5292C90.6379 67.007 90.856 46.8962 97.5739 33.8787C102.495 24.3511 110.783 19.0987 120.903 19.0987L120.921 19.0987ZM218.321 143.969C218.321 143.969 218.251 143.969 218.216 143.952C218.12 143.917 218.042 143.847 218.007 143.742C197.173 82.0312 159.081 19.7618 120.921 19.7531C110.905 19.7531 103.044 24.7437 98.1672 34.1753C91.5191 47.0445 91.3185 66.9895 97.6088 90.346C104.937 117.585 120.947 149.099 143.91 181.486C143.971 181.573 143.988 181.678 143.953 181.783C143.918 181.887 143.849 181.957 143.744 181.992C101.744 196.17 67.8583 214.309 45.7505 234.455C27.1237 251.433 17.7711 269.31 20.1093 283.497C22.526 298.198 37.1395 306.976 59.2037 306.976C103.158 306.976 154.693 275.086 181.495 256.075C181.556 256.031 181.617 256.014 181.687 256.014C181.722 256.014 181.756 256.014 181.791 256.031C181.887 256.066 181.966 256.145 182.001 256.24C202.835 317.969 240.935 380.238 279.087 380.238C289.094 380.238 296.954 375.256 301.823 365.825C308.471 352.956 308.671 333.011 302.39 309.654C295.061 282.406 279.052 250.892 256.089 218.505C256.028 218.418 256.01 218.314 256.045 218.209C256.08 218.113 256.159 218.034 256.255 217.999C298.254 203.822 332.14 185.683 354.248 165.537C372.875 148.558 382.228 130.69 379.889 116.494C377.473 101.793 362.859 93.0157 340.795 93.0158C296.841 93.0158 245.306 124.905 218.504 143.917C218.452 143.952 218.382 143.978 218.312 143.978L218.321 143.969Z" fill="url(#paint14_linear_513_3083)" fill-opacity="0.3"></path><path d="M254.205 8.60231C263.436 8.60231 271.262 13.3573 276.845 22.3439C290.438 44.2434 291.52 94.9959 253.813 171.801L253.298 172.848L254.441 173.049C298.534 180.709 334.942 193.657 359.728 210.469C381.024 224.918 392.523 241.652 391.284 256.371C389.766 274.344 369.962 285.512 339.609 285.512C318.225 285.512 281.539 280.015 228.198 253.815L227.151 253.3L226.95 254.443C210.609 348.54 173.425 391.388 145.795 391.388C136.564 391.388 128.738 386.633 123.155 377.647C109.562 355.747 108.48 304.986 146.179 228.19L146.693 227.143L145.551 226.942C101.457 219.282 65.0498 206.343 40.2635 189.521C18.9671 175.073 7.46821 158.338 8.70707 143.628C10.2251 125.655 30.021 114.487 60.3822 114.479C81.7746 114.479 118.452 119.975 171.794 146.176L172.841 146.691L173.041 145.548C189.382 51.4675 226.566 8.61104 254.196 8.60231L254.205 8.60231ZM339.618 284.84C369.595 284.84 389.138 273.908 390.63 256.31C391.851 241.835 380.457 225.328 359.37 211.01C341.921 199.171 309.257 183.038 252.757 173.424C252.652 173.406 252.565 173.336 252.513 173.249C252.469 173.153 252.469 173.04 252.513 172.953C290.804 95.6328 289.897 44.636 276.287 22.7017C270.834 13.9158 263.2 9.27412 254.214 9.27412C239.836 9.27412 223.67 21.3493 209.85 42.3937C193.457 67.373 180.859 103.634 173.434 147.258C173.417 147.363 173.355 147.45 173.26 147.502C173.216 147.528 173.164 147.537 173.111 147.537C173.059 147.537 173.006 147.528 172.963 147.502C119.002 120.778 81.9753 115.168 60.4084 115.168C30.4136 115.168 10.8707 126.109 9.38758 143.707C8.16615 158.181 19.5603 174.689 40.6561 188.998C58.1051 200.837 90.7608 216.969 147.269 226.584C147.374 226.602 147.461 226.672 147.514 226.759C147.557 226.855 147.566 226.968 147.514 227.055C109.222 304.375 110.129 355.372 123.739 377.315C129.192 386.101 136.826 390.743 145.812 390.743C160.19 390.743 176.357 378.667 190.176 357.623C206.57 332.644 219.168 296.383 226.592 252.759C226.61 252.654 226.68 252.567 226.767 252.515C226.81 252.488 226.863 252.48 226.915 252.48C226.967 252.48 227.02 252.488 227.063 252.515C281.024 279.239 318.06 284.849 339.627 284.849L339.618 284.84Z" fill="url(#paint15_linear_513_3083)" fill-opacity="0.3"></path><path d="M227.542 2.16344C236.118 2.16344 243.944 6.63933 250.165 15.1024C259.029 27.1515 263.941 46.0757 264.368 69.8335C264.857 96.9242 259.596 128.517 248.734 163.722L248.394 164.839L249.554 164.856C307.371 165.72 342.138 176.922 361.123 186.171C384.531 197.574 397.905 212.703 397.818 227.684C397.757 237.839 391.292 247.018 379.601 253.553C366.89 260.655 348.603 264.407 326.74 264.407C300.392 264.407 269.952 259.137 236.275 248.745L235.167 248.405L235.15 249.566C234.286 307.289 223.119 342.032 213.897 361.017C202.529 384.417 187.427 397.836 172.465 397.836C163.888 397.836 156.063 393.36 149.833 384.897C140.969 372.848 136.057 353.924 135.63 330.166C135.141 303.075 140.402 271.483 151.264 236.278L151.604 235.17L150.444 235.152C92.6269 234.288 57.8598 223.086 38.8754 213.846C15.4675 202.451 2.09294 187.314 2.18019 172.333C2.24125 162.177 8.70609 152.99 20.3969 146.464C33.1085 139.362 51.395 135.602 73.2673 135.601C99.6239 135.601 130.055 140.871 163.731 151.263L164.848 151.603L164.866 150.442C165.721 92.7188 176.897 57.9764 186.118 38.9911C197.486 15.591 212.588 2.17217 227.551 2.16344L227.542 2.16344ZM326.74 263.735C348.498 263.735 366.663 260.009 379.278 252.96C390.751 246.556 397.094 237.569 397.155 227.666C397.242 212.947 383.998 198.037 360.835 186.755C341.676 177.428 306.542 166.165 247.94 165.493C247.835 165.493 247.739 165.441 247.67 165.353C247.609 165.275 247.591 165.161 247.626 165.057C258.793 129.293 264.202 97.2557 263.714 69.8335C263.286 46.2153 258.418 27.4219 249.641 15.4863C243.552 7.19771 235.909 2.81782 227.551 2.81782C212.85 2.81783 197.966 16.1058 186.712 39.2703C177.411 58.4214 166.174 93.5389 165.511 152.048C165.511 152.153 165.459 152.249 165.372 152.31C165.319 152.345 165.249 152.371 165.18 152.371C165.145 152.371 165.11 152.371 165.075 152.353C130.849 141.665 99.9641 136.247 73.2847 136.247C51.5171 136.247 33.344 139.973 20.7284 147.022C9.25575 153.426 2.91303 162.413 2.85197 172.316C2.77345 187.035 16.0085 201.945 39.172 213.227C58.3222 222.553 93.4557 233.817 152.067 234.489C152.171 234.489 152.267 234.541 152.328 234.629C152.39 234.716 152.407 234.821 152.381 234.917C141.213 270.689 135.796 302.718 136.302 330.131C136.729 353.749 141.597 372.543 150.374 384.478C156.464 392.767 164.107 397.147 172.473 397.147C187.174 397.147 202.058 383.859 213.304 360.703C222.604 341.552 233.841 306.434 234.504 247.925C234.504 247.821 234.557 247.725 234.644 247.664C234.696 247.62 234.766 247.603 234.836 247.603C234.871 247.603 234.906 247.603 234.932 247.62C269.158 258.308 300.051 263.735 326.74 263.735Z" fill="url(#paint16_linear_513_3083)" fill-opacity="0.3"></path><path d="M98.6994 33.3116C113.339 33.3116 131.346 42.2982 149.38 58.6137C170.031 77.2936 190.577 105.396 208.811 139.894L209.352 140.924L210.19 140.113C234.164 116.835 257.694 98.9487 280.134 86.9433C299.973 76.3251 318.417 70.7151 333.493 70.7151C350.828 70.7151 362.606 78.1835 365.817 91.2097C367.858 99.4897 368.007 117.332 346.152 143.864C327.56 166.436 297.809 188.893 260.111 208.821L259.082 209.362L259.893 210.199C287.994 239.157 308.75 268.255 319.909 294.342C329.654 317.105 331.887 337.068 326.208 350.556C321.828 360.965 312.981 366.697 301.299 366.697C286.651 366.697 268.652 357.711 250.61 341.395C229.959 322.715 209.404 294.612 191.179 260.114L190.638 259.085L189.8 259.896C165.826 283.174 142.287 301.06 119.856 313.066C100.017 323.684 81.5645 329.294 66.4973 329.294C49.1618 329.294 37.3838 321.825 34.1732 308.799C32.1403 300.519 31.9833 282.677 53.8381 256.145C72.43 233.573 102.18 211.116 139.879 191.188L140.908 190.647L140.097 189.809C111.996 160.86 91.2487 131.763 80.0813 105.667C70.3361 82.9037 68.1026 62.9412 73.7823 49.4526C78.162 39.0438 87.0086 33.3116 98.6907 33.3116L98.6994 33.3116ZM209.221 141.797C209.108 141.779 209.02 141.718 208.977 141.622C190.594 106.531 169.83 78.0004 148.935 59.1023C131.024 42.9002 113.182 33.9747 98.6994 33.9747C87.2965 33.9747 78.668 39.5673 74.393 49.7144C68.7831 63.0372 71.0253 82.8165 80.6921 105.405C91.9815 131.789 113.077 161.209 141.702 190.499C141.781 190.577 141.807 190.682 141.79 190.787C141.772 190.891 141.711 190.979 141.615 191.031C103.306 211.107 73.1279 233.765 54.3529 256.572C38.5267 275.784 31.4075 294.77 34.8188 308.651C37.9421 321.354 49.4933 328.639 66.4973 328.639C81.4598 328.639 99.8074 323.056 119.542 312.49C142.287 300.319 166.157 282.084 190.49 258.308C190.551 258.247 190.629 258.212 190.716 258.212C190.882 258.23 190.97 258.3 191.013 258.387C209.396 293.47 230.16 322.009 251.046 340.907C268.966 357.109 286.808 366.034 301.291 366.034C312.685 366.034 321.313 360.45 325.588 350.303C331.198 336.98 328.956 317.201 319.289 294.612C308 268.228 286.904 238.8 258.279 209.519C258.209 209.449 258.174 209.336 258.192 209.24C258.209 209.135 258.27 209.048 258.366 208.995C296.675 188.919 326.853 166.252 345.628 143.454C361.455 124.233 368.574 105.257 365.162 91.3755C362.039 78.6721 350.488 71.3868 333.484 71.3868C318.513 71.3868 300.174 76.9708 280.439 87.5366C257.694 99.7078 233.824 117.934 209.492 141.718C209.43 141.779 209.343 141.814 209.256 141.814L209.212 141.814L209.221 141.797Z" fill="url(#paint17_linear_513_3083)" fill-opacity="0.3"></path><path d="M80.1695 50.7348C90.604 50.7348 108.184 54.3469 132.726 71.5436C154.869 87.0651 177.264 109.846 199.302 139.24L200 140.173L200.698 139.24C222.728 109.846 245.123 87.0738 267.266 71.5436C291.799 54.3381 309.397 50.726 319.831 50.726C333.668 50.726 343.762 57.2784 347.549 68.6905C352.155 82.6067 347.505 102.089 334.444 123.561C319.456 148.191 293.98 174.384 260.749 199.293L259.815 199.991L260.749 200.689C293.972 225.598 319.456 251.782 334.436 276.412C347.496 297.884 352.146 317.367 347.54 331.283C343.754 342.704 333.659 349.256 319.831 349.256C309.397 349.256 291.808 345.644 267.275 328.447C245.132 312.926 222.736 290.145 200.698 260.751L200 259.817L199.302 260.751C177.273 290.145 154.877 312.917 132.735 328.447C108.193 345.653 90.604 349.265 80.1696 349.265C66.3325 349.265 56.2296 342.712 52.4519 331.291C47.8454 317.375 52.4955 297.893 65.5648 276.421C80.5534 251.791 106.038 225.607 139.26 200.698L140.194 200L139.26 199.302C106.038 174.401 80.5621 148.209 65.5735 123.579C52.5129 102.107 47.854 82.6242 52.4693 68.708C56.2557 57.2872 66.3587 50.7348 80.1783 50.7348L80.1695 50.7348ZM199.992 141.072C199.887 141.072 199.791 141.02 199.721 140.932C177.421 110.963 154.746 87.798 132.333 72.0845C113.026 58.5435 94.9837 51.3892 80.1608 51.3892C66.4372 51.3892 56.8228 57.61 53.08 68.9087C50.4452 76.857 48.6393 94.49 66.1231 123.221C81.2688 148.113 107.137 174.567 140.927 199.721C141.014 199.782 141.058 199.886 141.058 199.991C141.058 200.096 141.005 200.192 140.927 200.261C107.128 225.415 81.2601 251.869 66.1144 276.761C48.6306 305.501 50.4365 323.125 53.0713 331.073C56.8141 342.372 66.4372 348.593 80.1608 348.593C94.9837 348.593 113.026 341.438 132.342 327.897C154.755 312.184 177.43 289.02 199.721 259.058C199.782 258.971 199.887 258.927 199.992 258.927C200.096 258.927 200.192 258.98 200.262 259.058C222.562 289.028 245.228 312.184 267.65 327.906C286.957 341.447 304.999 348.602 319.831 348.602C333.555 348.602 343.169 342.381 346.912 331.082C349.547 323.134 351.353 305.509 333.869 276.77C318.723 251.878 292.855 225.424 259.065 200.27C258.978 200.209 258.934 200.104 258.934 200C258.934 199.895 258.986 199.799 259.074 199.729C292.872 174.575 318.74 148.122 333.886 123.23C351.37 94.49 349.564 76.8657 346.929 68.9174C343.186 57.6274 333.572 51.4066 319.848 51.4066C305.008 51.4066 286.966 58.5697 267.659 72.102C245.245 87.8154 222.57 110.98 200.271 140.941C200.21 141.028 200.105 141.072 200 141.072L199.992 141.072Z" fill="url(#paint18_linear_513_3083)" fill-opacity="0.3"></path><path d="M200 0.00053628C208.227 0.000535561 216.254 4.25826 223.207 12.3026C233.031 23.6711 240.141 41.7839 243.771 64.6954C247.897 90.7391 247.461 121.643 242.462 156.551L242.296 157.702L243.448 157.537C262.424 154.823 280.475 153.445 297.095 153.445C323.382 153.445 345.742 156.769 363.575 163.339C379.463 169.184 390.787 177.342 396.318 186.931C401.178 195.359 401.178 204.633 396.318 213.062C390.778 222.65 379.463 230.817 363.575 236.662C345.734 243.232 323.364 246.565 297.095 246.565C280.475 246.565 262.424 245.187 243.448 242.473L242.296 242.307L242.462 243.459C247.461 278.376 247.897 309.279 243.771 335.314C240.133 358.226 233.022 376.339 223.198 387.707C216.245 395.752 208.218 400.009 200 400.009C191.782 400.009 183.746 395.752 176.793 387.707C166.978 376.347 159.867 358.226 156.229 335.323C152.103 309.288 152.539 278.376 157.547 243.468L157.712 242.316L156.561 242.482C137.576 245.195 119.534 246.574 102.914 246.574C32.2108 246.574 0.0087125 222.441 0.00871054 200.018C0.00870858 177.595 32.2108 153.462 102.914 153.453C119.534 153.453 137.585 154.832 156.561 157.545L157.712 157.711L157.547 156.559C152.548 121.643 152.103 90.7391 156.238 64.7041C159.876 41.8014 166.987 23.6798 176.802 12.3113C183.755 4.25826 191.781 0.00923451 200.009 0.00923379L200 0.00053628ZM241.904 158.427C241.816 158.427 241.729 158.392 241.668 158.331C241.59 158.252 241.555 158.147 241.572 158.043C246.781 122.532 247.295 91.1579 243.116 64.7913C239.504 42.002 232.438 24.0026 222.701 12.7301C215.879 4.83409 208.026 0.654893 200 0.654894C191.973 0.654895 184.121 4.83409 177.299 12.7301C167.562 24.0026 160.504 42.002 156.884 64.7913C152.696 91.1666 153.219 122.541 158.428 158.043C158.445 158.147 158.41 158.252 158.332 158.322C158.271 158.383 158.184 158.418 158.096 158.418C138.51 155.547 119.962 154.099 102.914 154.099C71.2615 154.099 44.7129 159.081 26.1211 168.513C9.70161 176.836 0.663037 188.021 0.663038 200.001C0.663039 211.98 9.71034 223.156 26.1211 231.48C44.7129 240.903 71.2616 245.885 102.897 245.885C119.953 245.885 138.51 244.428 158.044 241.566L158.061 241.566C158.184 241.566 158.262 241.601 158.323 241.662C158.393 241.732 158.428 241.845 158.419 241.95C153.211 277.46 152.687 308.834 156.875 335.201C160.487 357.99 167.545 375.99 177.281 387.262C184.104 395.158 191.956 399.337 199.991 399.337C208.027 399.337 215.87 395.167 222.692 387.262C232.429 375.99 239.487 357.982 243.108 335.201C247.295 308.826 246.772 277.46 241.563 241.95C241.546 241.845 241.581 241.74 241.659 241.671C241.72 241.609 241.808 241.575 241.895 241.575C261.473 244.445 280.03 245.893 297.086 245.893C323.277 245.893 345.568 242.578 363.34 236.034C379.079 230.241 390.281 222.179 395.742 212.721C400.55 204.389 400.55 195.586 395.742 187.254C390.281 177.804 379.079 169.743 363.348 163.949C345.585 157.414 323.303 154.099 297.121 154.099C280.03 154.099 261.481 155.556 241.947 158.418L241.895 158.418L241.904 158.427Z" fill="url(#paint19_linear_513_3083)" fill-opacity="0.3"></path></g><defs><linearGradient id="paint0_linear_513_3083" x1="200.004" y1="397.827" x2="200.004" y2="2.15465" gradientUnits="userSpaceOnUse"><stop stop-color="white" stop-opacity="0"></stop><stop offset="1" stop-color="#00B0DF"></stop></linearGradient><linearGradient id="paint1_linear_513_3083" x1="199.984" y1="366.68" x2="199.984" y2="33.3294" gradientUnits="userSpaceOnUse"><stop stop-color="white" stop-opacity="0"></stop><stop offset="1" stop-color="#00B0DF"></stop></linearGradient><linearGradient id="paint2_linear_513_3083" x1="200.004" y1="380.876" x2="200.004" y2="19.1078" gradientUnits="userSpaceOnUse"><stop stop-color="white" stop-opacity="0"></stop><stop offset="1" stop-color="#00B0DF"></stop></linearGradient><linearGradient id="paint3_linear_513_3083" x1="200.013" y1="391.406" x2="200.013" y2="8.59422" gradientUnits="userSpaceOnUse"><stop stop-color="white" stop-opacity="0"></stop><stop offset="1" stop-color="#00B0DF"></stop></linearGradient><linearGradient id="paint4_linear_513_3083" x1="199.995" y1="380.902" x2="199.995" y2="19.0906" gradientUnits="userSpaceOnUse"><stop stop-color="white" stop-opacity="0"></stop><stop offset="1" stop-color="#00B0DF"></stop></linearGradient><linearGradient id="paint5_linear_513_3083" x1="199.992" y1="391.388" x2="199.992" y2="8.61055" gradientUnits="userSpaceOnUse"><stop stop-color="white" stop-opacity="0"></stop><stop offset="1" stop-color="#00B0DF"></stop></linearGradient><linearGradient id="paint6_linear_513_3083" x1="199.992" y1="397.819" x2="199.992" y2="2.15557" gradientUnits="userSpaceOnUse"><stop stop-color="white" stop-opacity="0"></stop><stop offset="1" stop-color="#00B0DF"></stop></linearGradient><linearGradient id="paint7_linear_513_3083" x1="199.999" y1="366.706" x2="199.999" y2="33.3029" gradientUnits="userSpaceOnUse"><stop stop-color="white" stop-opacity="0"></stop><stop offset="1" stop-color="#00B0DF"></stop></linearGradient><linearGradient id="paint8_linear_513_3083" x1="199.995" y1="349.274" x2="199.995" y2="50.7178" gradientUnits="userSpaceOnUse"><stop stop-color="white" stop-opacity="0"></stop><stop offset="1" stop-color="#00B0DF"></stop></linearGradient><linearGradient id="paint9_linear_513_3083" x1="200.004" y1="400" x2="200.004" y2="-0.00874106" gradientUnits="userSpaceOnUse"><stop stop-color="white" stop-opacity="0"></stop><stop offset="1" stop-color="#00B0DF"></stop></linearGradient><linearGradient id="paint10_linear_513_3083" x1="199.987" y1="397.836" x2="199.987" y2="2.15523" gradientUnits="userSpaceOnUse"><stop stop-color="white" stop-opacity="0"></stop><stop offset="1" stop-color="#00B0DF"></stop></linearGradient><linearGradient id="paint11_linear_513_3083" x1="199.999" y1="366.68" x2="199.999" y2="33.3207" gradientUnits="userSpaceOnUse"><stop stop-color="white" stop-opacity="0"></stop><stop offset="1" stop-color="#00B0DF"></stop></linearGradient><linearGradient id="paint12_linear_513_3083" x1="200.004" y1="380.893" x2="200.004" y2="19.0987" gradientUnits="userSpaceOnUse"><stop stop-color="white" stop-opacity="0"></stop><stop offset="1" stop-color="#00B0DF"></stop></linearGradient><linearGradient id="paint13_linear_513_3083" x1="199.999" y1="391.406" x2="199.999" y2="8.60295" gradientUnits="userSpaceOnUse"><stop stop-color="white" stop-opacity="0"></stop><stop offset="1" stop-color="#00B0DF"></stop></linearGradient><linearGradient id="paint14_linear_513_3083" x1="199.999" y1="380.893" x2="199.999" y2="19.0987" gradientUnits="userSpaceOnUse"><stop stop-color="white" stop-opacity="0"></stop><stop offset="1" stop-color="#00B0DF"></stop></linearGradient><linearGradient id="paint15_linear_513_3083" x1="199.996" y1="391.388" x2="199.996" y2="8.60231" gradientUnits="userSpaceOnUse"><stop stop-color="white" stop-opacity="0"></stop><stop offset="1" stop-color="#00B0DF"></stop></linearGradient><linearGradient id="paint16_linear_513_3083" x1="199.999" y1="397.836" x2="199.999" y2="2.16344" gradientUnits="userSpaceOnUse"><stop stop-color="white" stop-opacity="0"></stop><stop offset="1" stop-color="#00B0DF"></stop></linearGradient><linearGradient id="paint17_linear_513_3083" x1="199.997" y1="366.697" x2="199.997" y2="33.3116" gradientUnits="userSpaceOnUse"><stop stop-color="white" stop-opacity="0"></stop><stop offset="1" stop-color="#00B0DF"></stop></linearGradient><linearGradient id="paint18_linear_513_3083" x1="200" y1="349.265" x2="200" y2="50.7261" gradientUnits="userSpaceOnUse"><stop stop-color="white" stop-opacity="0"></stop><stop offset="1" stop-color="#00B0DF"></stop></linearGradient><linearGradient id="paint19_linear_513_3083" x1="199.986" y1="400.009" x2="199.986" y2="0.000536281" gradientUnits="userSpaceOnUse"><stop stop-color="white" stop-opacity="0"></stop><stop offset="1" stop-color="#00B0DF"></stop></linearGradient><clipPath id="clip0_513_3083"><rect width="400" height="400" fill="white" transform="translate(400 400) rotate(180)"></rect></clipPath></defs></svg>