<svg xmlns="http://www.w3.org/2000/svg" width="168" height="528" viewBox="0 0 168 528" fill="none"><g opacity="0.5" clip-path="url(#clip0_558_1678)"><path d="M165.157 227.689C165.157 247.44 147.444 267.374 116.556 282.368C91.4952 294.53 45.6353 309.271 -30.5715 310.388L-32.1033 310.411L-31.6541 311.885C-17.9491 356.326 -11.0044 396.484 -10.9929 431.263C-10.9929 460.146 -15.9452 484.296 -25.3314 501.086C-33.9575 516.518 -46.0847 525.063 -59.4902 525.144C-79.2646 525.259 -99.2348 507.593 -114.276 476.695C-126.472 451.624 -141.26 405.731 -142.377 329.413L-142.4 327.881L-143.874 328.33C-190.344 342.668 -232.047 349.601 -267.806 348.944C-299.167 348.369 -324.147 341.885 -340.051 330.184C-351.223 321.962 -357.131 311.643 -357.131 300.311C-357.131 280.56 -339.418 260.626 -308.53 245.631C-283.469 233.47 -237.609 218.729 -161.403 217.612L-159.871 217.589L-160.32 216.115C-174.025 171.674 -180.981 131.516 -180.981 96.737C-180.981 67.8541 -176.029 43.7044 -166.643 26.9136C-158.017 11.4818 -145.889 2.93664 -132.484 2.86754C-112.709 2.75237 -92.7393 20.4184 -77.6984 51.3167C-65.5021 76.3762 -50.7145 122.28 -49.5973 198.599L-49.5743 200.13L-48.1001 199.681C-1.62976 185.344 40.0726 178.411 75.8208 179.067C107.181 179.643 132.161 186.127 148.066 197.827C159.237 206.038 165.145 216.368 165.145 227.701L165.157 227.689ZM-33.1513 309.985C-33.1513 309.916 -33.1398 309.823 -33.0707 309.731C-32.9901 309.616 -32.8519 309.547 -32.7137 309.547C44.5296 308.672 90.8848 293.862 116.164 281.585C146.741 266.741 164.282 247.094 164.282 227.689C164.282 216.656 158.5 206.568 147.559 198.518C131.793 186.933 106.985 180.507 75.8208 179.931C39.635 179.263 -2.65475 186.403 -49.8622 201.132C-49.9889 201.178 -50.1386 201.155 -50.2423 201.075C-50.3574 200.994 -50.4265 200.868 -50.4265 200.729C-51.3018 123.363 -66.1585 76.975 -78.47 51.6852C-93.3612 21.0978 -113.043 3.62761 -132.472 3.73126C-145.544 3.80036 -157.406 12.1842 -165.871 27.3397C-175.177 44.0038 -180.094 67.9923 -180.094 96.737C-180.094 131.954 -172.942 172.71 -158.846 217.877C-158.834 217.923 -158.823 217.969 -158.823 218.015C-158.823 218.107 -158.857 218.2 -158.903 218.28C-158.984 218.384 -159.111 218.453 -159.249 218.453C-236.492 219.328 -282.847 234.138 -308.138 246.415C-338.715 261.259 -356.256 280.906 -356.256 300.311C-356.256 311.344 -350.474 321.432 -339.533 329.47C-323.778 341.056 -298.971 347.493 -267.795 348.058C-231.598 348.726 -189.319 341.585 -142.112 326.856C-141.985 326.81 -141.836 326.845 -141.72 326.925C-141.605 327.006 -141.536 327.132 -141.536 327.271C-140.661 404.626 -125.804 451.013 -113.493 476.315C-98.6014 506.902 -78.9191 524.372 -59.4902 524.269C-46.4187 524.2 -34.5563 515.816 -26.103 500.66C-16.7974 483.996 -11.8797 460.008 -11.8797 431.263C-11.8797 396.035 -19.0317 355.278 -33.1282 310.123C-33.1282 310.077 -33.1513 310.031 -33.1513 309.996L-33.1513 309.985Z" fill="url(#paint0_linear_558_1678)" fill-opacity="0.4"></path><path d="M124.005 397.762C124.005 413.182 116.439 424.86 102.711 430.641C84.9058 438.138 58.5554 435.178 28.508 422.315C-5.93882 407.562 -44.3359 380.165 -82.5602 343.059L-83.6658 341.988L-84.3798 343.347C-110.684 393.109 -140.34 432.368 -170.134 456.898C-205.157 485.735 -228.72 485.528 -239.65 482.844C-256.844 478.618 -266.703 463.071 -266.703 440.188C-266.703 420.299 -259.297 395.942 -245.281 369.754C-229.423 340.146 -205.802 309.075 -175.075 277.428L-174.004 276.322L-175.363 275.608C-220.877 251.539 -257.961 224.418 -282.619 197.148C-304.155 173.332 -316.018 149.562 -316.018 130.226C-316.018 114.795 -308.451 103.106 -294.711 97.3243C-276.906 89.8272 -250.556 92.7869 -220.52 105.662C-186.085 120.415 -147.676 147.823 -109.463 184.917L-108.358 185.988L-107.644 184.63C-81.3394 134.868 -51.6836 95.6084 -21.8896 71.0671C13.1445 42.2188 36.6964 42.4261 47.6259 45.1209C64.8205 49.3589 74.6789 64.8944 74.6789 87.7773C74.6789 107.677 67.2736 132.023 53.2576 158.211C37.3989 187.831 13.778 218.891 -16.9489 250.537L-18.02 251.643L-16.661 252.357C28.8535 276.415 65.9376 303.547 90.5951 330.818C112.132 354.633 123.994 378.392 123.994 397.739L123.994 397.75L124.005 397.762ZM-265.816 440.2C-265.816 462.633 -256.199 477.869 -239.431 482.004C-221.107 486.518 -196.047 477.121 -170.687 456.23C-140.582 431.447 -110.661 391.624 -84.161 341.067C-84.0919 340.94 -83.9768 340.86 -83.8386 340.837C-83.7004 340.814 -83.5622 340.86 -83.4585 340.952C-44.8081 378.749 -5.96185 406.606 28.865 421.52C58.6936 434.292 84.7907 437.251 102.377 429.846C115.759 424.215 123.13 412.825 123.13 397.773C123.13 378.645 111.337 355.082 89.9502 331.428C65.0048 303.846 27.3563 276.438 -18.9413 252.161C-19.068 252.092 -19.1486 251.977 -19.1716 251.839L-19.1716 251.816C-19.1716 251.654 -19.1256 251.551 -19.0565 251.47C12.3499 219.351 36.42 187.843 52.4975 157.82C66.4444 131.77 73.8151 107.551 73.8151 87.8003C73.8151 65.3666 64.1986 50.1305 47.4301 45.9961C29.1068 41.4817 4.05775 50.879 -21.3138 71.7696C-51.4072 96.5527 -81.3394 136.376 -107.84 186.944C-107.909 187.071 -108.024 187.152 -108.162 187.175C-108.3 187.198 -108.438 187.152 -108.531 187.059C-147.193 149.263 -186.027 121.405 -220.854 106.491C-250.683 93.7197 -276.78 90.7601 -294.366 98.165C-307.76 103.797 -315.142 115.198 -315.142 130.261C-315.142 149.378 -303.361 172.929 -281.974 196.583C-257.028 224.165 -219.38 251.574 -173.082 275.839C-172.956 275.908 -172.875 276.023 -172.852 276.161L-172.852 276.184C-172.852 276.345 -172.898 276.449 -172.967 276.53C-204.374 308.649 -228.444 340.157 -244.51 370.18C-258.457 396.23 -265.827 420.449 -265.827 440.2L-265.816 440.2Z" fill="url(#paint1_linear_558_1678)" fill-opacity="0.4"></path><path d="M142.777 368.441C142.777 381.8 135.856 392.741 123.291 399.236C106.119 408.115 79.5616 408.403 48.5123 400.042C12.9714 390.472 -28.1321 369.708 -70.3413 339.984L-71.5966 339.098L-72.0918 340.549C-112.953 460.123 -170.365 508.203 -206.412 502.284C-226.279 499.025 -238.13 479.412 -238.13 449.85C-238.13 407.113 -214.635 350.222 -171.977 289.647L-171.09 288.391L-172.541 287.896C-224.298 270.219 -266.899 247.785 -295.748 223.025C-320.901 201.443 -334.756 178.906 -334.756 159.57C-334.756 146.199 -327.834 135.259 -315.246 128.764C-298.075 119.885 -271.517 119.608 -240.468 127.969C-204.927 137.539 -163.835 158.303 -121.626 188.027L-120.37 188.913L-119.875 187.462C-79.0249 67.8884 -21.6251 19.8078 14.434 25.7272C34.3005 28.9863 46.1513 48.5986 46.1513 78.161C46.1513 120.898 22.657 177.789 -20.0013 238.364L-20.888 239.62L-19.4369 240.115C32.3196 257.804 74.9204 280.226 103.77 304.986C128.923 326.568 142.777 349.105 142.777 368.441ZM-237.254 449.85C-237.254 478.952 -225.669 498.23 -206.274 501.42C-187.536 504.495 -163.938 492.161 -141.527 467.585C-114.934 438.414 -90.9794 393.696 -72.253 338.257C-72.207 338.13 -72.1033 338.027 -71.9651 337.981C-71.8384 337.934 -71.6887 337.957 -71.5735 338.038C-28.8231 368.361 12.7756 389.516 48.7426 399.19C79.5732 407.493 105.912 407.228 122.888 398.453C135.326 392.027 141.902 381.639 141.902 368.441C141.891 318.057 59.7066 267.754 -21.7288 240.253C-21.8555 240.207 -21.9591 240.103 -22.0052 239.977C-22.0167 239.931 -22.0282 239.885 -22.0282 239.838C-22.0282 239.746 -22.0052 239.666 -21.9476 239.585C3.15906 204.207 45.2646 136.18 45.2646 78.1494C45.2646 49.0477 33.6786 29.7694 14.2843 26.5794C-4.45357 23.5045 -28.0515 35.8385 -50.4632 60.4143C-77.0556 89.5851 -101.011 134.303 -119.737 189.731C-119.783 189.869 -119.887 189.961 -120.013 190.007C-120.14 190.053 -120.29 190.03 -120.393 189.95C-163.144 159.627 -204.743 138.472 -240.698 128.798C-271.529 120.495 -297.856 120.748 -314.843 129.524C-327.293 135.95 -333.869 146.338 -333.869 159.558C-333.869 209.919 -251.685 260.234 -170.238 287.735C-170.111 287.781 -170.008 287.885 -169.962 288.011C-169.95 288.057 -169.939 288.103 -169.939 288.149C-169.939 288.242 -169.962 288.334 -170.019 288.403C-195.126 323.781 -237.231 391.808 -237.231 449.838L-237.254 449.85Z" fill="url(#paint2_linear_558_1678)" fill-opacity="0.4"></path><path d="M156.656 192.495C156.656 228.968 100.085 278.039 -24.1354 299.597L-25.6441 299.862L-24.9646 301.244C9.58588 371.643 16.8415 420.069 16.8415 448.296C16.8415 488.384 2.09993 514.538 -21.6362 516.541C-41.0651 518.177 -63.1428 502.998 -82.2147 474.875C-104.408 442.146 -121.487 394.088 -131.587 335.873L-131.852 334.365L-133.234 335.044C-234.605 384.795 -301.61 383.344 -330.517 365.401C-342.38 358.031 -348.656 347.701 -348.656 335.528C-348.656 299.056 -292.086 249.985 -167.865 228.426L-166.357 228.161L-167.036 226.779C-201.587 156.369 -208.842 107.954 -208.842 79.7392C-208.842 39.6509 -194.101 13.4973 -170.364 11.4935C-150.936 9.85815 -128.858 25.0366 -109.786 53.1595C-87.5931 85.8888 -70.5136 133.958 -60.4133 192.161L-60.1485 193.67L-58.7665 192.991C42.6161 143.24 109.609 144.691 138.517 162.634C150.379 169.992 156.656 180.323 156.656 192.507L156.656 192.495ZM-26.7382 299.528C-26.7382 299.459 -26.7267 299.39 -26.6921 299.332C-26.6345 299.206 -26.5078 299.125 -26.3696 299.102C31.226 289.313 79.0899 272.695 112.063 251.056C139.853 232.825 155.78 211.474 155.78 192.507C155.78 180.645 149.653 170.58 138.056 163.382C109.103 145.405 41.7869 144.196 -60.2867 194.718C-60.4134 194.776 -60.5516 194.776 -60.6782 194.718C-60.8049 194.649 -60.8971 194.534 -60.9201 194.396C-73.6001 119.804 -94.8947 76.6758 -110.523 53.6432C-129.411 25.7967 -151.2 10.7449 -170.307 12.3572C-193.548 14.315 -207.978 40.1345 -207.978 79.7276C-207.978 108.184 -200.573 157.071 -165.32 228.288C-165.286 228.346 -165.274 228.415 -165.274 228.484C-165.274 228.553 -165.286 228.622 -165.32 228.68C-165.378 228.806 -165.504 228.887 -165.631 228.91C-223.227 238.699 -271.102 255.317 -304.075 276.956C-331.865 295.198 -347.792 316.538 -347.792 335.516C-347.792 347.378 -341.666 357.455 -330.068 364.641C-301.115 382.618 -233.799 383.827 -131.725 333.305C-131.599 333.248 -131.449 333.248 -131.334 333.305C-131.219 333.363 -131.127 333.49 -131.104 333.628C-118.424 408.23 -97.129 451.348 -81.5006 474.38C-62.613 502.227 -40.8232 517.278 -21.7168 515.666C1.52412 513.708 15.9547 487.889 15.9547 448.296C15.9547 419.827 8.54935 370.952 -26.7036 299.735C-26.7382 299.678 -26.7497 299.609 -26.7497 299.539L-26.7382 299.528Z" fill="url(#paint3_linear_558_1678)" fill-opacity="0.4"></path><path d="M142.8 159.616C142.8 178.963 128.945 201.489 103.792 223.059C74.9313 247.807 32.319 270.23 -19.4491 287.907L-20.9002 288.402L-20.0134 289.658C22.6104 350.222 46.0816 407.101 46.0931 449.85C46.0931 479.447 34.2308 499.059 14.3643 502.318C-21.6833 508.237 -79.0831 460.145 -119.91 340.537L-120.405 339.086L-121.661 339.973C-163.87 369.673 -204.973 390.426 -240.514 399.984C-271.564 408.333 -298.121 408.045 -315.293 399.166C-327.869 392.671 -334.791 381.731 -334.791 368.372C-334.791 349.024 -320.936 326.498 -295.784 304.928C-266.922 280.18 -224.31 257.758 -172.531 240.08L-171.079 239.585L-171.966 238.33C-214.59 177.765 -238.073 120.875 -238.073 78.1376C-238.073 48.5407 -226.21 28.9284 -206.344 25.6693C-170.296 19.7499 -112.897 67.8536 -72.0809 187.45L-71.5857 188.902L-70.3304 188.015C-28.1212 158.314 12.9823 137.562 48.5232 128.003C79.5725 119.654 106.13 119.942 123.302 128.821C135.878 135.316 142.8 146.257 142.8 159.616ZM-22.0404 288.172C-22.0404 288.172 -22.0403 288.08 -22.0173 288.034C-21.9712 287.896 -21.8676 287.792 -21.7409 287.746C59.729 260.257 141.925 209.965 141.925 159.604C141.925 146.395 135.348 136.019 122.899 129.581C105.911 120.806 79.5841 120.541 48.7535 128.832C12.798 138.506 -28.8123 159.639 -71.5627 189.938C-71.6778 190.019 -71.816 190.042 -71.9542 189.996C-72.0924 189.95 -72.1961 189.857 -72.2306 189.719C-90.9455 134.28 -114.889 89.5503 -141.47 60.3679C-163.87 35.7806 -187.468 23.4351 -206.206 26.51C-225.612 29.7 -237.198 48.9898 -237.198 78.1146C-237.198 136.134 -195.115 204.149 -170.031 239.539C-169.974 239.619 -169.951 239.7 -169.951 239.792C-169.951 239.838 -169.951 239.884 -169.974 239.93C-170.02 240.057 -170.124 240.172 -170.25 240.207C-251.72 267.719 -333.927 318.011 -333.927 368.372C-333.927 381.581 -327.351 391.957 -314.901 398.383C-297.914 407.159 -271.587 407.424 -240.756 399.132C-204.801 389.458 -163.19 368.326 -120.44 338.015C-120.325 337.934 -120.187 337.911 -120.048 337.957C-119.922 338.003 -119.818 338.107 -119.772 338.234C-101.057 393.673 -77.1138 438.402 -50.533 467.585C-28.1212 492.172 -4.53475 504.518 14.2031 501.443C33.6089 498.253 45.1948 478.963 45.1948 449.85C45.1948 391.807 3.11237 323.804 -21.9713 288.426C-22.0288 288.345 -22.0519 288.264 -22.0519 288.172L-22.0404 288.172Z" fill="url(#paint4_linear_558_1678)" fill-opacity="0.4"></path><path d="M156.633 335.562C156.633 347.747 150.356 358.088 138.494 365.447C109.598 383.378 42.5935 384.806 -58.7776 335.021L-60.1596 334.342L-60.4245 335.85C-70.5477 394.054 -87.6272 442.111 -109.832 474.829C-128.903 502.941 -150.993 518.119 -170.422 516.484C-194.146 514.48 -208.888 488.338 -208.888 448.273C-208.888 420.046 -201.632 371.62 -167.036 301.198L-166.356 299.816L-167.865 299.551C-292.062 277.992 -348.633 228.898 -348.633 192.426C-348.633 180.242 -342.356 169.9 -330.494 162.541C-301.598 144.61 -234.593 143.182 -133.222 192.956L-131.84 193.635L-131.575 192.127C-121.452 133.923 -104.373 85.8657 -82.1682 53.1479C-63.0848 25.0366 -41.0071 9.85804 -21.5782 11.4934C2.14642 13.4972 16.8879 39.6277 16.8879 79.7045C16.8879 107.931 9.63235 156.357 -24.9642 226.779L-25.6437 228.161L-24.135 228.426C100.062 250.008 156.621 299.102 156.621 335.574L156.633 335.562ZM-208.012 448.296C-208.012 487.866 -193.582 513.662 -170.352 515.632C-151.246 517.244 -129.456 502.204 -110.557 474.369C-94.9288 451.336 -73.6227 408.219 -60.9197 333.639C-60.8966 333.501 -60.8045 333.386 -60.6893 333.317C-60.5626 333.259 -60.4244 333.259 -60.2978 333.317C41.7758 383.873 109.08 382.687 138.033 364.722C149.631 357.524 155.758 347.447 155.758 335.574C155.758 316.595 139.818 295.255 112.04 277.014C79.0672 255.363 31.2149 238.745 -26.3692 228.933C-26.5074 228.91 -26.6226 228.818 -26.6802 228.703C-26.7147 228.633 -26.7262 228.564 -26.7262 228.495C-26.7262 228.426 -26.7147 228.357 -26.6802 228.3C8.60736 157.06 16.0242 108.173 16.0242 79.716C16.0242 40.1344 1.59359 14.3379 -21.6358 12.3686C-40.7422 10.7563 -62.532 25.7966 -81.4311 53.6316C-97.0595 76.6642 -118.366 119.781 -131.069 194.361C-131.092 194.499 -131.184 194.614 -131.299 194.683C-131.414 194.741 -131.564 194.741 -131.691 194.683C-233.764 144.127 -301.068 145.313 -330.022 163.278C-341.619 170.476 -347.746 180.553 -347.746 192.415C-347.746 211.394 -331.807 232.733 -304.028 250.975C-271.056 272.626 -223.203 289.244 -165.619 299.056C-165.481 299.079 -165.366 299.171 -165.297 299.286C-165.262 299.344 -165.251 299.413 -165.251 299.482C-165.251 299.551 -165.262 299.62 -165.297 299.678C-200.584 370.918 -208.001 419.804 -208.001 448.273L-208.012 448.296Z" fill="url(#paint5_linear_558_1678)" fill-opacity="0.4"></path><path d="M165.144 300.369C165.144 311.689 159.235 322.019 148.064 330.242C132.159 341.943 107.179 348.415 75.8191 348.979C40.0594 349.624 -1.63149 342.68 -48.1134 328.33L-49.576 327.881L-49.599 329.413C-50.7392 405.72 -65.5383 451.612 -77.7461 476.672C-92.7986 507.559 -112.769 525.213 -132.543 525.098C-145.937 525.017 -158.064 516.484 -166.679 501.064C-176.054 484.284 -181.006 460.158 -181.006 431.298C-181.006 396.507 -174.05 356.327 -160.322 311.862L-159.873 310.399L-161.404 310.376C-237.611 309.236 -283.46 294.484 -308.52 282.311C-339.408 267.305 -357.121 247.371 -357.121 227.62C-357.121 216.3 -351.213 205.97 -340.042 197.747C-324.137 186.058 -299.157 179.574 -267.797 179.01C-232.025 178.365 -190.335 185.309 -143.864 199.659L-142.402 200.108L-142.379 198.576C-141.238 122.257 -126.451 76.3764 -114.243 51.3169C-99.1905 20.4301 -79.2203 2.77563 -59.4459 2.87928C-46.0519 2.95989 -33.9247 11.4935 -25.2986 26.9139C-15.9239 43.6931 -10.9601 67.8198 -10.9601 96.6797C-10.9601 131.47 -17.9163 171.651 -31.6443 216.115L-32.0935 217.578L-30.5618 217.601C45.6335 218.741 91.4935 233.493 116.554 245.666C147.442 260.672 165.155 280.607 165.155 300.357L165.144 300.369ZM-180.154 431.309C-180.154 460.019 -175.236 483.996 -165.942 500.649C-157.489 515.781 -145.626 524.165 -132.566 524.234C-113.137 524.35 -93.4551 506.879 -78.5523 476.303C-66.2293 451.025 -51.3611 404.649 -50.4743 327.294C-50.4743 327.156 -50.4052 327.029 -50.29 326.948C-50.1749 326.868 -50.0367 326.845 -49.91 326.891C-2.70255 341.643 39.5872 348.783 75.7846 348.127C106.961 347.563 131.768 341.136 147.523 329.551C158.464 321.501 164.245 311.424 164.245 300.38C164.245 280.975 146.705 261.328 116.139 246.472C90.8485 234.184 44.5049 219.363 -32.7269 218.476C-32.8651 218.476 -32.9918 218.407 -33.0724 218.292C-33.13 218.223 -33.153 218.131 -33.153 218.039C-33.153 217.993 -33.153 217.946 -33.13 217.9C-19.0104 172.71 -11.8469 131.943 -11.8469 96.7257C-11.8469 67.9925 -16.7646 44.0156 -26.0702 27.363C-34.5235 12.2305 -46.3859 3.84665 -59.4575 3.77755C-78.8863 3.66239 -98.5685 21.1442 -113.46 51.72C-125.771 76.9983 -140.639 123.374 -141.538 200.73C-141.538 200.868 -141.607 200.994 -141.711 201.075C-141.826 201.156 -141.964 201.179 -142.102 201.144C-189.31 186.392 -231.599 179.252 -267.785 179.908C-298.961 180.472 -323.768 186.898 -339.535 198.484C-350.476 206.522 -356.257 216.611 -356.257 227.655C-356.257 247.06 -338.717 266.707 -308.152 281.563C-282.872 293.839 -236.517 308.672 -159.285 309.559C-159.147 309.559 -159.02 309.628 -158.94 309.743C-158.882 309.812 -158.859 309.904 -158.859 309.996C-158.859 310.042 -158.859 310.088 -158.882 310.123C-173.002 355.325 -180.165 396.104 -180.165 431.332L-180.154 431.309Z" fill="url(#paint6_linear_558_1678)" fill-opacity="0.4"></path><path d="M124.039 130.295C124.039 149.631 112.177 173.389 90.6406 197.205C65.9831 224.464 28.8759 251.585 -16.65 275.642L-18.009 276.356L-16.9379 277.462C13.7774 309.109 37.3869 340.168 53.234 369.788C67.25 395.976 74.6553 420.333 74.6553 440.222C74.6553 463.116 64.7969 478.663 47.5908 482.901C36.6613 485.585 13.1094 485.792 -21.9132 456.932C-51.6957 432.391 -81.34 393.109 -107.644 343.335L-108.358 341.976L-109.464 343.047C-147.688 380.13 -186.097 407.527 -220.544 422.268C-250.591 435.12 -276.942 438.08 -294.747 430.583C-308.486 424.802 -316.053 413.124 -316.053 397.704C-316.053 378.368 -304.19 354.61 -282.654 330.794C-257.996 303.535 -220.889 276.414 -175.363 252.356L-174.004 251.642L-175.075 250.537C-205.791 218.89 -229.4 187.83 -245.247 158.21C-259.263 132.022 -266.669 107.665 -266.669 87.7767C-266.669 64.8823 -256.81 49.3352 -239.616 45.0972C-228.686 42.4139 -205.134 42.2067 -170.112 71.0665C-140.329 95.6078 -110.685 134.89 -84.3804 184.652L-83.6664 186.011L-82.5608 184.94C-44.3365 147.857 -5.92788 120.46 28.5189 105.719C58.5663 92.8669 84.9168 89.9072 102.722 97.4043C116.461 103.186 124.028 114.863 124.028 130.283L124.039 130.295ZM-19.1722 276.184C-19.1492 276.045 -19.0685 275.919 -18.9419 275.861C27.3788 251.596 65.0388 224.199 89.9957 196.617C111.394 172.963 123.176 149.412 123.176 130.295C123.176 115.243 115.793 103.853 102.411 98.222C84.8246 90.817 58.716 93.7767 28.899 106.537C-5.92789 121.439 -44.7741 149.285 -83.4361 187.059C-83.5397 187.151 -83.6779 187.197 -83.8161 187.174C-83.9543 187.151 -84.0695 187.07 -84.1386 186.944C-110.627 136.376 -140.548 96.5406 -170.641 71.746C-196.001 50.8439 -221.062 41.4466 -239.385 45.961C-256.154 50.0838 -265.77 65.3314 -265.77 87.7882C-265.77 107.539 -258.4 131.746 -244.453 157.807C-228.387 187.83 -204.328 219.339 -172.945 251.458C-172.864 251.539 -172.818 251.642 -172.818 251.758C-172.841 251.965 -172.933 252.091 -173.048 252.149C-219.358 276.414 -257.029 303.811 -281.974 331.393C-303.373 355.047 -315.154 378.598 -315.154 397.715C-315.154 412.756 -307.784 424.157 -294.39 429.788C-276.803 437.193 -250.695 434.233 -220.878 421.473C-186.051 406.571 -147.205 378.725 -108.543 340.951C-108.439 340.859 -108.301 340.813 -108.174 340.836C-108.036 340.859 -107.921 340.94 -107.852 341.067C-81.3515 391.635 -51.4423 431.481 -21.3489 456.276C4.01113 477.178 29.0717 486.575 47.395 482.061C64.1635 477.938 73.78 462.69 73.78 440.233C73.78 420.483 66.4093 396.264 52.4624 370.214C36.3964 340.191 12.3378 308.683 -19.0455 276.564C-19.1262 276.483 -19.1722 276.368 -19.1722 276.253L-19.1722 276.184Z" fill="url(#paint7_linear_558_1678)" fill-opacity="0.4"></path><path d="M101.041 105.857C101.041 119.619 96.2735 142.836 73.5739 175.208C53.0854 204.437 23.0035 233.999 -15.8082 263.089L-17.0405 264.011L-15.8082 264.932C22.992 294.011 53.0509 323.585 73.5393 352.813C96.2504 385.208 101.018 408.425 101.018 422.187C101.018 440.441 92.3693 453.788 77.2938 458.775C58.9245 464.855 33.2074 458.717 4.86449 441.466C-27.6475 421.681 -62.2094 388.042 -95.0784 344.187L-95.9998 342.955L-96.9211 344.187C-129.802 388.03 -164.364 421.669 -196.887 441.443C-225.23 458.683 -250.947 464.821 -269.316 458.729C-284.392 453.731 -293.041 440.406 -293.041 422.164C-293.041 408.391 -288.273 385.174 -265.573 352.79C-245.085 323.562 -215.015 293.999 -176.191 264.909L-174.959 263.988L-176.191 263.066C-214.992 233.988 -245.05 204.414 -265.539 175.185C-288.25 142.79 -293.006 119.573 -293.006 105.8C-293.006 87.5348 -284.357 74.1989 -269.282 69.2123C-250.913 63.1317 -225.195 69.2699 -196.853 86.5214C-164.341 106.306 -129.779 139.946 -96.9096 183.8L-95.9883 185.032L-95.0669 183.8C-62.1864 139.957 -27.6244 106.329 4.88753 86.5559C33.2189 69.316 58.9475 63.1778 77.3168 69.2584C92.3923 74.2565 101.041 87.5809 101.053 105.834L101.053 105.846L101.041 105.857ZM-18.2152 264.011C-18.2152 263.873 -18.1461 263.746 -18.0424 263.665C21.5294 234.23 52.1065 204.299 72.8483 174.713C90.7109 149.239 100.155 125.423 100.155 105.857C100.155 87.7306 91.9316 75.0396 77.0174 70.0991C66.5255 66.6212 43.2501 64.2373 5.32518 87.316C-27.5438 107.308 -62.4513 141.443 -95.6543 186.045C-95.7349 186.149 -95.8731 186.218 -96.0113 186.218C-96.1495 186.218 -96.2762 186.149 -96.3568 186.045C-129.56 141.431 -164.467 107.274 -197.325 87.2814C-235.261 64.2027 -258.525 66.5866 -269.017 70.053C-283.931 74.9935 -292.143 87.696 -292.143 105.811C-292.143 125.377 -282.699 149.193 -264.825 174.69C-244.083 204.276 -213.517 234.207 -173.969 263.642C-173.853 263.723 -173.796 263.85 -173.796 263.999C-173.796 264.149 -173.865 264.264 -173.969 264.356C-213.529 293.792 -244.118 323.723 -264.859 353.308C-282.733 378.794 -292.177 402.61 -292.177 422.176C-292.177 440.28 -283.966 452.97 -269.051 457.911C-258.56 461.389 -235.284 463.773 -197.348 440.706C-164.479 420.725 -129.56 386.579 -96.3568 341.976C-96.2762 341.861 -96.138 341.804 -95.9998 341.804C-95.8616 341.804 -95.7349 341.873 -95.6428 341.976C-62.4513 386.59 -27.5323 420.736 5.32519 440.74C43.2616 463.819 66.5256 461.435 77.0174 457.969C91.9317 453.028 100.143 440.326 100.143 422.21C100.143 402.644 90.6994 378.828 72.8368 353.331C52.095 323.746 21.5293 293.815 -18.0194 264.379C-18.1346 264.299 -18.1922 264.16 -18.1922 264.022L-18.2152 264.011Z" fill="url(#paint8_linear_558_1678)" fill-opacity="0.4"></path><path d="M168 264.035C168 274.894 162.391 285.478 151.773 294.656C136.778 307.624 112.858 317.01 82.6143 321.8C48.2366 327.248 7.44405 326.66 -38.6578 320.061L-40.178 319.843L-39.9591 321.363C-36.3774 346.399 -34.5578 370.215 -34.5578 392.142C-34.5578 485.482 -66.4133 528 -96.0115 528C-112.17 528 -127.199 515.896 -138.347 493.923C-150.855 469.267 -157.465 434.096 -157.465 392.211C-157.465 370.261 -155.646 346.422 -152.052 321.351L-151.834 319.831L-153.354 320.05C-199.444 326.649 -240.237 327.225 -274.603 321.766C-304.846 316.964 -328.755 307.578 -343.761 294.61C-354.38 285.432 -360 274.837 -360 263.988C-360 253.14 -354.38 242.534 -343.761 233.355C-328.755 220.399 -304.846 211.013 -274.603 206.211C-240.237 200.764 -199.433 201.351 -153.342 207.95L-151.822 208.169L-152.041 206.649C-155.623 181.601 -157.442 157.797 -157.442 135.869C-157.442 42.5297 -125.587 0.0115062 -95.977 0.0115049C-80.4869 0.0115043 -65.3307 11.8848 -54.3898 32.5912C-41.3988 57.167 -34.5232 92.8676 -34.5232 135.812C-34.5232 157.762 -36.3429 181.601 -39.9361 206.66L-40.1549 208.18L-38.6347 207.962C7.44407 201.363 48.2366 200.787 82.6028 206.246C112.846 211.048 136.755 220.434 151.761 233.401C162.391 242.58 168.012 253.175 168.012 264.035L168 264.035ZM-41.1339 319.324C-41.1339 319.209 -41.0878 319.094 -41.0072 319.013C-40.9035 318.91 -40.7653 318.864 -40.6271 318.887C6.25783 325.762 47.6723 326.453 82.4761 320.937C112.558 316.169 136.317 306.852 151.197 293.988C161.62 284.983 167.125 274.63 167.125 264.035C167.125 253.428 161.608 243.063 151.174 234.046C136.294 221.194 112.535 211.877 82.4531 207.098C47.6493 201.57 6.23479 202.249 -40.6271 209.125C-40.7653 209.148 -40.9035 209.102 -41.0072 208.998C-41.0878 208.917 -41.1339 208.802 -41.1339 208.687C-37.3449 182.81 -35.4216 158.315 -35.4216 135.812C-35.4216 94.0422 -41.9976 59.0096 -54.4473 34.4683C-65.4344 12.7946 -80.1874 0.8637 -96 0.863701C-111.813 0.863702 -126.577 12.8061 -137.564 34.4798C-150.014 59.0326 -156.59 94.0768 -156.59 135.846C-156.59 158.361 -154.678 182.833 -150.901 208.607L-150.901 208.63C-150.901 208.791 -150.947 208.906 -151.027 208.975C-151.131 209.079 -151.269 209.125 -151.407 209.102C-198.269 202.226 -239.695 201.536 -274.499 207.052C-304.581 211.82 -328.34 221.136 -343.22 233.988C-353.643 242.994 -359.159 253.359 -359.159 263.965C-359.159 274.572 -353.654 284.925 -343.22 293.931C-328.34 306.783 -304.581 316.111 -274.499 320.879C-239.695 326.407 -198.281 325.727 -151.407 318.852C-151.269 318.829 -151.131 318.875 -151.027 318.979C-150.947 319.059 -150.901 319.175 -150.901 319.29C-154.69 345.144 -156.613 369.651 -156.613 392.177C-156.613 433.923 -150.037 468.956 -137.599 493.497C-126.589 515.194 -111.824 527.125 -96.0115 527.125C-80.1989 527.125 -65.4344 515.182 -54.4473 493.509C-41.9976 468.956 -35.4215 433.9 -35.4215 392.131C-35.4215 369.628 -37.3333 345.144 -41.1108 319.37L-41.1108 319.301L-41.1339 319.324Z" fill="url(#paint9_linear_558_1678)" fill-opacity="0.4"></path><path d="M165.143 227.677C165.143 247.428 147.43 267.363 116.542 282.357C91.4931 294.53 45.6216 309.27 -30.5852 310.388L-32.1169 310.411L-31.6678 311.873C-17.9512 356.326 -11.0066 396.495 -11.0066 431.263C-11.0066 460.146 -15.9588 484.284 -25.345 501.075C-33.9596 516.507 -46.0868 525.052 -59.4924 525.132C-79.2668 525.247 -99.2369 507.581 -114.289 476.683C-126.497 451.612 -141.273 405.72 -142.402 329.389L-142.425 327.858L-143.888 328.307C-190.358 342.645 -232.06 349.578 -267.82 348.933C-299.18 348.357 -324.16 341.873 -340.065 330.173C-351.236 321.961 -357.145 311.631 -357.145 300.311C-357.145 280.56 -339.432 260.626 -308.544 245.62C-283.483 233.447 -237.623 218.706 -161.416 217.578L-159.884 217.554L-160.334 216.08C-174.05 171.627 -180.995 131.459 -180.995 96.6908C-180.995 67.8079 -176.043 43.6696 -166.656 26.8789C-158.042 11.447 -145.915 2.90192 -132.509 2.83282C-112.735 2.71766 -92.7645 20.3837 -77.712 51.2819C-65.5042 76.3529 -50.7281 122.245 -49.5995 198.564L-49.5764 200.096L-48.1023 199.647C-1.6319 185.309 40.059 178.376 75.8187 179.021C107.179 179.597 132.159 186.08 148.064 197.769C159.247 205.992 165.155 216.322 165.155 227.643L165.143 227.677ZM-33.1534 309.984C-33.1534 309.892 -33.1189 309.8 -33.0728 309.72C-32.9922 309.616 -32.8655 309.547 -32.7273 309.535C44.516 308.66 90.8712 293.839 116.151 281.562C146.716 266.718 164.256 247.071 164.256 227.666C164.256 216.622 158.463 206.545 147.522 198.495C131.756 186.91 106.949 180.483 75.7842 179.908C39.5868 179.251 -2.69144 186.38 -49.8989 201.121C-50.0256 201.167 -50.1753 201.132 -50.2904 201.052C-50.4056 200.971 -50.4747 200.844 -50.4747 200.706C-51.35 123.34 -66.2182 76.9518 -78.5297 51.662C-93.4209 21.0747 -113.103 3.59287 -132.532 3.70804C-145.604 3.77713 -157.466 12.161 -165.919 27.3165C-175.225 43.9806 -180.143 67.9691 -180.143 96.7023C-180.143 131.931 -172.991 172.687 -158.883 217.865C-158.871 217.912 -158.859 217.946 -158.859 217.992C-158.859 218.084 -158.894 218.176 -158.94 218.257C-159.021 218.372 -159.147 218.43 -159.286 218.441C-236.529 219.317 -282.884 234.138 -308.164 246.414C-338.741 261.259 -356.269 280.906 -356.269 300.311C-356.269 311.343 -350.488 321.432 -339.547 329.47C-323.78 341.055 -298.973 347.482 -267.797 348.057C-231.6 348.714 -189.31 341.585 -142.114 326.844C-141.987 326.798 -141.838 326.833 -141.722 326.913C-141.619 326.994 -141.55 327.121 -141.55 327.259C-140.674 404.626 -125.806 451.013 -113.495 476.303C-98.6035 506.89 -78.9213 524.372 -59.4924 524.257C-46.4208 524.188 -34.5585 515.804 -26.1051 500.649C-16.7995 483.984 -11.8819 459.984 -11.8819 431.263C-11.8819 396.046 -19.0338 355.278 -33.1419 310.1C-33.1534 310.054 -33.1649 310.019 -33.1649 309.973L-33.1534 309.984Z" fill="url(#paint10_linear_558_1678)" fill-opacity="0.4"></path><path d="M124.017 397.738C124.017 413.17 116.45 424.848 102.711 430.629C84.9059 438.126 58.5554 435.166 28.508 422.303C-5.92727 407.562 -44.3359 380.153 -82.5602 343.059L-83.6658 341.988L-84.3798 343.347C-110.684 393.109 -140.329 432.379 -170.123 456.909C-205.145 485.746 -228.709 485.55 -239.638 482.855C-256.833 478.617 -266.691 463.07 -266.691 440.199C-266.691 420.299 -259.286 395.953 -245.27 369.765C-229.423 340.157 -205.802 309.086 -175.063 277.439L-173.992 276.333L-175.351 275.619C-220.877 251.55 -257.961 224.429 -282.619 197.17C-304.155 173.354 -316.018 149.596 -316.018 130.26C-316.018 114.84 -308.451 103.151 -294.711 97.3698C-276.906 89.8727 -250.556 92.8323 -220.509 105.696C-186.062 120.437 -147.665 147.846 -109.44 184.94L-108.335 186.011L-107.621 184.652C-81.3164 134.89 -51.6721 95.6193 -21.8781 71.0895C13.1446 42.2527 36.708 42.4485 47.6375 45.1433C64.8321 49.3698 74.6904 64.9168 74.6904 87.7997C74.6904 107.7 67.2851 132.057 53.2692 158.233C37.422 187.842 13.801 218.913 -16.9373 250.56L-18.0084 251.665L-16.6494 252.379C28.8766 276.437 65.9607 303.569 90.6182 330.828C112.155 354.644 124.017 378.402 124.017 397.738ZM-265.804 440.199C-265.804 462.633 -256.188 477.869 -239.419 482.003C-221.096 486.518 -196.035 477.12 -170.675 456.23C-140.582 431.447 -110.661 391.612 -84.161 341.055C-84.0919 340.928 -83.9767 340.848 -83.8385 340.825C-83.7003 340.802 -83.5621 340.848 -83.4585 340.94C-44.808 378.725 -5.96182 406.571 28.865 421.485C58.6936 434.256 84.8022 437.205 102.377 429.811C115.771 424.18 123.142 412.779 123.142 397.727C123.142 378.61 111.36 355.059 89.9733 331.404C65.0278 303.823 27.3679 276.414 -18.9413 252.149C-19.0679 252.08 -19.1486 251.965 -19.1716 251.827L-19.1716 251.792C-19.1716 251.631 -19.1255 251.527 -19.0564 251.447C12.3499 219.328 36.4201 187.819 52.486 157.796C66.4329 131.746 73.8037 107.539 73.8037 87.7882C73.8037 65.3429 64.1871 50.1068 47.4186 45.984C29.0954 41.4696 4.03478 50.8669 -21.3253 71.7575C-51.4187 96.5406 -81.3394 136.364 -107.84 186.932C-107.909 187.059 -108.024 187.139 -108.151 187.162C-108.289 187.185 -108.427 187.139 -108.531 187.047C-147.181 149.262 -186.027 121.404 -220.854 106.502C-250.683 93.7306 -276.791 90.7824 -294.366 98.1759C-307.76 103.807 -315.131 115.209 -315.131 130.26C-315.131 149.377 -303.349 172.928 -281.962 196.583C-257.017 224.164 -219.357 251.573 -173.048 275.838C-172.921 275.907 -172.841 276.022 -172.817 276.161C-172.817 276.161 -172.817 276.184 -172.817 276.195C-172.817 276.356 -172.864 276.46 -172.933 276.541C-204.339 308.671 -228.409 340.18 -244.475 370.191C-258.422 396.241 -265.793 420.46 -265.793 440.21L-265.804 440.199Z" fill="url(#paint11_linear_558_1678)" fill-opacity="0.4"></path><path d="M142.779 368.418C142.779 381.789 135.857 392.729 123.281 399.224C106.098 408.103 79.5517 408.38 48.5023 400.03C12.9614 390.46 -28.1421 369.696 -70.3512 339.984L-71.6066 339.098L-72.1018 340.549C-112.929 460.123 -170.34 508.203 -206.388 502.284C-226.254 499.025 -238.105 479.412 -238.105 449.85C-238.105 407.113 -214.622 350.222 -171.976 289.658L-171.089 288.403L-172.54 287.908C-224.308 270.23 -266.909 247.796 -295.77 223.048C-320.923 201.466 -334.777 178.94 -334.777 159.593C-334.777 146.222 -327.856 135.293 -315.279 128.787C-298.108 119.908 -271.55 119.631 -240.501 127.981C-204.96 137.551 -163.856 158.303 -121.647 188.027L-120.392 188.913L-119.897 187.462C-79.058 67.8884 -21.6582 19.8078 14.3895 25.7272C34.256 28.9863 46.1183 48.5871 46.1183 78.161C46.1183 120.898 22.6355 177.789 -20.0112 238.364L-20.898 239.62L-19.4469 240.115C32.3212 257.792 74.9219 280.226 103.783 304.975C128.936 326.545 142.79 349.082 142.791 368.43L142.779 368.418ZM-237.241 449.85C-237.241 478.952 -225.656 498.23 -206.25 501.42C-187.512 504.495 -163.914 492.161 -141.502 467.585C-114.91 438.414 -90.9548 393.696 -72.24 338.257C-72.1939 338.13 -72.0903 338.027 -71.9521 337.981C-71.8254 337.934 -71.6757 337.957 -71.5605 338.038C-28.8216 368.349 12.7887 389.493 48.7442 399.178C79.5747 407.481 105.914 407.217 122.889 398.441C135.339 392.015 141.915 381.627 141.915 368.418C141.915 318.057 59.7197 267.754 -21.7272 240.253C-21.8539 240.207 -21.9576 240.103 -22.0036 239.977C-22.0151 239.931 -22.0267 239.885 -22.0267 239.838C-22.0267 239.746 -21.9921 239.654 -21.9461 239.585C3.14908 204.207 45.2546 136.192 45.2546 78.1725C45.2546 49.0477 33.6686 29.7694 14.2628 26.5909C-4.47506 23.516 -28.073 35.85 -50.4732 60.4258C-77.0655 89.5966 -101.009 134.314 -119.735 189.743C-119.781 189.869 -119.885 189.973 -120.012 190.019C-120.138 190.065 -120.288 190.042 -120.392 189.961C-163.142 159.639 -204.741 138.506 -240.708 128.821C-271.539 120.518 -297.877 120.783 -314.853 129.558C-327.303 135.984 -333.879 146.372 -333.879 159.581C-333.879 209.942 -251.684 260.245 -170.237 287.746C-170.11 287.792 -170.006 287.896 -169.96 288.023C-169.949 288.057 -169.937 288.103 -169.937 288.149C-169.937 288.242 -169.96 288.334 -170.018 288.403C-195.113 323.781 -237.218 391.808 -237.218 449.827L-237.241 449.85Z" fill="url(#paint12_linear_558_1678)" fill-opacity="0.4"></path><path d="M156.644 192.484C156.644 228.956 100.073 278.027 -24.1354 299.585L-25.6441 299.85L-24.9646 301.232C9.59736 371.643 16.8529 420.069 16.853 448.284C16.853 488.372 2.11142 514.526 -21.6247 516.53C-41.0536 518.165 -63.1313 502.986 -82.2032 474.864C-104.396 442.146 -121.476 394.077 -131.587 335.862L-131.852 334.353L-133.234 335.033C-234.605 384.795 -301.61 383.343 -330.517 365.401C-342.38 358.042 -348.656 347.712 -348.656 335.528C-348.656 299.056 -292.086 249.973 -167.877 228.414L-166.368 228.15L-167.048 226.768C-201.61 156.357 -208.865 107.931 -208.865 79.7158C-208.865 39.6275 -194.124 13.474 -170.387 11.4702C-150.959 9.83485 -128.881 25.0133 -109.809 53.1362C-87.6046 85.8656 -70.5367 133.923 -60.4249 192.138L-60.16 193.647L-58.778 192.967C42.5815 143.217 109.586 144.656 138.494 162.587C150.367 169.946 156.633 180.276 156.644 192.461L156.644 192.484ZM-26.7382 299.516C-26.7382 299.447 -26.7267 299.378 -26.6921 299.32C-26.6346 299.194 -26.5079 299.113 -26.3697 299.09C31.2259 289.29 79.0898 272.683 112.062 251.033C139.841 232.802 155.78 211.462 155.78 192.484C155.78 180.61 149.642 170.533 138.044 163.336C109.08 145.37 41.7753 144.161 -60.2867 194.695C-60.4134 194.764 -60.5516 194.752 -60.6783 194.695C-60.805 194.637 -60.8856 194.51 -60.9086 194.372C-73.6001 119.77 -94.8947 76.6525 -110.523 53.6199C-129.411 25.7734 -151.2 10.7216 -170.307 12.3339C-193.548 14.2917 -207.978 40.1112 -207.978 79.7043C-207.978 108.173 -200.573 157.048 -165.309 228.276C-165.274 228.334 -165.262 228.403 -165.262 228.472C-165.262 228.541 -165.274 228.61 -165.309 228.679C-165.366 228.795 -165.493 228.887 -165.62 228.91C-223.215 238.71 -271.079 255.328 -304.052 276.967C-331.83 295.198 -347.769 316.549 -347.769 335.528C-347.769 347.39 -341.643 357.466 -330.045 364.653C-301.08 382.629 -233.776 383.827 -131.702 333.294C-131.576 333.236 -131.438 333.236 -131.311 333.294C-131.184 333.351 -131.104 333.478 -131.081 333.605C-118.389 408.207 -97.0944 451.324 -81.4661 474.357C-62.5785 502.203 -40.7887 517.255 -21.6823 515.643C1.55863 513.685 15.9892 487.866 15.9892 448.272C15.9892 419.816 8.58389 370.929 -26.6806 299.7C-26.7152 299.643 -26.7267 299.574 -26.7267 299.505L-26.7382 299.516Z" fill="url(#paint13_linear_558_1678)" fill-opacity="0.4"></path><path d="M142.79 159.616C142.79 178.951 128.936 201.489 103.795 223.047C74.9449 247.796 32.3212 270.23 -19.4469 287.907L-20.898 288.403L-20.0112 289.658C22.624 350.222 46.1068 407.113 46.1068 449.85C46.1068 479.447 34.2445 499.059 14.378 502.318C-21.6696 508.237 -79.0695 460.145 -119.897 340.548L-120.392 339.097L-121.647 339.984C-163.856 369.685 -204.948 390.449 -240.501 400.007C-271.55 408.356 -298.108 408.069 -315.279 399.189C-327.856 392.694 -334.777 381.754 -334.777 368.395C-334.777 349.047 -320.923 326.522 -295.781 304.951C-266.932 280.203 -224.308 257.781 -172.54 240.092L-171.089 239.596L-171.976 238.341C-214.611 177.765 -238.094 120.875 -238.094 78.1492C-238.094 48.5638 -226.231 28.94 -206.365 25.6809C-170.317 19.7615 -112.917 67.8651 -72.0903 187.451L-71.5951 188.902L-70.3397 188.015C-28.1306 158.314 12.9614 137.55 48.5023 127.992C79.5517 119.642 106.098 119.93 123.281 128.798C135.857 135.293 142.79 146.234 142.79 159.593L142.79 159.616ZM-22.0382 288.184C-22.0382 288.184 -22.0382 288.092 -22.0152 288.045C-21.9691 287.919 -21.877 287.815 -21.7388 287.769C59.7197 260.268 141.915 209.988 141.927 159.616C141.927 146.395 135.339 136.019 122.889 129.581C105.902 120.806 79.5747 120.541 48.7442 128.844C12.7887 138.518 -28.8101 159.65 -71.5605 189.961C-71.6757 190.042 -71.8139 190.065 -71.9521 190.019C-72.0903 189.973 -72.1824 189.88 -72.2285 189.742C-90.9433 134.303 -114.887 89.5733 -141.479 60.391C-163.891 35.8037 -187.489 23.4582 -206.215 26.5446C-225.621 29.7346 -237.207 49.0244 -237.207 78.1492C-237.207 136.168 -195.113 204.195 -170.018 239.573C-169.96 239.654 -169.937 239.735 -169.937 239.827C-169.937 239.873 -169.937 239.919 -169.96 239.965C-170.006 240.092 -170.11 240.195 -170.237 240.241C-251.718 267.742 -333.914 318.034 -333.914 368.395C-333.914 381.604 -327.337 391.98 -314.888 398.406C-297.901 407.182 -271.573 407.447 -240.743 399.155C-204.776 389.481 -163.177 368.349 -120.426 338.038C-120.311 337.957 -120.173 337.934 -120.035 337.98C-119.908 338.026 -119.804 338.13 -119.758 338.257C-101.044 393.696 -77.1001 438.426 -50.5077 467.608C-28.096 492.195 -4.50958 504.541 14.2283 501.454C33.6341 498.264 45.22 478.974 45.22 449.85C45.22 391.831 3.12607 323.804 -21.9691 288.426C-22.0151 288.356 -22.0497 288.264 -22.0497 288.172L-22.0382 288.184Z" fill="url(#paint14_linear_558_1678)" fill-opacity="0.4"></path><path d="M156.645 335.55C156.645 347.734 150.368 358.065 138.506 365.435C109.598 383.377 42.605 384.805 -58.7776 335.032L-60.1596 334.353L-60.4245 335.861C-70.5362 394.065 -87.6272 442.122 -109.82 474.84C-128.892 502.951 -150.981 518.13 -170.41 516.495C-194.135 514.491 -208.876 488.349 -208.876 448.283C-208.876 420.057 -201.621 371.631 -167.036 301.22L-166.356 299.838L-167.865 299.573C-292.074 278.003 -348.633 228.921 -348.633 192.448C-348.633 180.264 -342.356 169.934 -330.494 162.564C-301.587 144.621 -234.582 143.193 -133.211 192.955L-131.829 193.635L-131.564 192.126C-121.452 133.923 -104.373 85.865 -82.1682 53.1472C-63.0964 25.0358 -41.0071 9.85731 -21.5898 11.4926C2.13489 13.4965 16.8764 39.627 16.8879 79.7038C16.8879 107.942 9.63236 156.356 -24.9526 226.767L-25.6322 228.149L-24.1234 228.414C100.062 249.984 156.633 299.067 156.645 335.539L156.645 335.55ZM-207.989 448.295C-207.989 487.865 -193.559 513.661 -170.329 515.631C-151.223 517.243 -129.433 502.203 -110.534 474.368C-94.9058 451.335 -73.6112 408.218 -60.9197 333.638C-60.8966 333.5 -60.8045 333.385 -60.6893 333.316C-60.5626 333.258 -60.4129 333.258 -60.2978 333.316C41.7643 383.861 109.08 382.663 138.033 364.698C149.631 357.5 155.758 347.423 155.758 335.562C155.758 316.583 139.818 295.243 112.04 277.001C79.0672 255.362 31.2033 238.733 -26.3807 228.932C-26.519 228.909 -26.6341 228.828 -26.7032 228.702C-26.7378 228.644 -26.7493 228.575 -26.7493 228.506C-26.7493 228.437 -26.7378 228.368 -26.7032 228.31C8.57279 157.082 15.9781 108.207 15.9781 79.7383C15.9781 40.1452 1.53602 14.3487 -21.6934 12.3909C-40.7998 10.7786 -62.5896 25.8189 -81.4772 53.6654C-97.1055 76.698 -118.4 119.804 -131.092 194.395C-131.115 194.533 -131.207 194.648 -131.322 194.717C-131.449 194.775 -131.598 194.786 -131.714 194.717C-233.776 144.172 -301.091 145.37 -330.056 163.335C-341.654 170.533 -347.781 180.61 -347.781 192.472C-347.781 211.45 -331.841 232.79 -304.063 251.032C-271.09 272.671 -223.226 289.301 -165.642 299.101C-165.504 299.124 -165.389 299.216 -165.32 299.331C-165.285 299.389 -165.274 299.458 -165.274 299.527C-165.274 299.596 -165.285 299.665 -165.32 299.723C-200.596 370.951 -208.001 419.838 -208.001 448.306L-207.989 448.295Z" fill="url(#paint15_linear_558_1678)" fill-opacity="0.4"></path><path d="M165.143 300.358C165.143 311.678 159.235 322.008 148.064 330.219C132.159 341.92 107.179 348.404 75.8187 348.968C40.059 349.613 -1.64346 342.669 -48.1138 328.331L-49.588 327.882L-49.611 329.413C-50.7511 405.732 -65.5387 451.624 -77.7466 476.684C-92.799 507.582 -112.769 525.237 -132.544 525.122C-145.949 525.041 -158.065 516.507 -166.691 501.075C-176.066 484.296 -181.018 460.158 -181.018 431.298C-181.018 396.519 -174.062 356.338 -160.345 311.885L-159.896 310.423L-161.428 310.4C-237.623 309.26 -283.483 294.519 -308.544 282.346C-339.432 267.34 -357.145 247.406 -357.145 227.655C-357.145 216.335 -351.236 206.004 -340.065 197.782C-324.16 186.081 -299.18 179.598 -267.82 179.033C-232.06 178.388 -190.358 185.333 -143.888 199.67L-142.425 200.12L-142.402 198.588C-141.262 122.269 -126.474 76.3768 -114.278 51.3173C-99.237 20.419 -79.2553 2.76448 -59.4809 2.87964C-46.0753 2.96025 -33.9481 11.4938 -25.3336 26.9257C-15.9589 43.705 -10.9951 67.8432 -10.9951 96.7146C-10.9951 131.505 -17.9513 171.674 -31.6678 216.127L-32.1169 217.601L-30.5852 217.624C45.61 218.753 91.47 233.505 116.531 245.678C147.419 260.684 165.132 280.619 165.143 300.369L165.143 300.358ZM-180.131 431.298C-180.131 460.02 -175.213 483.997 -165.908 500.649C-157.454 515.793 -145.592 524.166 -132.521 524.246C-113.092 524.361 -93.4094 506.88 -78.5182 476.304C-66.2067 451.014 -51.3385 404.638 -50.4517 327.283C-50.4517 327.145 -50.3826 327.018 -50.2675 326.926C-50.1638 326.845 -50.0141 326.822 -49.8759 326.868C-2.66845 341.609 39.6213 348.749 75.8187 348.104C106.995 347.54 131.802 341.114 147.557 329.528C158.498 321.49 164.279 311.402 164.279 300.369C164.279 280.964 146.739 261.317 116.162 246.461C90.8827 234.185 44.5275 219.352 -32.7043 218.477C-32.8425 218.477 -32.9692 218.407 -33.0498 218.292C-33.0959 218.223 -33.1304 218.131 -33.1304 218.039C-33.1304 217.993 -33.1304 217.947 -33.1074 217.901C-18.9993 172.722 -11.8474 131.954 -11.8474 96.7376C-11.8474 68.0044 -16.765 44.0159 -26.0706 27.3633C-34.524 12.2194 -46.3863 3.84703 -59.4579 3.76642C-78.8868 3.66277 -98.569 21.133 -113.46 51.7088C-125.772 76.9872 -140.64 123.363 -141.527 200.73C-141.527 200.868 -141.596 200.995 -141.711 201.075C-141.826 201.156 -141.964 201.179 -142.091 201.145C-189.31 186.404 -231.588 179.252 -267.774 179.92C-298.95 180.484 -323.757 186.91 -339.512 198.496C-350.453 206.534 -356.235 216.622 -356.235 227.667C-356.235 247.072 -338.695 266.718 -308.129 281.563C-282.85 293.839 -236.494 308.672 -159.263 309.548C-159.124 309.548 -158.998 309.617 -158.917 309.732C-158.859 309.801 -158.836 309.893 -158.836 309.985C-158.836 310.031 -158.836 310.077 -158.86 310.112C-172.968 355.29 -180.131 396.07 -180.131 431.298Z" fill="url(#paint16_linear_558_1678)" fill-opacity="0.4"></path><path d="M124.028 130.284C124.028 149.608 112.166 173.378 90.6293 197.182C65.9718 224.441 28.8761 251.562 -16.6614 275.631L-18.0203 276.345L-16.9493 277.451C13.7776 309.098 37.3871 340.157 53.2342 369.777C67.2502 395.965 74.6555 420.311 74.6555 440.211C74.6555 463.094 64.7971 478.641 47.6025 482.879C36.673 485.574 13.1211 485.77 -21.9015 456.921C-51.6955 432.38 -81.3398 393.109 -107.644 343.347L-108.358 341.988L-109.464 343.059C-147.688 380.153 -186.097 407.551 -220.532 422.28C-250.579 435.144 -276.93 438.092 -294.735 430.595C-308.474 424.814 -316.041 413.136 -316.041 397.716C-316.041 378.38 -304.179 354.622 -282.642 330.806C-257.985 303.547 -220.889 276.414 -175.352 252.357L-173.993 251.643L-175.064 250.537C-205.791 218.89 -229.4 187.819 -245.247 158.211C-259.263 132.023 -266.668 107.666 -266.668 87.7772C-266.668 64.8943 -256.81 49.3473 -239.615 45.1093C-228.686 42.426 -205.134 42.2187 -170.111 71.0671C-140.317 95.6083 -110.673 134.879 -84.3687 184.641L-83.6547 186L-82.5491 184.929C-44.3363 147.835 -5.92772 120.449 28.5191 105.708C58.5665 92.8444 84.9169 89.8962 102.722 97.3933C116.461 103.175 124.028 114.852 124.028 130.272L124.028 130.284ZM-19.172 276.173C-19.149 276.023 -19.0684 275.908 -18.9417 275.85C27.379 251.585 65.0389 224.176 89.9843 196.595C111.371 172.952 123.153 149.401 123.153 130.284C123.153 115.232 115.77 103.842 102.376 98.1995C84.7902 90.7945 58.6816 93.7542 28.8646 106.514C-5.96228 121.416 -44.797 149.263 -83.4589 187.048C-83.5626 187.152 -83.7008 187.186 -83.839 187.163C-83.9772 187.14 -84.0923 187.059 -84.1614 186.933C-110.662 136.365 -140.571 96.5296 -170.676 71.7465C-196.036 50.8559 -221.096 41.4586 -239.42 45.9615C-256.188 50.0843 -265.805 65.3319 -265.805 87.7772C-265.805 107.528 -258.434 131.747 -244.487 157.796C-228.421 187.819 -204.351 219.328 -172.968 251.447C-172.887 251.528 -172.841 251.631 -172.841 251.746C-172.864 251.965 -172.956 252.08 -173.071 252.138C-219.38 276.403 -257.052 303.812 -281.997 331.382C-303.384 355.036 -315.166 378.587 -315.166 397.704C-315.166 412.745 -307.795 424.134 -294.401 429.777C-276.815 437.182 -250.706 434.223 -220.889 421.462C-186.062 406.56 -147.216 378.714 -108.566 340.929C-108.473 340.837 -108.324 340.791 -108.197 340.814C-108.059 340.837 -107.944 340.917 -107.875 341.044C-81.3744 391.612 -51.4537 431.447 -21.3602 456.23C4.01133 477.121 29.0604 486.518 47.3836 482.015C64.1521 477.892 73.7687 462.645 73.7687 440.199C73.7687 420.437 66.3979 396.23 52.4511 370.18C36.3851 340.157 12.3264 308.649 -19.0684 276.53C-19.149 276.449 -19.1951 276.334 -19.1951 276.219L-19.1951 276.161L-19.172 276.173Z" fill="url(#paint17_linear_558_1678)" fill-opacity="0.4"></path><path d="M101.03 105.823C101.03 119.597 96.2622 142.802 73.5625 175.198C53.0741 204.426 23.0037 233.988 -15.7965 263.079L-17.0288 264L-15.7965 264.921C23.0037 294 53.0626 323.562 73.5625 352.791C96.2737 385.175 101.042 408.403 101.042 422.176C101.042 440.441 92.3925 453.766 77.3285 458.764C58.9592 464.844 33.2422 458.706 4.89926 441.466C-27.6127 421.681 -62.1862 388.054 -95.0667 344.188L-95.9881 342.956L-96.9094 344.188C-129.79 388.042 -164.352 421.681 -196.864 441.455C-225.207 458.695 -250.924 464.833 -269.293 458.752C-284.369 453.754 -293.018 440.43 -293.018 422.176C-293.018 408.403 -288.25 385.186 -265.55 352.802C-245.062 323.574 -214.991 294.011 -176.191 264.921L-174.959 264L-176.191 263.079C-214.991 234 -245.05 204.437 -265.55 175.209C-288.261 142.814 -293.029 119.597 -293.029 105.823C-293.029 87.5584 -284.38 74.2225 -269.305 69.236C-250.935 63.1554 -225.218 69.2935 -196.875 86.545C-164.363 106.33 -129.801 139.969 -96.9209 183.823L-95.9996 185.056L-95.0782 183.823C-62.2092 139.969 -27.6357 106.342 4.87623 86.5565C33.2191 69.3165 58.9362 63.1668 77.3055 69.259C92.381 74.2571 101.03 87.593 101.03 105.835L101.03 105.823ZM-18.215 263.988C-18.215 263.85 -18.1459 263.723 -18.0307 263.631C21.5295 234.196 52.1067 204.265 72.8485 174.679C90.7226 149.194 100.166 125.378 100.166 105.812C100.166 87.6966 91.9549 75.0056 77.0406 70.0651C66.5488 66.5872 43.2733 64.2033 5.34842 87.282C-27.5091 107.274 -62.4281 141.42 -95.6311 186.023C-95.7117 186.138 -95.8499 186.196 -95.9881 186.196C-96.1263 186.196 -96.253 186.127 -96.3451 186.023C-129.548 141.409 -164.467 107.263 -197.325 87.2705C-235.261 64.1918 -258.525 66.5757 -269.017 70.0536C-283.931 74.9941 -292.143 87.6966 -292.143 105.812C-292.143 125.378 -282.699 149.194 -264.825 174.691C-244.083 204.276 -213.506 234.207 -173.957 263.631C-173.842 263.712 -173.784 263.85 -173.784 263.988C-173.784 264.127 -173.853 264.253 -173.957 264.345C-213.517 293.781 -244.083 323.7 -264.836 353.297C-282.71 378.783 -292.154 402.599 -292.154 422.176C-292.154 440.292 -283.943 452.983 -269.028 457.923C-258.536 461.401 -235.272 463.785 -197.336 440.706C-164.479 420.714 -129.56 386.568 -96.3566 341.965C-96.276 341.85 -96.1378 341.793 -95.9996 341.793C-95.8614 341.793 -95.7347 341.862 -95.6426 341.977C-62.4396 386.591 -27.5206 420.737 5.33691 440.729C43.2733 463.808 66.5373 461.424 77.0291 457.946C91.9319 453.006 100.143 440.315 100.143 422.199C100.143 402.61 90.6881 378.794 72.8255 353.309C52.0837 323.723 21.5065 293.793 -18.0422 264.357C-18.1574 264.276 -18.215 264.138 -18.215 264L-18.215 263.988Z" fill="url(#paint18_linear_558_1678)" fill-opacity="0.4"></path><path d="M168 264C168 274.86 162.38 285.455 151.761 294.633C136.755 307.601 112.846 316.987 82.6026 321.777C48.2249 327.225 7.43235 326.649 -38.6464 320.05L-40.1667 319.831L-39.9478 321.351C-36.3661 346.399 -34.5464 370.227 -34.5464 392.165C-34.5464 426.864 -38.9343 456.38 -47.6065 479.919C-55.3228 500.891 -66.091 515.839 -78.748 523.14C-89.8732 529.555 -102.116 529.555 -113.241 523.14C-125.898 515.827 -136.678 500.891 -144.394 479.919C-153.066 456.369 -157.465 426.841 -157.465 392.165C-157.465 370.227 -155.646 346.399 -152.064 321.351L-151.845 319.831L-153.365 320.05C-199.456 326.649 -240.248 327.225 -274.615 321.777C-304.858 316.975 -328.767 307.589 -343.773 294.622C-354.392 285.443 -360.012 274.848 -360.012 264C-360.012 253.152 -354.392 242.545 -343.773 233.367C-328.778 220.411 -304.858 211.025 -274.626 206.223C-240.26 200.776 -199.456 201.351 -153.377 207.962L-151.857 208.181L-152.076 206.66C-155.657 181.601 -157.477 157.785 -157.477 135.847C-157.477 42.5184 -125.621 0.0116351 -96.0232 0.0116338C-66.425 0.0116325 -34.5695 42.5184 -34.558 135.847C-34.558 157.785 -36.3776 181.612 -39.9593 206.66L-40.1782 208.181L-38.658 207.962C7.43234 201.363 48.2249 200.776 82.5911 206.234C112.823 211.037 136.743 220.422 151.75 233.378C162.38 242.557 167.988 253.152 167.988 264.012L168 264ZM-41.1225 319.313C-41.1225 319.198 -41.0765 319.083 -40.9959 319.002C-40.8922 318.898 -40.754 318.852 -40.6158 318.875C6.25765 325.751 47.6721 326.43 82.476 320.914C112.558 316.146 136.317 306.818 151.197 293.966C161.62 284.96 167.136 274.595 167.136 264C167.136 253.405 161.62 243.04 151.197 234.035C136.317 221.182 112.558 211.866 82.4759 207.086C47.6606 201.559 6.24613 202.25 -40.6158 209.125C-40.754 209.148 -40.8922 209.102 -40.9844 208.998C-41.065 208.918 -41.111 208.802 -41.111 208.687C-37.322 182.833 -35.4102 158.349 -35.4102 135.847C-35.4102 94.0654 -41.9863 59.0212 -54.436 34.48C-65.423 12.8063 -80.1876 0.875357 -96.0002 0.875357C-111.813 0.875358 -126.566 12.8178 -137.553 34.48C-149.991 59.0212 -156.567 94.0654 -156.567 135.824C-156.567 158.338 -154.644 182.833 -150.866 208.618L-150.866 208.641C-150.866 208.802 -150.912 208.906 -150.993 208.987C-151.085 209.079 -151.235 209.125 -151.373 209.113C-198.247 202.238 -239.661 201.547 -274.465 207.075C-304.547 211.843 -328.306 221.159 -343.186 234.012C-353.608 243.017 -359.125 253.382 -359.125 263.989C-359.125 274.595 -353.62 284.948 -343.186 293.954C-328.306 306.806 -304.535 316.123 -274.465 320.902C-239.649 326.43 -198.247 325.739 -151.373 318.864C-151.235 318.841 -151.097 318.887 -151.005 318.99C-150.924 319.071 -150.878 319.186 -150.878 319.301C-154.667 345.144 -156.579 369.639 -156.579 392.154C-156.579 426.726 -152.202 456.15 -143.565 479.609C-135.917 500.384 -125.276 515.171 -112.792 522.38C-101.793 528.726 -90.1727 528.726 -79.1741 522.38C-66.7014 515.171 -56.0599 500.384 -48.4127 479.62C-39.7866 456.173 -35.4102 426.76 -35.4102 392.2C-35.4102 369.639 -37.3335 345.156 -41.111 319.371L-41.111 319.301L-41.1225 319.313Z" fill="url(#paint19_linear_558_1678)" fill-opacity="0.4"></path></g><defs><linearGradient id="paint0_linear_558_1678" x1="-357.131" y1="264.006" x2="165.157" y2="264.006" gradientUnits="userSpaceOnUse"><stop stop-color="#9BC2CC" stop-opacity="0"></stop><stop offset="1" stop-color="#A7D9E6"></stop></linearGradient><linearGradient id="paint1_linear_558_1678" x1="-316.018" y1="263.98" x2="124.005" y2="263.98" gradientUnits="userSpaceOnUse"><stop stop-color="#9BC2CC" stop-opacity="0"></stop><stop offset="1" stop-color="#A7D9E6"></stop></linearGradient><linearGradient id="paint2_linear_558_1678" x1="-334.756" y1="264.005" x2="142.777" y2="264.005" gradientUnits="userSpaceOnUse"><stop stop-color="#9BC2CC" stop-opacity="0"></stop><stop offset="1" stop-color="#A7D9E6"></stop></linearGradient><linearGradient id="paint3_linear_558_1678" x1="-348.656" y1="264.017" x2="156.656" y2="264.017" gradientUnits="userSpaceOnUse"><stop stop-color="#9BC2CC" stop-opacity="0"></stop><stop offset="1" stop-color="#A7D9E6"></stop></linearGradient><linearGradient id="paint4_linear_558_1678" x1="-334.791" y1="263.994" x2="142.8" y2="263.994" gradientUnits="userSpaceOnUse"><stop stop-color="#9BC2CC" stop-opacity="0"></stop><stop offset="1" stop-color="#A7D9E6"></stop></linearGradient><linearGradient id="paint5_linear_558_1678" x1="-348.633" y1="263.989" x2="156.633" y2="263.989" gradientUnits="userSpaceOnUse"><stop stop-color="#9BC2CC" stop-opacity="0"></stop><stop offset="1" stop-color="#A7D9E6"></stop></linearGradient><linearGradient id="paint6_linear_558_1678" x1="-357.121" y1="263.989" x2="165.155" y2="263.989" gradientUnits="userSpaceOnUse"><stop stop-color="#9BC2CC" stop-opacity="0"></stop><stop offset="1" stop-color="#A7D9E6"></stop></linearGradient><linearGradient id="paint7_linear_558_1678" x1="-316.053" y1="263.999" x2="124.039" y2="263.999" gradientUnits="userSpaceOnUse"><stop stop-color="#9BC2CC" stop-opacity="0"></stop><stop offset="1" stop-color="#A7D9E6"></stop></linearGradient><linearGradient id="paint8_linear_558_1678" x1="-293.041" y1="263.994" x2="101.053" y2="263.994" gradientUnits="userSpaceOnUse"><stop stop-color="#9BC2CC" stop-opacity="0"></stop><stop offset="1" stop-color="#A7D9E6"></stop></linearGradient><linearGradient id="paint9_linear_558_1678" x1="-360" y1="264.006" x2="168.012" y2="264.006" gradientUnits="userSpaceOnUse"><stop stop-color="#9BC2CC" stop-opacity="0"></stop><stop offset="1" stop-color="#A7D9E6"></stop></linearGradient><linearGradient id="paint10_linear_558_1678" x1="-357.145" y1="263.983" x2="165.155" y2="263.983" gradientUnits="userSpaceOnUse"><stop stop-color="#9BC2CC" stop-opacity="0"></stop><stop offset="1" stop-color="#A7D9E6"></stop></linearGradient><linearGradient id="paint11_linear_558_1678" x1="-316.018" y1="263.999" x2="124.017" y2="263.999" gradientUnits="userSpaceOnUse"><stop stop-color="#9BC2CC" stop-opacity="0"></stop><stop offset="1" stop-color="#A7D9E6"></stop></linearGradient><linearGradient id="paint12_linear_558_1678" x1="-334.777" y1="264.005" x2="142.79" y2="264.005" gradientUnits="userSpaceOnUse"><stop stop-color="#9BC2CC" stop-opacity="0"></stop><stop offset="1" stop-color="#A7D9E6"></stop></linearGradient><linearGradient id="paint13_linear_558_1678" x1="-348.656" y1="264" x2="156.644" y2="264" gradientUnits="userSpaceOnUse"><stop stop-color="#9BC2CC" stop-opacity="0"></stop><stop offset="1" stop-color="#A7D9E6"></stop></linearGradient><linearGradient id="paint14_linear_558_1678" x1="-334.777" y1="264" x2="142.79" y2="263.999" gradientUnits="userSpaceOnUse"><stop stop-color="#9BC2CC" stop-opacity="0"></stop><stop offset="1" stop-color="#A7D9E6"></stop></linearGradient><linearGradient id="paint15_linear_558_1678" x1="-348.633" y1="263.994" x2="156.645" y2="263.994" gradientUnits="userSpaceOnUse"><stop stop-color="#9BC2CC" stop-opacity="0"></stop><stop offset="1" stop-color="#A7D9E6"></stop></linearGradient><linearGradient id="paint16_linear_558_1678" x1="-357.145" y1="264.001" x2="165.143" y2="264.001" gradientUnits="userSpaceOnUse"><stop stop-color="#9BC2CC" stop-opacity="0"></stop><stop offset="1" stop-color="#A7D9E6"></stop></linearGradient><linearGradient id="paint17_linear_558_1678" x1="-316.041" y1="263.996" x2="124.028" y2="263.996" gradientUnits="userSpaceOnUse"><stop stop-color="#9BC2CC" stop-opacity="0"></stop><stop offset="1" stop-color="#A7D9E6"></stop></linearGradient><linearGradient id="paint18_linear_558_1678" x1="-293.029" y1="264" x2="101.042" y2="264" gradientUnits="userSpaceOnUse"><stop stop-color="#9BC2CC" stop-opacity="0"></stop><stop offset="1" stop-color="#A7D9E6"></stop></linearGradient><linearGradient id="paint19_linear_558_1678" x1="-360.012" y1="263.981" x2="168" y2="263.981" gradientUnits="userSpaceOnUse"><stop stop-color="#9BC2CC" stop-opacity="0"></stop><stop offset="1" stop-color="#A7D9E6"></stop></linearGradient><clipPath id="clip0_558_1678"><rect width="528" height="168" fill="white" transform="translate(0 528) rotate(-90)"></rect></clipPath></defs></svg>